<ttFont>
          <CharString index="0">
            45.25 -25.3759765625 16.44921875 -19.6435546875 -19.2822265625 -23.40234375 -15.3984375 -39.509765625 vhcurveto
            0 -21.65234375 6.2646484375 -19.9921875 0 -21.7109375 0 -19.625 -4.361328125 -18.869140625 -5.3935546875 -16.828125 rrcurveto
            -21.5751953125 -67.314453125 55.232421875 -13.8076171875 24.1640625 66.4501953125 rlineto
            24.8681640625 68.388671875 8.5048828125 31.8974609375 0 26.2724609375 rrcurveto
            return
          </CharString>
          <CharString index="1">
            -170.875 -176.915039062 -61.2724609375 176.915039062 -187.271484375 62.9990234375 187.271484375 170.874023438 61.2724609375 -170.874023438 170.875 vlineto
            return
          </CharString>
          <CharString index="2">
            51.173828125 -33.88671875 31.755859375 -35.568359375 -32.9111328125 -24.650390625 -26.822265625 -30.203125 vhcurveto
            0 -26.888671875 19.0498046875 -11.498046875 8.8349609375 -5.8759765625 8.6875 -5.7783203125 14.7373046875 -9.2080078125 0 -20.5869140625 0 -16.548828125 -9.923828125 -17.0908203125 -4.8837890625 -8.0224609375 -9.767578125 -16.0478515625 -16.8017578125 -24.333984375 -23.716796875 -21.8115234375 rrcurveto
            34.51953125 -30.205078125 rlineto
            69.6494140625 70.716796875 36.6318359375 65.2109375 0 52.064453125 rrcurveto
            return
          </CharString>
          <CharString index="3">
            -66.451171875 359.87109375 66.451171875 vlineto
            return
          </CharString>
          <CharString index="4">
            31.4716796875 -26.2744140625 25.9248046875 -32.875 -32.8623046875 -26.26171875 -25.923828125 -31.4599609375 -31.5234375 26.2890625 -25.9130859375 32.8173828125 32.888671875 26.2783203125 25.9375 31.486328125 vhcurveto
            return
          </CharString>
          <CharString index="5">
            -61.2724609375 410.788085938 61.2724609375 vlineto
            return
          </CharString>
          <CharString index="6">
            69.0400390625 0 60.41015625 182.956054688 197.626953125 0 69.0400390625 -182.092773438 72.4921875 0 -240.77734375 634.3046875 -7.7666015625 0 rlineto
            return
          </CharString>
          <CharString index="7">
            -168.28515625 0 80.259765625 237.325195312 rlineto
            return
          </CharString>
          <CharString index="8">
            -96.9072265625 -140.1171875 -70.9052734375 -249.434570312 -240.73828125 133.947265625 -77.54296875 102.637695312 hvcurveto
            74.310546875 0 69.4521484375 38.818359375 39.0986328125 63.8798828125 rrcurveto
            -51.779296875 33.6572265625 rlineto
            -28.736328125 -47.564453125 -49.5234375 -28.384765625 -48.8984375 0 rrcurveto
            -91.68359375 -80.630859375 95.6591796875 168.397460938 165.532226562 78.3857421875 92.6767578125 88.0830078125 hvcurveto
            48.7724609375 0 45.4609375 -28.8837890625 25.1484375 -43.435546875 1.9853515625 -3.427734375 1.458984375 -2.5830078125 0 -4.6494140625 0 -2.48046875 -0.423828125 -2.490234375 0 -2.486328125 0 -1.1708984375 -0.0390625 -5.421875 4.599609375 -3.224609375 rrcurveto
            66.451171875 32.794921875 rlineto
            -33.505859375 75.1171875 -74.7646484375 48.291015625 -82.7822265625 0 rrcurveto
            return
          </CharString>
          <CharString index="9">
            -623.94921875 133.765625 vlineto
            49.52734375 0 41.3388671875 2.42578125 43.927734375 22.5830078125 89.3271484375 45.9248046875 48.7421875 106.15625 0 136.3515625 0 119.96875 -35.568359375 104.995117188 -80.1396484375 52.1455078125 -45.2724609375 29.4580078125 -44.8486328125 3.9404296875 -54.953125 0 rrcurveto
            return
          </CharString>
          <CharString index="10">
            75.0810546875 hlineto
            39.2587890625 0 39.4169921875 -2.2529296875 38.5625 -31.9638671875 57.9033203125 -47.9931640625 19.3369140625 -88.6494140625 0 -89.4814453125 0 -118.778320312 -39.4052734375 -68.3564453125 -49.78515625 -33.5927734375 -39.0634765625 -26.3583984375 -38.265625 -1.7431640625 -39.177734375 0 rrcurveto
            -63.8623046875 hlineto
            return
          </CharString>
          <CharString index="11">
            -623.94921875 379.720703125 62.1357421875 -313.26953125 231.284179688 260.625976562 63.8623046875 -260.625976562 204.53125 315.858398438 62.1357421875 vlineto
            return
          </CharString>
          <CharString index="12">
            -82.8662109375 -158.229492188 -51.65625 -273.392578125 -235.825195312 132.041992188 -77.806640625 108.732421875 hvcurveto
            57.716796875 0 66.5986328125 21.515625 58.740234375 43.251953125 rrcurveto
            243.365234375 -177.77734375 -60.4091796875 113.052734375 -148.436523438 vlineto
            -34.9638671875 -24.9169921875 -40.0576171875 -13.0576171875 -37.12890625 0 -40.3115234375 0 -44.291015625 15.935546875 -33.888671875 38.6220703125 -52.01953125 59.2841796875 -7.3125 87.423828125 0 65.8134765625 0 58.0244140625 6.966796875 55.8955078125 24.3759765625 45.873046875 32.1484375 60.4951171875 55.548828125 28.7685546875 52.4892578125 0 55.6103515625 0 44.2666015625 -31.849609375 19.0576171875 -41.755859375 rrcurveto
            3.0693359375 -6.72265625 2.423828125 -7.916015625 7.8251953125 -5.0185546875 rrcurveto
            49.1904296875 50.0537109375 rlineto
            -35.6240234375 64.5693359375 -68.6171875 39.8720703125 -76.767578125 0 rrcurveto
            return
          </CharString>
          <CharString index="13">
            -58.68359375 115.641601562 -506.581054688 -122.545898438 -58.6845703125 321.899414062 57.8212890625 -129.450195312 507.444335938 123.409179688 58.68359375 vlineto
            return
          </CharString>
          <CharString index="14">
            -623.94921875 372.815429688 60.41015625 -300.323242188 529.881835938 vlineto
            0 9.03515625 2.1943359375 3.287109375 2.9462890625 5.6083984375 1.478515625 2.8134765625 3.0908203125 5.8046875 -1.080078125 7.1083984375 rrcurveto
            return
          </CharString>
          <CharString index="15">
            67.314453125 490.18359375 hlineto
            274.43359375 -491.046875 55.232421875 0 0 598.059570312 rlineto
            0 6.953125 1.5908203125 2.4853515625 2.3974609375 4.55859375 1.1171875 2.1259765625 2.599609375 4.80859375 -0.80078125 5.8212890625 rrcurveto
            -74.21875 -462.568359375 hlineto
            -261.48828125 461.705078125 -68.177734375 0 rlineto
            return
          </CharString>
          <CharString index="16">
            0 58.2919921875 -4.173828125 77.4091796875 -33.984375 66.5849609375 -40.8623046875 80.0576171875 -70.8447265625 37.39453125 -67.82421875 0 rrcurveto
            -92.927734375 -131.24609375 -72.5927734375 -244.893554688 -244.845703125 129.428710938 -77.1640625 95.3701171875 hvcurveto
            67.2626953125 0 71.7255859375 37.5166015625 41.01953125 83.009765625 33.103515625 66.9931640625 3.953125 77.515625 0 54.72265625 rrcurveto
            return
          </CharString>
          <CharString index="17">
            44.2109375 0 53.28515625 -26.29296875 29.0390625 -72.2275390625 21.05859375 -52.3798828125 3.1923828125 -59.6708984375 0 -52.740234375 0 -40.8056640625 -2.35546875 -63.5712890625 -25.537109375 -53.7080078125 -28.83203125 -60.64453125 -48.2763671875 -23.6962890625 -41.92578125 0 rrcurveto
            -70.087890625 -85.9970703125 64.78125 198.150390625 185.762695312 86.75390625 57.04296875 65.4716796875 hvcurveto
            return
          </CharString>
          <CharString index="18">
            -623.0859375 70.7666015625 275.296875 120.819335938 vlineto
            138.080078125 -275.296875 78.533203125 0 -144.12109375 277.885742188 rlineto
            75.51171875 20.62890625 51.47265625 71.189453125 0 82.4892578125 0 62.5703125 -30.8046875 58.23828125 -57.3544921875 29.12890625 -39.4736328125 20.048828125 -39.3369140625 0.90625 -40.2734375 0 rrcurveto
            return
          </CharString>
          <CharString index="19">
            113.052734375 hlineto
            26.0322265625 0 25.048828125 -0.63671875 25.3974609375 -12.740234375 38.8427734375 -19.4853515625 20.171875 -39.642578125 0 -40.5595703125 0 -39.734375 -19.2822265625 -37.125 -36.09765625 -18.263671875 -24.0244140625 -12.1552734375 -23.755859375 -0.5849609375 -24.56640625 0 rrcurveto
            -120.819335938 hlineto
            return
          </CharString>
          <CharString index="20">
            -42.19921875 50.138671875 -62.6845703125 27.5380859375 -67.9228515625 0 -112.533203125 0 -77.29296875 -74.44140625 0 -85.216796875 0 -36.3310546875 14.259765625 -46.8427734375 51.9521484375 -38.3603515625 57.7158203125 -42.615234375 89.939453125 -21.5615234375 47.091796875 -29.5146484375 40.8671875 -25.615234375 11.4111328125 -32.5458984375 0 -27.865234375 0 -54.2138671875 -45.6025390625 -58.8212890625 -90.4609375 0 rrcurveto
            -68.3994140625 0 -52.6787109375 33.4521484375 -27.859375 35.2841796875 -3.12890625 3.9619140625 0.2587890625 2.5283203125 0.056640625 4.1259765625 0.0224609375 1.650390625 0.220703125 5.5029296875 -4.78125 2.4267578125 rrcurveto
            -41.423828125 -71.62890625 rlineto
            49.0009765625 -53.3623046875 69.7880859375 -26.9560546875 76.8896484375 0 151.66015625 0 56.0185546875 101.6328125 0 78.419921875 0 32.607421875 -9.4052734375 43.5166015625 -39.00390625 36.728515625 -54.2001953125 51.0400390625 -87.7890625 17.6953125 -57.013671875 33.345703125 -52.1455078125 30.49609375 -11.521484375 36.9619140625 0 25.4716796875 0 47.771484375 41.19921875 43.564453125 71.3310546875 0 rrcurveto
            58.0458984375 0 44.6279296875 -26.525390625 24.1328125 -35.189453125 2.6474609375 -3.859375 -0.5029296875 -2.0849609375 0.1328125 -3.6767578125 0.19921875 -5.5400390625 2.880859375 -1.9755859375 2.1865234375 -0.6640625 rrcurveto
            return
          </CharString>
          <CharString index="21">
            -62.9990234375 176.915039062 -561.813476562 70.765625 561.813476562 183.819335938 62.9990234375 vlineto
            return
          </CharString>
          <CharString index="22">
            -408.19921875 0 vlineto
            0 -44.046875 1.216796875 -42.4130859375 23.0693359375 -42.802734375 34.5322265625 -64.068359375 69.134765625 -32.837890625 73.5244140625 0 72.0166015625 0 69.9951171875 32.1025390625 35.44140625 65.318359375 23.580078125 43.4609375 1.3740234375 43.166015625 0 45.5732421875 rrcurveto
            404.747070312 -66.451171875 -406.47265625 vlineto
            0 -32.1962890625 -0.669921875 -31.4169921875 -15.32421875 -31.7060546875 -23.0283203125 -47.642578125 -46.9208984375 -25.3916015625 -48.626953125 0 -49.41796875 0 -47.0380859375 26.00390625 -22.40625 47.91796875 -14.35546875 30.703125 -0.60546875 30.193359375 0 30.9462890625 rrcurveto
            377.130859375 vlineto
            0 4.5439453125 0.255859375 3.3798828125 3.689453125 5.189453125 2.640625 3.712890625 3.943359375 4.0888671875 0 5.9677734375 0 1.744140625 -0.353515625 1.71875 -0.6826171875 1.5849609375 rrcurveto
            return
          </CharString>
          <CharString index="23">
            191.586914062 -377.994140625 0 -245.955078125 75.943359375 0 0 245.955078125 176.915039062 377.130859375 -74.2177734375 0 -138.080078125 -302.049804688 -152.750976562 302.913085938 rlineto
            return
          </CharString>
          <CharString index="24">
            -62.9990234375 302.049804688 vlineto
            -314.131835938 -511.758789062 0 -49.19140625 412.514648438 0 0 68.177734375 rlineto
            -12.4453125 1.845703125 -3.830078125 -7.88671875 -13.9296875 0 rrcurveto
            -294.283203125 0 308.090820312 512.62109375 0.86328125 49.19140625 rlineto
            return
          </CharString>
          <CharString index="25">
            35.3828125 -45.7392578125 rlineto
            37.41796875 39.173828125 51.4326171875 11.76953125 42.212890625 0 54.26171875 0 26.826171875 -22.796875 12.8955078125 -21.1748046875 15.220703125 -24.99609375 -0.353515625 -29.3935546875 0 -24.2109375 rrcurveto
            -16.3974609375 -14.6708984375 vlineto
            -67.2939453125 0 -72.0322265625 0.705078125 -58.1240234375 -21.3603515625 -72.05859375 -26.482421875 -32.6982421875 -53.3955078125 0 -50.642578125 0 -67.0224609375 58.2509765625 -62.2783203125 95.44921875 0 56.1142578125 0 58.080078125 20.4248046875 49.8466796875 40.849609375 rrcurveto
            -50.0537109375 68.1767578125 283.064453125 vlineto
            0 37.4453125 -1.3447265625 35.3701171875 -21.0869140625 35.142578125 -29.9814453125 49.966796875 -57.97265625 25.94140625 -70.9091796875 0 -61.6298828125 0 -58.7314453125 -19.8251953125 -42.6806640625 -44.083984375 rrcurveto
            return
          </CharString>
          <CharString index="26">
            -30.205078125 vlineto
            0 -23.6650390625 -0.19921875 -29.6318359375 -30.8193359375 -32.755859375 -16.5986328125 -17.642578125 -43.6884765625 -36.271484375 -59.8369140625 0 -60.568359375 0 -35.3935546875 38.25 0 40.8369140625 0 33.185546875 23.298828125 37.310546875 57.27734375 13.673828125 41.4921875 9.9052734375 61.1669921875 -2.990234375 47.4716796875 0 rrcurveto
            return
          </CharString>
          <CharString index="27">
            -35.974609375 52.7314453125 -61.3896484375 31.8671875 -73.4658203125 0 rrcurveto
            -134.26171875 -95.3408203125 -100.66796875 -137.10546875 -137.75 95.8349609375 -101.741210938 129.219726562 hvcurveto
            63.78125 0 61.1240234375 25.529296875 43.568359375 46.9638671875 rrcurveto
            -41.423828125 48.3271484375 rlineto
            -30.8876953125 -35 -44.357421875 -20.25 -45.7861328125 0 rrcurveto
            -89.0234375 -67.8583984375 74.5986328125 106.758789062 104.11328125 66.9130859375 64.990234375 83.94921875 hvcurveto
            78.0009765625 0 37.5146484375 -54.4677734375 2.6484375 -5.357421875 3.8173828125 -7.71875 -5.4375 -9.3935546875 7.91796875 -5.974609375 rrcurveto
            return
          </CharString>
          <CharString index="28">
            -109.115234375 -100.938476562 -78.0283203125 -166.770507812 -152.219726562 95.2763671875 -81.44140625 124.087890625 hvcurveto
            65.20703125 0 59.2275390625 23.8623046875 39.115234375 47.02734375 rrcurveto
            -39.6982421875 38.8349609375 rlineto
            -29.7763671875 -33.3486328125 -43.0703125 -18.05078125 -45.4248046875 0 -61.119140625 0 -88.486328125 33.6953125 -5.4365234375 136.797851562 rrcurveto
            324.23046875 hlineto
            2.771484375 31.388671875 -1.4501953125 29.341796875 -4.4873046875 26.5205078125 -20.7509765625 122.6484375 -85.263671875 39.7421875 -74.8984375 0 rrcurveto
            return
          </CharString>
          <CharString index="29">
            14.228515625 107.745117188 69.5380859375 31.34375 49.02734375 0 74.04296875 0 52.869140625 -65.009765625 -8.580078125 -74.0791015625 rrcurveto
            return
          </CharString>
          <CharString index="30">
            55.3642578125 45.080078125 45.0107421875 55.5302734375 55.52734375 45.0322265625 -45.0126953125 -55.32421875 -55.3603515625 -45.0712890625 -45.0126953125 -55.5263671875 -55.533203125 -45.0390625 45.0078125 55.3271484375 vhcurveto
            return
          </CharString>
          <CharString index="31">
            -90.9521484375 -79.8095703125 -72.2744140625 -89.2685546875 hvcurveto
            0 -49.982421875 25.673828125 -46.49609375 41.8642578125 -27.2412109375 -32.9609375 -27.9453125 -18.76953125 -30.8779296875 0 -29.3525390625 0 -19.0224609375 7.783203125 -26.6923828125 28.86328125 -15.16796875 -49.033203125 -31.302734375 -25.2646484375 -33.5947265625 0 -36.2998046875 rrcurveto
            -49.8076171875 46.4609375 -58.4130859375 160.112304688 154.728515625 55.478515625 78.4189453125 61.2763671875 vhcurveto
            0 39.548828125 -22.5087890625 39.921875 -48.52734375 19.705078125 -47.69140625 19.3662109375 -55.18359375 -6.423828125 -51.7705078125 0 -34.1083984375 0 -21.3955078125 3.072265625 -9.740234375 2.6767578125 -17.4990234375 4.80859375 -10.1845703125 10.771484375 0 14.3994140625 0 24.1767578125 28.1455078125 23.2041015625 4.490234375 3.7041015625 18.576171875 -6.884765625 19.654296875 -3.5205078125 19.8115234375 0 rrcurveto
            90.4765625 74.13671875 72.166015625 84.3271484375 hvcurveto
            0 27.69140625 -8.142578125 26.9208984375 -15.16015625 22.8173828125 24.0634765625 14.4423828125 27.5791015625 7.6630859375 28.1494140625 0 8.833984375 0 8.818359375 -0.7548828125 8.705078125 -1.501953125 rrcurveto
            -8.630859375 58.6845703125 rlineto
            -45.9501953125 3.62109375 -45.560546875 -14.5537109375 -35.349609375 -29.62890625 -28.1669921875 28.0712890625 -38.3818359375 15.5517578125 -41.6630859375 0 rrcurveto
            return
          </CharString>
          <CharString index="32">
            17.3154296875 -2.2392578125 24.244140625 -1.962890625 34.9599609375 -1.294921875 33.71484375 -1.2490234375 36.859375 2.5361328125 26.2080078125 -3.9501953125 42.3642578125 -6.3857421875 12.150390625 -26.6611328125 0 -20.115234375 0 -19.7998046875 -11.375 -23.90625 -31.3720703125 -16.931640625 -33.4765625 -18.0654296875 -38.6337890625 -1.9345703125 -30.580078125 0 -20.859375 0 -38.8779296875 1.19921875 -34.53515625 13.73046875 rrcurveto
            -36.9287109375 14.6845703125 -8.091796875 25.13671875 0 15.962890625 0 32.8388671875 30.6630859375 23.9921875 26.2509765625 14.4150390625 rrcurveto
            return
          </CharString>
          <CharString index="33">
            -58.68359375 110.463867188 -340.884765625 -116.504882812 -57.8212890625 296.008789062 57.8212890625 -107.01171875 399.568359375 vlineto
            return
          </CharString>
          <CharString index="34">
            -28.6357421875 -23.1630859375 -23.0732421875 -28.287109375 -28.28125 23.16015625 -23.0625 28.626953125 28.64453125 23.16015625 23.072265625 28.27734375 28.2958984375 -23.1689453125 23.05859375 -28.6240234375 hvcurveto
            return
          </CharString>
          <CharString index="35">
            -59.546875 170.010742188 -379.719726562 vlineto
            0 -24.4013671875 -0.43359375 -24.0146484375 -11.251953125 -24.283203125 -17.2197265625 -37.1591796875 -36 -20.4677734375 -38.640625 0 -55.23828125 0 -29.88671875 39.5185546875 -3.6826171875 6.01953125 -4.1005859375 6.7021484375 1.5927734375 6.501953125 -6.2177734375 5.1328125 rrcurveto
            -46.6015625 -62.1357421875 rlineto
            32.7099609375 -40.5849609375 50.15234375 -23.4326171875 56.68359375 0 65.1904296875 0 63.8955078125 30.65625 30.9697265625 60.6484375 19.51171875 38.2099609375 1.0595703125 37.4716796875 0 39.42578125 rrcurveto
            425.458984375 vlineto
            return
          </CharString>
          <CharString index="36">
            -57.8203125 129.450195312 -548.868164062 -135.491210938 -57.8212890625 342.610351562 57.8212890625 -134.627929688 606.688476562 vlineto
            return
          </CharString>
          <CharString index="37">
            73.35546875 263.21484375 hlineto
            0 30.767578125 3.69921875 22.349609375 19.00390625 25.3232421875 17.41796875 23.2099609375 43.90234375 40.3828125 48.3095703125 0 22.927734375 0 22.6005859375 -9.3203125 16.4091796875 -19.607421875 24.7255859375 -29.546875 0.2060546875 -39.20703125 0 -32.26953125 rrcurveto
            -275.296875 70.765625 277.0234375 0 vlineto
            0 35.6708984375 -0.234375 37.6953125 -16.2490234375 36.724609375 -22.7451171875 51.4013671875 -46.8291015625 29.232421875 -52.0595703125 0 -61.9951171875 0 -56.3095703125 -40.5615234375 -33.5458984375 -50.9189453125 rrcurveto
            80.259765625 -73.35546875 vlineto
            return
          </CharString>
          <CharString index="38">
            157.739257812 -99.5576171875 82.7802734375 -103.828125 -116.427734375 -99.81640625 -100.85546875 -141.153320312 -138.982421875 98.96875 -97.978515625 115.141601562 108.18359375 97.3359375 86.994140625 151.456054688 vhcurveto
            return
          </CharString>
          <CharString index="39">
            65.9072265625 69.9365234375 -56.8720703125 -125.444335938 -114.989257812 -65.83203125 -58.3447265625 -66.68359375 -72.8076171875 -65.8154296875 68.376953125 112.69140625 111.991210938 65.423828125 62.5908203125 69.87109375 hvcurveto
            return
          </CharString>
          <CharString index="40">
            40.103515625 96.775390625 -20.962890625 -165.810546875 -144.075195312 -94.5341796875 -23.044921875 -42.794921875 hvcurveto
            -43.3271484375 0 -43.0888671875 21.4638671875 -18.03515625 41.544921875 -13.3779296875 30.818359375 0.2861328125 37.6416015625 0 66.1708984375 0 38.53515625 2.015625 27.7880859375 10.05859375 23.7265625 17.396484375 41.0341796875 42.498046875 25.169921875 46.0244140625 0 rrcurveto
            return
          </CharString>
          <CharString index="41">
            -457.390625 72.4921875 222.654296875 vlineto
            0 27.568359375 1.0673828125 30.328125 31.0546875 49.099609375 41.513671875 65.6328125 54.53125 11.3671875 32.302734375 0 38.4384765625 0 24.16796875 -17.83203125 12.826171875 -16.38671875 6.0029296875 -7.6689453125 3.2783203125 -7.9072265625 7.6748046875 -7.33984375 rrcurveto
            33.6572265625 69.0400390625 rlineto
            -28.740234375 29.4404296875 -42.0615234375 20.443359375 -51.310546875 0 -66.7392578125 0 -67.7431640625 -33.759765625 -29.9208984375 -65.3154296875 rrcurveto
            2.5888671875 88.0263671875 rlineto
            return
          </CharString>
          <CharString index="42">
            -42.2158203125 46.5205078125 -60.654296875 25.111328125 -67.576171875 0 -106.104492188 0 -69.5146484375 -59.291015625 0 -68.236328125 0 -79.76953125 86.5048828125 -29.0654296875 24.796875 -8.9638671875 38.638671875 -13.966796875 50.4453125 -12.1357421875 33.701171875 -15.7734375 37.6904296875 -17.642578125 7.8955078125 -24.05859375 0 -16.509765625 0 -42.794921875 -52.19140625 -29.4873046875 -65.2666015625 0 rrcurveto
            -78.310546875 0 -50.16015625 47.189453125 -14.455078125 16.4306640625 -3.40625 3.8740234375 0.4443359375 2.814453125 0.1845703125 3.9990234375 0.0625 1.373046875 0.4365234375 5.7275390625 -4.9267578125 2.302734375 rrcurveto
            -41.423828125 -71.62890625 rlineto
            53.6279296875 -49.8662109375 69.8232421875 -22.6259765625 69.396484375 0 124.854492188 0 65.2099609375 73.6826171875 0 68.958984375 0 31.62109375 -13 41.333984375 -54.0576171875 30.3447265625 -51.6259765625 28.978515625 -73.5693359375 10.31640625 -42.701171875 20.6357421875 -37.3193359375 18.0361328125 -7.94140625 22.1552734375 0 15.349609375 0 36.763671875 44.60546875 25.62109375 51.65234375 0 rrcurveto
            65.126953125 0 44.3037109375 -40.29296875 17.388671875 -22.4404296875 2.81640625 -3.6357421875 -0.65625 -2.3994140625 -0.0234375 -3.5126953125 -0.0390625 -5.982421875 3.48046875 -1.6396484375 1.765625 -0.419921875 rrcurveto
            return
          </CharString>
          <CharString index="43">
            -8.6298828125 -122.545898438 -108.73828125 0 -0.8623046875 -58.6845703125 107.01171875 0 rlineto
            -6.3759765625 -78.2236328125 -3.1171875 -77.755859375 0 -77.583984375 0 -40.9853515625 0.3701171875 -45.9091796875 26.5888671875 -37.462890625 21.6640625 -30.525390625 35.7041015625 -18.130859375 46.662109375 0 54.396484375 0 53.0009765625 22.7412109375 38.63671875 28.2802734375 rrcurveto
            -22.4384765625 56.9580078125 rlineto
            -38.7666015625 -28.8251953125 -35.427734375 -12.880859375 -28.13671875 0 -34.1015625 0 -35.4521484375 18.8701171875 -7.3115234375 54.86328125 -0.5361328125 4.01953125 -2.3994140625 17.578125 0 66.220703125 0 59.7158203125 2.8955078125 59.642578125 5.7734375 59.3935546875 rrcurveto
            150.162109375 59.546875 -149.298828125 hlineto
            0 0 6.8955078125 82.287109375 4.701171875 25.3291015625 1.9873046875 10.7021484375 7.1875 6.169921875 -3.51171875 10.1396484375 rrcurveto
            return
          </CharString>
          <CharString index="44">
            -0.86328125 -254.584960938 rlineto
            -0.134765625 -39.78515625 0.408203125 -40.072265625 17.845703125 -40.1298828125 26.6845703125 -60.005859375 55.8642578125 -33.1826171875 59.435546875 0 57.2900390625 0 54.02734375 30.724609375 29.7666015625 50.412109375 rrcurveto
            -0.86328125 -34.5205078125 rlineto
            -0.2919921875 -11.6552734375 0.1240234375 -11.9482421875 1.8935546875 -11.779296875 rrcurveto
            75.9443359375 hlineto
            -4.388671875 13.6533203125 -0.7890625 14.3857421875 0 13.384765625 rrcurveto
            415.103515625 -72.4921875 -251.133789062 vlineto
            0 -35.1689453125 -2.724609375 -27.1396484375 -15.265625 -27.8798828125 -20.9375 -38.2353515625 -40.6064453125 -29.5048828125 -44.0068359375 0 -35.7568359375 0 -33.3603515625 19.7685546875 -18.19140625 36.1220703125 -16.2314453125 32.2294921875 0.1123046875 35.720703125 0 30.63671875 rrcurveto
            254.584960938 vlineto
            return
          </CharString>
          <CharString index="45">
            185.544921875 -454.801757812 -14.6708984375 -33.65625 rlineto
            -7.9208984375 -18.1708984375 -9.1259765625 -19.474609375 -14.4755859375 -15.4140625 -19.0185546875 -20.2529296875 -23.46875 -9.33984375 -21.3974609375 0 -33.8623046875 0 -17.279296875 22.7041015625 -2.54296875 4.8720703125 -2.58203125 4.94921875 0.5078125 6.6689453125 -5.900390625 4.623046875 rrcurveto
            -37.1083984375 -64.7255859375 rlineto
            26.36328125 -25.2431640625 35.0576171875 -12.8837890625 37.5615234375 0 41.26171875 0 42.8037109375 15.177734375 30.44140625 34.25 19.9560546875 22.4541015625 9.6484375 24.0947265625 9.7646484375 25.861328125 rrcurveto
            142.395507812 377.130859375 rlineto
            16.4267578125 43.505859375 15.8779296875 43.8671875 13.43359375 44.666015625 rrcurveto
            -75.0810546875 hlineto
            -7.546875 -41.8271484375 -12.984375 -40.521484375 -13.98828125 -39.333984375 rrcurveto
            -87.1630859375 -245.091796875 -133.764648438 336.569335938 rlineto
            -1.126953125 2.8369140625 -0.7431640625 2.2138671875 0 2.9111328125 0 7.361328125 5.0205078125 5.0263671875 -0.5615234375 8.9931640625 rrcurveto
            return
          </CharString>
          <CharString index="46">
            -62.9990234375 262.352539062 vlineto
            -283.064453125 -346.0625 0 -49.19140625 399.569335938 0 0 68.177734375 rlineto
            -12.4453125 1.845703125 -3.8291015625 -7.88671875 -13.9306640625 0 rrcurveto
            -271.844726562 0 278.749023438 346.92578125 0 49.1904296875 rlineto
            return
          </CharString>
          <CharString index="47">
            -28.478515625 33.6572265625 -111.327148438 -68.177734375 -103.560546875 70.7666015625 -32.7939453125 -37.97265625 123.409179688 -97.5185546875 21.5751953125 0 rlineto
            return
          </CharString>
          <CharString index="48">
            -37.97265625 34.51953125 -81.1220703125 -101.833984375 -77.669921875 102.697265625 -46.6015625 -34.5205078125 110.463867188 -141.53125 21.5751953125 0 rlineto
            return
          </CharString>
          <CharString index="49">
            132.180664062 110.072265625 112.66015625 143.111328125 142.830078125 -109.84375 112.408203125 -132.013671875 -132.37890625 -110.137695312 -112.776367188 -143.227539062 -142.471679688 109.76953125 -112.534179688 132.3515625 hvcurveto
            return
          </CharString>
          <CharString index="50">
            120.180664062 90.365234375 93.1533203125 107.620117188 107.458984375 90.05078125 -92.900390625 -119.669921875 -119.98828125 -90.333984375 -92.9775390625 -107.447265625 -107.78125 -89.9326171875 93.0322265625 119.169921875 vhcurveto
            return
          </CharString>
          <CharString index="51">
            -54.369140625 349.514648438 54.369140625 vlineto
            return
          </CharString>
          <CharString index="52">
            0 -23.3017578125 157.928710938 -168.284179688 39.6982421875 39.697265625 -127.724609375 139.806640625 120.8203125 118.23046875 -38.8349609375 41.423828125 rlineto
            return
          </CharString>
          <CharString index="53">
            -56.095703125 253.721679688 56.095703125 vlineto
            return
          </CharString>
          <CharString index="54">
            -151.888671875 147.572265625 -38.8349609375 -41.423828125 120.8203125 -118.23046875 -127.723632812 -139.806640625 39.697265625 -39.697265625 157.9296875 168.284179688 rlineto
            return
          </CharString>
          <CharString index="55">
            27.8671875 -22.634765625 22.63671875 -27.8662109375 -27.8662109375 -22.6357421875 -22.63671875 -27.8671875 -27.865234375 22.63671875 -22.634765625 27.8662109375 27.8642578125 22.6357421875 22.63671875 27.86328125 vhcurveto
            return
          </CharString>
          <CharString index="56">
            27.931640625 -22.4951171875 22.57421875 -27.5537109375 -27.578125 -22.484375 -22.587890625 -27.916015625 -27.92578125 22.4921875 -22.580078125 27.568359375 27.5732421875 22.4775390625 22.591796875 27.912109375 vhcurveto
            return
          </CharString>
          <CharString index="57">
            -39.6982421875 -69.9033203125 169.1484375 -61.2734375 23.30078125 41.4248046875 rlineto
            return
          </CharString>
          <CharString index="58">
            -152.750976562 -89.751953125 23.3017578125 -41.4248046875 169.147460938 61.2734375 rlineto
            return
          </CharString>
          <CharString index="59">
            28.478515625 -33.6572265625 111.327148438 68.177734375 103.560546875 -70.7666015625 32.7939453125 37.97265625 -123.409179688 97.5185546875 -21.5751953125 0 rlineto
            return
          </CharString>
          <CharString index="60">
            23.958984375 38.650390625 15.0078125 22.9951171875 26.486328125 0 44.0478515625 0 27.080078125 -75.666015625 58.1552734375 0 36.8837890625 0 27.2314453125 27.94921875 34.568359375 43.029296875 rrcurveto
            -37.109375 39.6982421875 rlineto
            -21.748046875 -29.349609375 -11.7041015625 -23.3544921875 -24.6640625 0 -18.6552734375 0 -15.015625 14.712890625 -16.20703125 16.890625 -12.8515625 13.3916015625 -26.845703125 29.5146484375 -40.4169921875 0 -38.986328125 0 -37.103515625 -27.9873046875 -36.98828125 -58.5439453125 rrcurveto
            return
          </CharString>
          <CharString index="61">
            -264.078125 -48.328125 -57.8203125 48.328125 -302.05078125 127.723632812 vlineto
            44.2099609375 0 33.34375 2.73046875 35.3759765625 16.470703125 95.8876953125 44.6455078125 51.0439453125 119.298828125 0 132.811523438 0 106.015625 -32.046875 109.447265625 -74.9951171875 55.5322265625 -43.4384765625 32.1650390625 -43.248046875 4.83203125 -54.05078125 0 rrcurveto
            return
          </CharString>
          <CharString index="62">
            104.422851562 57.8203125 -104.422851562 205.39453125 70.7666015625 hlineto
            38.5185546875 0 51.251953125 -1.68359375 42.5634765625 -58.28125 37.52734375 -51.384765625 15.041015625 -77.158203125 0 -69.4521484375 0 -98.6240234375 -31.826171875 -84.47265625 -60.259765625 -40.6728515625 -35.2353515625 -23.783203125 -33.1953125 -1.931640625 -35.60546875 0 rrcurveto
            -59.546875 hlineto
            return
          </CharString>
          <CharString index="63">
            -62.9990234375 -42.287109375 100.970703125 -134.627929688 50.0537109375 30.205078125 rlineto
            return
          </CharString>
          <CharString index="64">
            -88.0263671875 -146.709960938 50.0537109375 -30.205078125 100.971679688 134.627929688 rlineto
            return
          </CharString>
          <CharString index="65">
            37.97265625 -34.51953125 81.1220703125 101.833984375 77.669921875 -102.697265625 46.6015625 34.5205078125 -110.463867188 141.53125 -21.5751953125 0 rlineto
            return
          </CharString>
          <CharString index="66">
            27.8671875 -22.634765625 22.63671875 -27.8662109375 -27.8662109375 -22.6357421875 -22.63671875 -27.8662109375 -27.8662109375 22.63671875 -22.6337890625 27.8662109375 27.8642578125 22.6357421875 22.6357421875 27.86328125 vhcurveto
            return
          </CharString>
          <CharString index="67">
            27.9306640625 -22.4951171875 22.57421875 -27.5537109375 -27.578125 -22.484375 -22.5869140625 -27.9169921875 -27.9248046875 22.4921875 -22.580078125 27.568359375 27.5732421875 22.4775390625 22.5908203125 27.9130859375 vhcurveto
            return
          </CharString>
          <CharString index="68">
            48.189453125 -40.5537109375 39.8427734375 -51.0048828125 -50.9609375 -40.5087890625 -39.826171875 -48.1474609375 -48.2978515625 40.5859375 -39.8212890625 50.89453125 51.0166015625 40.53125 39.859375 48.201171875 vhcurveto
            return
          </CharString>
          <CharString index="69">
            26.1474609375 19.060546875 19.796875 22.45703125 22.705078125 18.7294921875 -20.0078125 -25.6826171875 -26.08984375 -18.98828125 -19.796875 -22.4697265625 -22.755859375 -18.73828125 20.033203125 25.599609375 vhcurveto
            return
          </CharString>
          <CharString index="70">
            -51.173828125 33.88671875 -31.755859375 35.568359375 32.9111328125 24.650390625 26.822265625 30.203125 vhcurveto
            0 26.888671875 -19.0498046875 11.498046875 -8.8349609375 5.8759765625 -8.6875 5.7783203125 -14.7373046875 9.2080078125 0 20.5869140625 0 16.548828125 9.923828125 17.0908203125 4.8837890625 8.0224609375 9.767578125 16.0478515625 16.8017578125 24.333984375 23.716796875 21.8115234375 rrcurveto
            -34.51953125 30.205078125 rlineto
            -69.6494140625 -70.716796875 -36.6318359375 -65.2109375 0 -52.064453125 rrcurveto
            return
          </CharString>
          <CharString index="71">
            -36.24609375 -45.73828125 rlineto
            39.66796875 -47.748046875 54.576171875 -29.0732421875 54.6220703125 0 60.423828125 0 52.8759765625 34.3935546875 33.84375 45.87890625 rrcurveto
            -28.4794921875 41.4248046875 rlineto
            -34.1171875 -44.1376953125 -43.0029296875 -25.771484375 -41.697265625 0 -49.39453125 0 -40.2646484375 34.708984375 -22.8076171875 36.0625 rrcurveto
            return
          </CharString>
          <CharString index="72">
            46.6015625 -25.8896484375 314.131835938 680.043945312 -47.46484375 26.7529296875 rlineto
            return
          </CharString>
          <CharString index="73">
            -160.172851562 -205.048828125 0 -28.306640625 145.674804688 0 0 -78.0146484375 45.56640625 0 0 77.3251953125 50.3994140625 0 0 37.9716796875 -50.3994140625 0 0 196.073242188 rlineto
            return
          </CharString>
          <CharString index="74">
            -118.05859375 -93.89453125 vlineto
            return
          </CharString>
          <CharString index="75">
            -34.51953125 0 -107.012695312 -58.6845703125 13.1181640625 -24.853515625 77.32421875 20.0205078125 0 -240.2578125 51.08984375 0 rlineto
            return
          </CharString>
          <CharString index="76">
            -131.17578125 -124.272460938 31.9306640625 -41.423828125 145.846679688 100.970703125 rlineto
            return
          </CharString>
          <CharString index="77">
            -131.17578125 -124.272460938 31.9306640625 -41.423828125 145.84765625 100.970703125 rlineto
            return
          </CharString>
        <CharString name=".notdef">
          endchar
        </CharString>
        <CharString name="A">
          14.6708984375 -0.86328125 rmoveto
          -101 callsubr
          91.4775390625 -397.842773438 rmoveto
          -100 callsubr
          endchar
        </CharString>
        <CharString name="AE">
          200.215820312 623.94921875 rmoveto
          -195.900390625 -623.94921875 63.861328125 0 53.505859375 169.1484375 130.313476562 0 0 -169.1484375 229.557617188 0 0 62.1357421875 -166.55859375 0 -1.7265625 231.284179688 144.984375 0 0 63.8623046875 -145.846679688 0 -1.7265625 204.53125 173.462890625 0 0 62.1357421875 rlineto
          -232.146484375 -62.1357421875 rmoveto
          -334.844726562 -115.642578125 vlineto
          104.423828125 334.844726562 rlineto
          endchar
        </CharString>
        <CharString name="Aacute">
          308.090820312 791.37109375 rmoveto
          -49 callsubr
          -333.118164062 -722.331054688 rmoveto
          -101 callsubr
          91.4775390625 -397.842773438 rmoveto
          -100 callsubr
          endchar
        </CharString>
        <CharString name="Abreve">
          127.723632812 784.466796875 rmoveto
          -36 callsubr
          -113.052734375 -785.330078125 rmoveto
          -101 callsubr
          91.4775390625 -397.842773438 rmoveto
          -100 callsubr
          endchar
        </CharString>
        <CharString name="Acircumflex">
          101.833984375 692.125976562 rmoveto
          -48 callsubr
          -218.338867188 -792.234375 rmoveto
          -101 callsubr
          91.4775390625 -397.842773438 rmoveto
          -100 callsubr
          endchar
        </CharString>
        <CharString name="Adieresis">
          201.958007812 738.294921875 rmoveto
          -52 callsubr
          177.763671875 0.01171875 rmoveto
          -51 callsubr
          -365.05078125 -739.169921875 rmoveto
          -101 callsubr
          91.4775390625 -397.842773438 rmoveto
          -100 callsubr
          endchar
        </CharString>
        <CharString name="Agrave">
          181.23046875 791.37109375 rmoveto
          -50 callsubr
          -319.310546875 -702.482421875 rmoveto
          -101 callsubr
          91.4775390625 -397.842773438 rmoveto
          -100 callsubr
          endchar
        </CharString>
        <CharString name="Aogonek">
          326.213867188 236.461914062 rmoveto
          -100 callsubr
          -223.517578125 -474.650390625 rmoveto
          69.0400390625 0 60.41015625 182.956054688 197.626953125 0 69.0400390625 -182.092773438 6.904296875 0 rlineto
          -51.8134765625 -42.744140625 -27.5390625 -39.8984375 0 -32.2177734375 0 -33.35546875 26.5869140625 -27.837890625 51.81640625 0 24.8544921875 0 24.6640625 6.310546875 19.607421875 16.9921875 rrcurveto
          45.7392578125 vlineto
          -6.357421875 -5.2744140625 -10.0771484375 -6.8828125 -15.619140625 -5.6884765625 -10.5126953125 -3.828125 -7.369140625 -1.4521484375 -6.205078125 0 -18.2080078125 0 -11.046875 13.0810546875 0 15.359375 0 14.7890625 9.806640625 11.857421875 7.0283203125 7.9609375 8.4921875 9.6171875 24.7216796875 27.2744140625 33.6201171875 30.1982421875 rrcurveto
          -0.8623046875 0 -240.77734375 634.3046875 -7.7666015625 0 rlineto
          endchar
        </CharString>
        <CharString name="Aring">
          199.279296875 707.46484375 rmoveto
          26.1474609375 19.0361328125 19.796875 22.45703125 22.705078125 18.75390625 -20.0078125 -25.6826171875 -26.08984375 -18.98828125 -19.796875 -22.470703125 -22.755859375 -18.7373046875 20.033203125 25.599609375 vhcurveto
          126.934570312 -471.002929688 rmoveto
          -100 callsubr
          10.0859375 145.314453125 rmoveto
          46.9775390625 4.107421875 36.14453125 38.07421875 0 45.51171875 rrcurveto
          48.189453125 -40.5546875 39.8427734375 -51.0048828125 -50.9599609375 -40.5087890625 -39.826171875 -48.1474609375 vhcurveto
          0 -44.9892578125 35.2060546875 -37.6337890625 45.9580078125 -4.9453125 rrcurveto
          -214.861328125 -620.1484375 69.0400390625 0 60.41015625 182.956054688 197.626953125 0 69.0400390625 -182.092773438 72.4921875 0 rlineto
          endchar
        </CharString>
        <CharString name="Atilde">
          131.17578125 683.49609375 rmoveto
          -47 callsubr
          -71.62890625 -716.290039062 rmoveto
          -101 callsubr
          91.4775390625 -397.842773438 rmoveto
          -100 callsubr
          endchar
        </CharString>
        <CharString name="B">
          48.328125 623.0859375 rmoveto
          -623.0859375 176.051757812 vlineto
          42.3828125 0 42.8974609375 0.4921875 43.05859375 18.2978515625 67.0537109375 28.494140625 36.8603515625 61.0126953125 0 64.2197265625 0 72.55859375 -46.7998046875 65.3759765625 -69.810546875 23.5302734375 55.912109375 22.810546875 36.4287109375 54.3330078125 0 59.736328125 0 55.9921875 -32.169921875 53.3876953125 -58.5498046875 25.4609375 -38.986328125 16.9521484375 -39.09765625 0.431640625 -38.31640625 0 rrcurveto
          -107.875 -59.546875 rmoveto
          98.3818359375 hlineto
          26.609375 0 28.478515625 -0.09765625 27.693359375 -11.1865234375 41.3173828125 -16.689453125 21.89453125 -35.298828125 0 -35.853515625 0 -35.5654296875 -21.35546875 -34.29296875 -39.232421875 -16.9794921875 -28.68359375 -12.412109375 -29.84375 -0.1142578125 -27.7412109375 0 rrcurveto
          -97.5185546875 hlineto
          -58.68359375 vmoveto
          101.833984375 hlineto
          31.4755859375 0 30.916015625 -0.607421875 31.1025390625 -14.7626953125 46.2490234375 -21.951171875 24.525390625 -44.46875 0 -45.0625 0 -44.5576171875 -23.7060546875 -41.68359375 -43.056640625 -19.4013671875 -26.9091796875 -12.125 -26.4072265625 -0.4716796875 -26.9296875 0 rrcurveto
          -119.09375 hlineto
          endchar
        </CharString>
        <CharString name="C">
          277.556640625 628.263671875 rmoveto
          -99 callsubr
          endchar
        </CharString>
        <CharString name="Cacute">
          308.090820312 791.37109375 rmoveto
          -49 callsubr
          -70.232421875 -93.2041015625 rmoveto
          -99 callsubr
          endchar
        </CharString>
        <CharString name="Ccaron">
          413.376953125 755.125 rmoveto
          -60 callsubr
          -4.64453125 -27.6162109375 rmoveto
          -99 callsubr
          endchar
        </CharString>
        <CharString name="Ccedilla">
          277.556640625 628.263671875 rmoveto
          -96.9072265625 -140.1171875 -70.9052734375 -249.434570312 hvcurveto
          0 -227.721679688 119.853515625 -81.697265625 99.833984375 -8.1689453125 rrcurveto
          -9.9501953125 -75.7724609375 29.3427734375 0 rlineto
          11.3916015625 0 14.4140625 0.0302734375 10.767578125 -6.599609375 7.8359375 -4.8017578125 3.0576171875 -6.6787109375 0 -5.8896484375 0 -8.705078125 -6.8037109375 -15.693359375 -38.8818359375 0 -30.2333984375 0 -37.65625 10.0615234375 -31.4111328125 25.3310546875 rrcurveto
          -25.0263671875 -41.423828125 rlineto
          37.3642578125 -26.2763671875 42.783203125 -10.912109375 38.4189453125 0 73.392578125 0 35.0703125 38.6103515625 0 35.724609375 0 19.38671875 -10.4404296875 17.9775390625 -19.0634765625 9.25 -12.8486328125 6.2353515625 -13.1259765625 0.8095703125 -12.7587890625 0.671875 rrcurveto
          -16.3974609375 0.86328125 4.2294921875 38.76953125 rlineto
          64.0146484375 8.0439453125 57.8798828125 36.7998046875 34.3935546875 56.1923828125 rrcurveto
          -51.779296875 33.6572265625 rlineto
          -28.736328125 -47.564453125 -49.5234375 -28.384765625 -48.8984375 0 rrcurveto
          -91.68359375 -80.630859375 95.6591796875 168.397460938 165.532226562 78.3857421875 92.6767578125 88.0830078125 hvcurveto
          48.7724609375 0 45.4599609375 -28.884765625 25.1494140625 -43.4345703125 1.9853515625 -3.427734375 1.458984375 -2.5830078125 0 -4.6494140625 0 -2.48046875 -0.423828125 -2.490234375 0 -2.486328125 0 -1.1708984375 -0.119140625 -5.3662109375 4.6796875 -3.2802734375 rrcurveto
          66.451171875 32.794921875 rlineto
          -33.505859375 75.1171875 -74.7646484375 48.291015625 -82.7822265625 0 rrcurveto
          endchar
        </CharString>
        <CharString name="D">
          53.505859375 623.0859375 rmoveto
          -98 callsubr
          -79.3955078125 -59.546875 rmoveto
          -97 callsubr
          endchar
        </CharString>
        <CharString name="Dcaron">
          371.08984375 755.125 rmoveto
          -60 callsubr
          -186.408203125 -32.7939453125 rmoveto
          -98 callsubr
          -79.3955078125 -59.546875 rmoveto
          -97 callsubr
          endchar
        </CharString>
        <CharString name="Dcroat">
          78.533203125 623.0859375 rmoveto
          -46 callsubr
          -75.0810546875 -321.8984375 rmoveto
          -45 callsubr
          endchar
        </CharString>
        <CharString name="E">
          58.68359375 623.94921875 rmoveto
          -96 callsubr
          endchar
        </CharString>
        <CharString name="Eacute">
          325.350585938 791.37109375 rmoveto
          -49 callsubr
          -306.365234375 -97.5185546875 rmoveto
          -96 callsubr
          endchar
        </CharString>
        <CharString name="Ecaron">
          396.98046875 755.125 rmoveto
          -60 callsubr
          -207.12109375 -31.9306640625 rmoveto
          -96 callsubr
          endchar
        </CharString>
        <CharString name="Ecircumflex">
          110.463867188 692.125976562 rmoveto
          -48 callsubr
          -182.956054688 -167.421875 rmoveto
          -96 callsubr
          endchar
        </CharString>
        <CharString name="Edieresis">
          208.861328125 738.294921875 rmoveto
          -52 callsubr
          177.763671875 0.01171875 rmoveto
          -51 callsubr
          -327.94140625 -114.357421875 rmoveto
          -96 callsubr
          endchar
        </CharString>
        <CharString name="Egrave">
          181.23046875 791.37109375 rmoveto
          -50 callsubr
          -275.297851562 -77.669921875 rmoveto
          -96 callsubr
          endchar
        </CharString>
        <CharString name="Eng">
          50.9169921875 hmoveto
          73.35546875 412.513671875 hlineto
          0 33.1611328125 3.57421875 24.4052734375 19.291015625 27.5283203125 22.240234375 31.734375 50.4326171875 42.009765625 54.0859375 0 37.5751953125 0 33.35546875 -20.2880859375 17.7705078125 -35.447265625 15.4560546875 -30.8310546875 -0.0595703125 -33.6640625 0 -29.115234375 rrcurveto
          -251.99609375 vlineto
          0 -23.6201171875 -0.091796875 -26.935546875 -11.048828125 -23.4775390625 -13.3720703125 -28.416015625 -25.4248046875 -15.4619140625 -28.220703125 0 -23.5419921875 0 -18.44921875 10.7939453125 -2.0458984375 1.4921875 -4.181640625 3.05078125 -0.7841796875 5.1494140625 -5.7412109375 3.3583984375 rrcurveto
          -35.3828125 -62.13671875 rlineto
          26.8154296875 -15.9765625 30.326171875 -8.3798828125 30.6162109375 0 57.7568359375 0 51.9052734375 29.7138671875 24.73828125 52.603515625 16.2705078125 34.5966796875 0.6220703125 34.1982421875 0 34.6259765625 rrcurveto
          248.543945312 0 vlineto
          0 39.4130859375 -0.53515625 39.880859375 -18.2412109375 39.8212890625 -26.7158203125 58.3173828125 -55.443359375 33.150390625 -61.53515625 0 -65.54296875 0 -61.0361328125 -37 -35.4375 -55.3525390625 rrcurveto
          81.1220703125 -73.35546875 vlineto
          endchar
        </CharString>
        <CharString name="Eogonek">
          58.68359375 623.94921875 rmoveto
          -623.94921875 311.54296875 vlineto
          -51.8125 -42.744140625 -27.5390625 -39.8984375 0 -32.2177734375 0 -33.35546875 26.5869140625 -27.837890625 51.81640625 0 24.853515625 0 24.6650390625 6.310546875 19.607421875 16.9921875 rrcurveto
          45.7392578125 vlineto
          -6.357421875 -5.2744140625 -10.0771484375 -6.8828125 -15.6201171875 -5.6884765625 -10.51171875 -3.828125 -7.369140625 -1.4521484375 -6.205078125 0 -18.2080078125 0 -11.0478515625 13.0810546875 0 15.359375 0 14.7890625 9.8076171875 11.857421875 7.0283203125 7.9609375 8.4921875 9.6171875 24.7216796875 27.2744140625 33.6201171875 30.1982421875 rrcurveto
          1.7265625 62.1357421875 -313.26953125 231.284179688 260.625976562 63.8623046875 -260.625976562 204.53125 315.858398438 62.1357421875 hlineto
          endchar
        </CharString>
        <CharString name="Eth">
          78.533203125 623.0859375 rmoveto
          -46 callsubr
          -75.0810546875 -321.8984375 rmoveto
          -45 callsubr
          endchar
        </CharString>
        <CharString name="F">
          77.669921875 623.94921875 rmoveto
          -623.94921875 70.765625 306.365234375 233.010742188 60.41015625 -233.010742188 195.900390625 288.2421875 61.2734375 vlineto
          endchar
        </CharString>
        <CharString name="G">
          277.244140625 629.145507812 rmoveto
          -95 callsubr
          endchar
        </CharString>
        <CharString name="Gbreve">
          145.846679688 790.5078125 rmoveto
          -36 callsubr
          131.397460938 -161.362304688 rmoveto
          -95 callsubr
          endchar
        </CharString>
        <CharString name="H">
          54.369140625 623.0859375 rmoveto
          -623.0859375 72.4921875 296.872070312 243.365234375 -297.735351562 70.7666015625 601.51171875 vlineto
          0 10.3603515625 7.193359375 0.3095703125 0 7.5703125 0 1.4921875 -0.3994140625 1.44921875 -0.7529296875 1.255859375 rrcurveto
          -75.9443359375 -266.666992188 -244.228515625 242.502929688 hlineto
          0 10.68359375 6.2578125 1.0087890625 0 7.8662109375 0 1.6103515625 -0.3701171875 1.5771484375 -0.7099609375 1.41796875 rrcurveto
          endchar
        </CharString>
        <CharString name="I">
          88.0263671875 623.0859375 rmoveto
          -94 callsubr
          endchar
        </CharString>
        <CharString name="Iacute">
          325.350585938 791.37109375 rmoveto
          -49 callsubr
          -277.022460938 -98.3818359375 rmoveto
          -94 callsubr
          endchar
        </CharString>
        <CharString name="Icircumflex">
          100.970703125 692.125976562 rmoveto
          -48 callsubr
          -144.120117188 -168.28515625 rmoveto
          -94 callsubr
          endchar
        </CharString>
        <CharString name="Idieresis">
          205.41015625 738.294921875 rmoveto
          -52 callsubr
          177.763671875 0.01171875 rmoveto
          -51 callsubr
          -295.147460938 -115.220703125 rmoveto
          -94 callsubr
          endchar
        </CharString>
        <CharString name="Idotaccent">
          237.328125 791.37109375 rmoveto
          -73 callsubr
          -149.301757812 -168.28515625 rmoveto
          -94 callsubr
          endchar
        </CharString>
        <CharString name="Igrave">
          181.23046875 791.37109375 rmoveto
          -50 callsubr
          -245.955078125 -78.533203125 rmoveto
          -94 callsubr
          endchar
        </CharString>
        <CharString name="J">
          171.737304688 623.0859375 rmoveto
          -58.68359375 119.95703125 -356.418945312 vlineto
          0 -38.5771484375 0.853515625 -44.4755859375 -23.19921875 -34.5556640625 -16.6728515625 -24.8359375 -27.048828125 -14.896484375 -29.9345703125 0 -52.1220703125 0 -39.4384765625 43.2880859375 -2.158203125 2.7841796875 -4.4345703125 5.71875 4.1875 6.890625 -5.93359375 5.455078125 rrcurveto
          -46.6015625 -56.9580078125 rlineto
          36.908203125 -44.162109375 53.37890625 -24.9658203125 55.09765625 0 58.994140625 0 54.01171875 29.009765625 28.876953125 54.0390625 23.869140625 44.66796875 0.40625 47.3125 0 45.123046875 rrcurveto
          355.556640625 95.79296875 58.68359375 vlineto
          endchar
        </CharString>
        <CharString name="K">
          42.287109375 623.94921875 rmoveto
          -623.94921875 74.2177734375 258.037109375 vlineto
          49.19140625 53.505859375 216.612304688 -315.858398438 rlineto
          0 0 39.5341796875 3.6025390625 49.35546875 -0.150390625 rrcurveto
          -251.99609375 354.693359375 235.598632812 269.255859375 -25.8896484375 0 rlineto
          -16.9287109375 0 -17.7138671875 0.81640625 -17.1376953125 4.361328125 rrcurveto
          -260.625976562 -292.556640625 0 262.3515625 rlineto
          0 4.328125 0.361328125 2.6572265625 3.4931640625 4.5439453125 2.3193359375 3.013671875 4.4296875 4.5947265625 -1.1103515625 6.7529296875 rrcurveto
          endchar
        </CharString>
        <CharString name="L">
          66.451171875 623.0859375 rmoveto
          -93 callsubr
          endchar
        </CharString>
        <CharString name="Lacute">
          308.090820312 791.37109375 rmoveto
          -49 callsubr
          -281.337890625 -98.3818359375 rmoveto
          -93 callsubr
          endchar
        </CharString>
        <CharString name="Lcaron">
          422.729492188 561.520507812 rmoveto
          40.939453125 -27.109375 25.404296875 -28.455078125 -26.328125 -19.720703125 -21.4580078125 -24.162109375 vhcurveto
          0 -21.5107421875 15.240234375 -9.1982421875 7.0673828125 -4.701171875 6.9501953125 -4.623046875 11.7900390625 -7.3662109375 0 -16.4697265625 0 -13.23828125 -7.939453125 -13.6728515625 -3.9072265625 -6.41796875 -7.8134765625 -12.8388671875 -13.44140625 -19.466796875 -18.9736328125 -17.44921875 rrcurveto
          27.615234375 -24.1640625 rlineto
          55.7197265625 56.5732421875 29.3056640625 52.1689453125 0 41.6513671875 rrcurveto
          -356.278320312 61.5654296875 rmoveto
          -93 callsubr
          endchar
        </CharString>
        <CharString name="Lslash">
          73.35546875 623.0859375 rmoveto
          0 -318.293945312 -53.5068359375 -17.4130859375 0 -61.2724609375 53.5068359375 17.15625 0 -244.125976562 372.815429688 0 0 60.41015625 -300.32421875 0 0 206.9609375 191.5859375 61.4326171875 0 63.861328125 rlineto
          -9.208984375 -4.154296875 -7.8583984375 -2.466796875 -8.822265625 -2.8720703125 rrcurveto
          -165.696289062 -53.9248046875 0 261.044921875 rlineto
          0 15.90625 8.8515625 2.060546875 0 12.732421875 0 0.9912109375 -0.0732421875 0.98828125 -0.1484375 0.978515625 rrcurveto
          endchar
        </CharString>
        <CharString name="M">
          40.560546875 623.0859375 rmoveto
          -623.94921875 65.5888671875 467.74609375 vlineto
          125.998046875 -247.680664062 26.7529296875 0 134.627929688 251.1328125 0 -471.198242188 66.4501953125 0 0 624.8125 -52.642578125 0 -157.06640625 -305.501953125 -154.4765625 304.638671875 rlineto
          endchar
        </CharString>
        <CharString name="N">
          50.0537109375 hmoveto
          -92 callsubr
          endchar
        </CharString>
        <CharString name="Nacute">
          308.090820312 791.37109375 rmoveto
          -49 callsubr
          -297.735351562 -721.467773438 rmoveto
          -92 callsubr
          endchar
        </CharString>
        <CharString name="NameMe.1">
          391 endchar
        </CharString>
        <CharString name="NameMe.10">
          314 endchar
        </CharString>
        <CharString name="NameMe.11">
          305 endchar
        </CharString>
        <CharString name="NameMe.12">
          296 endchar
        </CharString>
        <CharString name="NameMe.127">
          124 endchar
        </CharString>
        <CharString name="NameMe.128">
          115 endchar
        </CharString>
        <CharString name="NameMe.129">
          107 endchar
        </CharString>
        <CharString name="NameMe.13">
          288 endchar
        </CharString>
        <CharString name="NameMe.130">
          98 endchar
        </CharString>
        <CharString name="NameMe.131">
          89 endchar
        </CharString>
        <CharString name="NameMe.132">
          81 endchar
        </CharString>
        <CharString name="NameMe.133">
          72 endchar
        </CharString>
        <CharString name="NameMe.134">
          63 endchar
        </CharString>
        <CharString name="NameMe.135">
          55 endchar
        </CharString>
        <CharString name="NameMe.136">
          46 endchar
        </CharString>
        <CharString name="NameMe.137">
          38 endchar
        </CharString>
        <CharString name="NameMe.138">
          29 endchar
        </CharString>
        <CharString name="NameMe.139">
          20 endchar
        </CharString>
        <CharString name="NameMe.14">
          279 endchar
        </CharString>
        <CharString name="NameMe.140">
          12 endchar
        </CharString>
        <CharString name="NameMe.141">
          3 endchar
        </CharString>
        <CharString name="NameMe.142">
          -6 endchar
        </CharString>
        <CharString name="NameMe.143">
          -14 endchar
        </CharString>
        <CharString name="NameMe.144">
          -23 endchar
        </CharString>
        <CharString name="NameMe.145">
          -31 endchar
        </CharString>
        <CharString name="NameMe.146">
          -40 endchar
        </CharString>
        <CharString name="NameMe.147">
          -49 endchar
        </CharString>
        <CharString name="NameMe.148">
          -57 endchar
        </CharString>
        <CharString name="NameMe.149">
          -66 endchar
        </CharString>
        <CharString name="NameMe.15">
          271 endchar
        </CharString>
        <CharString name="NameMe.150">
          -75 endchar
        </CharString>
        <CharString name="NameMe.151">
          -83 endchar
        </CharString>
        <CharString name="NameMe.152">
          -92 endchar
        </CharString>
        <CharString name="NameMe.153">
          -100 endchar
        </CharString>
        <CharString name="NameMe.154">
          -108 endchar
        </CharString>
        <CharString name="NameMe.155">
          -117 endchar
        </CharString>
        <CharString name="NameMe.156">
          -125 endchar
        </CharString>
        <CharString name="NameMe.157">
          -134 endchar
        </CharString>
        <CharString name="NameMe.158">
          -143 endchar
        </CharString>
        <CharString name="NameMe.159">
          -151 endchar
        </CharString>
        <CharString name="NameMe.16">
          262 endchar
        </CharString>
        <CharString name="NameMe.17">
          253 endchar
        </CharString>
        <CharString name="NameMe.18">
          245 endchar
        </CharString>
        <CharString name="NameMe.19">
          236 endchar
        </CharString>
        <CharString name="NameMe.2">
          383 endchar
        </CharString>
        <CharString name="NameMe.20">
          227 endchar
        </CharString>
        <CharString name="NameMe.21">
          219 endchar
        </CharString>
        <CharString name="NameMe.22">
          210 endchar
        </CharString>
        <CharString name="NameMe.23">
          202 endchar
        </CharString>
        <CharString name="NameMe.24">
          193 endchar
        </CharString>
        <CharString name="NameMe.25">
          184 endchar
        </CharString>
        <CharString name="NameMe.26">
          176 endchar
        </CharString>
        <CharString name="NameMe.27">
          167 endchar
        </CharString>
        <CharString name="NameMe.28">
          158 endchar
        </CharString>
        <CharString name="NameMe.29">
          150 endchar
        </CharString>
        <CharString name="NameMe.3">
          374 endchar
        </CharString>
        <CharString name="NameMe.30">
          141 endchar
        </CharString>
        <CharString name="NameMe.31">
          133 endchar
        </CharString>
        <CharString name="NameMe.329">
          -160 endchar
        </CharString>
        <CharString name="NameMe.4">
          366 endchar
        </CharString>
        <CharString name="NameMe.5">
          357 endchar
        </CharString>
        <CharString name="NameMe.6">
          348 endchar
        </CharString>
        <CharString name="NameMe.7">
          340 endchar
        </CharString>
        <CharString name="NameMe.8">
          331 endchar
        </CharString>
        <CharString name="NameMe.9">
          322 endchar
        </CharString>
        <CharString name="Ncaron">
          396.98046875 755.125 rmoveto
          -60 callsubr
          -215.750976562 -655.879882812 rmoveto
          -92 callsubr
          endchar
        </CharString>
        <CharString name="Ntilde">
          135.491210938 683.49609375 rmoveto
          -47 callsubr
          -40.5615234375 -715.426757812 rmoveto
          -92 callsubr
          endchar
        </CharString>
        <CharString name="O">
          471.205078125 310.251953125 rmoveto
          -91 callsubr
          -220.623046875 254.158203125 rmoveto
          -90 callsubr
          endchar
        </CharString>
        <CharString name="OE">
          252.859375 595.469726562 rmoveto
          -21.1669921875 22.970703125 -29.7666015625 13.27734375 -31.2578125 0 -40.427734375 0 -54.240234375 -22.9921875 -33.140625 -77.4951171875 -26.8076171875 -62.6875 -6.740234375 -72.34375 0 -83.947265625 0 -117.366210938 18.943359375 -62.6435546875 3.724609375 -12.1767578125 28.6533203125 -93.6748046875 60.306640625 -33.3701171875 49.3271484375 0 31.7607421875 0 29.8583984375 13.7861328125 20.1103515625 24.26171875 rrcurveto
          -31.068359375 229.557617188 62.1357421875 -166.55859375 231.284179688 143.2578125 63.8623046875 -143.2578125 204.53125 169.147460938 62.1357421875 -231.283203125 vlineto
          -179.526367188 -299.651367188 rmoveto
          0 105.765625 13.34765625 46.1220703125 6.1240234375 18.36328125 18.15234375 54.4404296875 30.1484375 24.9091796875 29.484375 0 45.0625 0 25.671875 -55.03125 10.671875 -33.861328125 rrcurveto
          -355.555664062 vlineto
          -9.8173828125 -44.3544921875 -28.5810546875 -30.7412109375 -34.5595703125 0 -22.521484375 0 -32.8095703125 13.7607421875 -22.4814453125 54.9296875 -27.9140625 68.19921875 0.021484375 105.163085938 0 27.890625 rrcurveto
          endchar
        </CharString>
        <CharString name="Oacute">
          325.350585938 791.37109375 rmoveto
          -49 callsubr
          106.15625 -411.215820312 rmoveto
          -91 callsubr
          -220.623046875 254.158203125 rmoveto
          -90 callsubr
          endchar
        </CharString>
        <CharString name="Ocircumflex">
          113.052734375 692.125976562 rmoveto
          -48 callsubr
          226.9765625 -481.119140625 rmoveto
          -91 callsubr
          -220.623046875 254.158203125 rmoveto
          -90 callsubr
          endchar
        </CharString>
        <CharString name="Odieresis">
          208.861328125 738.294921875 rmoveto
          -52 callsubr
          177.763671875 0.01171875 rmoveto
          -51 callsubr
          84.580078125 -428.0546875 rmoveto
          -91 callsubr
          -220.623046875 254.158203125 rmoveto
          -90 callsubr
          endchar
        </CharString>
        <CharString name="Ograve">
          181.23046875 791.37109375 rmoveto
          -50 callsubr
          137.223632812 -391.3671875 rmoveto
          -91 callsubr
          -220.623046875 254.158203125 rmoveto
          -90 callsubr
          endchar
        </CharString>
        <CharString name="Ohungarumlaut">
          410.788085938 810.357421875 rmoveto
          -31 callsubr
          -224.379882812 64.7255859375 rmoveto
          -30 callsubr
          191.592773438 -435.379882812 rmoveto
          -91 callsubr
          -220.623046875 254.158203125 rmoveto
          -90 callsubr
          endchar
        </CharString>
        <CharString name="Oslash">
          250.58203125 564.41015625 rmoveto
          27.7646484375 0 31.34375 -10.369140625 26.6708984375 -25.60546875 rrcurveto
          -203.9140625 -383.673828125 rlineto
          -20.62109375 40.8935546875 -13.4697265625 57.5302734375 0 78.4189453125 0 185.762695312 86.75390625 57.04296875 65.4716796875 0 rrcurveto
          220.623046875 -254.158203125 rmoveto
          0 58.2919921875 -4.173828125 77.4091796875 -33.984375 66.5849609375 -5.9609375 11.677734375 -6.599609375 10.771484375 -7.134765625 9.87890625 rrcurveto
          55.2578125 103.247070312 -53.505859375 28.478515625 -45.828125 -86.2265625 rlineto
          -35.189453125 26.7705078125 -40.8037109375 12.8544921875 -39.7666015625 0 -92.927734375 0 -131.24609375 -72.5927734375 0 -244.893554688 0 -111.668945312 26.921875 -76.7900390625 38.3349609375 -50.498046875 rrcurveto
          -58.3525390625 -109.79296875 51.7802734375 -26.7529296875 49.869140625 93.1796875 rlineto
          37.5556640625 -28.1923828125 41.8818359375 -11.494140625 36.8076171875 0 67.2626953125 0 71.7255859375 37.5166015625 41.01953125 83.009765625 33.103515625 66.9931640625 3.953125 77.515625 0 54.72265625 rrcurveto
          -96.740234375 161.955078125 rmoveto
          2.65234375 -6.3173828125 rlineto
          21.05859375 -52.3798828125 3.1923828125 -59.6708984375 0 -52.740234375 0 -40.8056640625 -2.357421875 -63.5712890625 -25.53515625 -53.7080078125 -28.8330078125 -60.64453125 -48.275390625 -23.6962890625 -41.92578125 0 -27.353515625 0 -29.77734375 9.8671875 -26.1416015625 23.8115234375 rrcurveto
          endchar
        </CharString>
        <CharString name="Otilde">
          135.491210938 683.49609375 rmoveto
          -47 callsubr
          380.58984375 -405.174804688 rmoveto
          -91 callsubr
          -220.623046875 254.158203125 rmoveto
          -90 callsubr
          endchar
        </CharString>
        <CharString name="P">
          58.68359375 623.0859375 rmoveto
          -623.0859375 72.4921875 275.296875 122.545898438 0 vlineto
          38.8154296875 0 37.3544921875 0.9638671875 37.8447265625 19.23828125 57.62109375 29.2919921875 30.3203125 59.677734375 0 63.1689453125 0 63.0146484375 -30.3671875 60.97265625 -58.8603515625 30.3125 -39.0712890625 20.12109375 -38.654296875 1.02734375 -40.1806640625 0 rrcurveto
          -117.368164062 -65.587890625 rmoveto
          117.368164062 hlineto
          26.0322265625 0 25.048828125 -0.63671875 25.3974609375 -12.740234375 38.84375 -19.4853515625 20.1708984375 -39.642578125 0 -40.5595703125 0 -39.734375 -19.2822265625 -37.125 -36.09765625 -18.263671875 -24.0244140625 -12.1552734375 -23.755859375 -0.5849609375 -24.56640625 0 rrcurveto
          -125.997070312 hlineto
          endchar
        </CharString>
        <CharString name="Q">
          250.694335938 566.149414062 rmoveto
          43.8671875 0 53.9130859375 -25.8603515625 30.0263671875 -73.59375 21.6904296875 -53.1669921875 3.796875 -60.591796875 0 -52.3896484375 rrcurveto
          -207.047851562 -96.75 -38.2734375 -52.28515625 -73.248046875 -84.220703125 69.8037109375 197.626953125 182.96484375 85.27734375 60.5283203125 67.9326171875 vhcurveto
          220.516601562 -257.298828125 rmoveto
          0 59.076171875 -4.1328125 76.865234375 -33.3115234375 66.3359375 -40.6298828125 80.90625 -71.2177734375 37.9560546875 -68.365234375 0 -92.646484375 0 -131.56640625 -72.1845703125 0 -245.428710938 0 -221.380859375 105.95703125 -84.0302734375 90.626953125 -14.2197265625 -0.845703125 -56.9423828125 15.369140625 -42.98046875 45.408203125 -22.5380859375 38.7744140625 -19.248046875 43.552734375 4.595703125 71.9462890625 -0.6171875 rrcurveto
          1.7265625 68.177734375 rlineto
          -31.7783203125 -1.3740234375 -27.064453125 -3.87890625 -22.3662109375 0 -62.625 0 -9.4638671875 40.974609375 -1.1630859375 34.5703125 56.7734375 10.3427734375 55.7421875 37.470703125 34.2607421875 68.98828125 33.099609375 66.6484375 3.939453125 77.2158203125 0 54.69921875 rrcurveto
          endchar
        </CharString>
        <CharString name="R">
          56.0947265625 623.0859375 rmoveto
          -89 callsubr
          -113.052734375 -65.587890625 rmoveto
          -88 callsubr
          endchar
        </CharString>
        <CharString name="Racute">
          308.090820312 791.37109375 rmoveto
          -49 callsubr
          -291.694335938 -98.3818359375 rmoveto
          -89 callsubr
          -113.052734375 -65.587890625 rmoveto
          -88 callsubr
          endchar
        </CharString>
        <CharString name="Rcaron">
          396.98046875 755.125 rmoveto
          -60 callsubr
          -209.709960938 -32.7939453125 rmoveto
          -89 callsubr
          -113.052734375 -65.587890625 rmoveto
          -88 callsubr
          endchar
        </CharString>
        <CharString name="S">
          434.952148438 548.868164062 rmoveto
          -87 callsubr
          endchar
        </CharString>
        <CharString name="Sacute">
          308.090820312 791.37109375 rmoveto
          -49 callsubr
          87.1630859375 -172.599609375 rmoveto
          -87 callsubr
          endchar
        </CharString>
        <CharString name="Scaron">
          402.158203125 755.125 rmoveto
          -60 callsubr
          163.969726562 -107.01171875 rmoveto
          -87 callsubr
          endchar
        </CharString>
        <CharString name="Scedilla">
          434.952148438 548.868164062 rmoveto
          -42.19921875 50.138671875 -62.6845703125 27.5380859375 -67.9228515625 0 -112.533203125 0 -77.29296875 -74.44140625 0 -85.216796875 0 -36.3310546875 14.259765625 -46.8427734375 51.9521484375 -38.3603515625 57.7158203125 -42.615234375 89.939453125 -21.5615234375 47.091796875 -29.5146484375 40.8671875 -25.615234375 11.4111328125 -32.5458984375 0 -27.865234375 0 -54.2138671875 -45.6025390625 -58.8212890625 -90.4609375 0 rrcurveto
          -68.3994140625 0 -52.677734375 33.4521484375 -27.8603515625 35.2841796875 -3.12890625 3.9619140625 0.2587890625 2.5283203125 0.056640625 4.1259765625 0.0224609375 1.650390625 0.220703125 5.5029296875 -4.78125 2.4267578125 rrcurveto
          -41.423828125 -71.62890625 rlineto
          44.8896484375 -48.8857421875 62.3349609375 -26.7236328125 69.2607421875 -4.1396484375 rrcurveto
          -9.9267578125 -75.5908203125 29.341796875 0 rlineto
          11.392578125 0 14.4130859375 0.0302734375 10.7685546875 -6.599609375 7.8359375 -4.8017578125 3.056640625 -6.6787109375 0 -5.8896484375 0 -8.705078125 -6.8037109375 -15.693359375 -38.880859375 0 -30.234375 0 -37.6552734375 10.0615234375 -31.4111328125 25.3310546875 rrcurveto
          -25.02734375 -41.423828125 rlineto
          37.3642578125 -26.2763671875 42.7841796875 -10.912109375 38.41796875 0 73.3935546875 0 35.0703125 38.6103515625 0 35.724609375 0 19.38671875 -10.4404296875 17.9775390625 -19.0634765625 9.25 -12.849609375 6.2353515625 -13.125 0.8095703125 -12.759765625 0.671875 rrcurveto
          -16.396484375 0.86328125 4.140625 37.955078125 rlineto
          133.453125 10.2265625 50.013671875 94.822265625 0 74.0986328125 0 32.607421875 -9.4052734375 43.5166015625 -39.00390625 36.728515625 -54.201171875 51.0390625 -87.7880859375 17.6962890625 -57.013671875 33.345703125 -52.1455078125 30.49609375 -11.521484375 36.9619140625 0 25.4716796875 0 47.771484375 41.19921875 43.564453125 71.3310546875 0 58.0458984375 0 44.6259765625 -26.52734375 24.134765625 -35.1875 rrcurveto
          2.6474609375 -3.859375 -0.5029296875 -2.0849609375 0.1328125 -3.6767578125 0.19921875 -5.5400390625 2.880859375 -1.9755859375 2.1865234375 -0.6640625 rrcurveto
          endchar
        </CharString>
        <CharString name="T">
          31.068359375 623.94921875 rmoveto
          -86 callsubr
          endchar
        </CharString>
        <CharString name="Tcaron">
          396.98046875 755.125 rmoveto
          -60 callsubr
          -234.736328125 -31.9306640625 rmoveto
          -86 callsubr
          endchar
        </CharString>
        <CharString name="Tcedilla">
          31.068359375 623.94921875 rmoveto
          -62.9990234375 176.915039062 -561.813476562 15.4208984375 vlineto
          -11.1064453125 -84.5732421875 29.341796875 0 rlineto
          11.392578125 0 14.4130859375 0.0302734375 10.7685546875 -6.599609375 7.8359375 -4.8017578125 3.056640625 -6.6787109375 0 -5.8896484375 0 -8.705078125 -6.8037109375 -15.693359375 -38.880859375 0 -30.234375 0 -37.6552734375 10.0615234375 -31.4111328125 25.3310546875 rrcurveto
          -25.02734375 -41.423828125 rlineto
          37.3642578125 -26.2763671875 42.7841796875 -10.912109375 38.41796875 0 73.3935546875 0 35.0703125 38.6103515625 0 35.724609375 0 19.38671875 -10.4404296875 17.9775390625 -19.0634765625 9.25 -12.849609375 6.2353515625 -13.125 0.8095703125 -12.759765625 0.671875 rrcurveto
          -16.396484375 0.86328125 5.0830078125 46.6015625 12.1767578125 0 0 561.813476562 183.819335938 0 0 62.9990234375 rlineto
          endchar
        </CharString>
        <CharString name="Thorn">
          58.68359375 623.0859375 rmoveto
          -623.0859375 70.7666015625 157.928710938 124.271484375 vlineto
          38.8154296875 0 37.3544921875 0.9638671875 37.8447265625 19.23828125 57.62109375 29.29296875 30.3203125 59.6767578125 0 63.1689453125 0 63.0146484375 -30.3671875 60.9736328125 -58.8603515625 30.3115234375 -39.0634765625 20.1171875 -38.640625 1.03125 -40.2021484375 0 rrcurveto
          -119.09375 89.751953125 hlineto
          0 3.5986328125 0.158203125 2.7861328125 2.705078125 4.2998046875 2.1591796875 3.431640625 3.421875 3.8271484375 0 5.5439453125 0 1.41015625 -0.2275390625 1.39453125 -0.4501953125 1.32421875 rrcurveto
          -7.7666015625 -182.956054688 rmoveto
          119.09375 hlineto
          26.0322265625 0 25.048828125 -0.6357421875 25.3974609375 -12.740234375 38.84375 -19.486328125 20.1708984375 -39.642578125 0 -40.5595703125 0 -39.734375 -19.2822265625 -37.125 -36.09765625 -18.263671875 -24.0244140625 -12.1552734375 -23.755859375 -0.5849609375 -24.56640625 0 rrcurveto
          -126.860351562 hlineto
          endchar
        </CharString>
        <CharString name="U">
          50.0537109375 623.0859375 rmoveto
          -85 callsubr
          endchar
        </CharString>
        <CharString name="Uacute">
          325.350585938 791.37109375 rmoveto
          -49 callsubr
          -314.995117188 -98.3818359375 rmoveto
          -85 callsubr
          endchar
        </CharString>
        <CharString name="Ucircumflex">
          113.052734375 692.125976562 rmoveto
          -48 callsubr
          -194.174804688 -168.28515625 rmoveto
          -85 callsubr
          endchar
        </CharString>
        <CharString name="Udieresis">
          217.4921875 738.294921875 rmoveto
          -52 callsubr
          177.763671875 0.01171875 rmoveto
          -51 callsubr
          -345.202148438 -115.220703125 rmoveto
          -85 callsubr
          endchar
        </CharString>
        <CharString name="Ugrave">
          181.23046875 791.37109375 rmoveto
          -50 callsubr
          -283.927734375 -78.533203125 rmoveto
          -85 callsubr
          endchar
        </CharString>
        <CharString name="Uhungarumlaut">
          410.788085938 810.357421875 rmoveto
          -31 callsubr
          -224.379882812 64.7255859375 rmoveto
          -30 callsubr
          -229.55859375 -122.545898438 rmoveto
          -85 callsubr
          endchar
        </CharString>
        <CharString name="Uring">
          344.340820312 706.794921875 rmoveto
          -39 callsubr
          -132.1171875 0.669921875 rmoveto
          -38 callsubr
          -162.169921875 -84.37890625 rmoveto
          -85 callsubr
          endchar
        </CharString>
        <CharString name="V">
          25.02734375 623.94921875 rmoveto
          212.297851562 -628.264648438 31.9306640625 0 208.845703125 627.401367188 -69.0390625 0 -151.025390625 -478.1015625 -159.655273438 478.96484375 rlineto
          endchar
        </CharString>
        <CharString name="W">
          17.259765625 623.0859375 rmoveto
          100.108398438 -627.401367188 28.478515625 0 108.73828125 411.651367188 107.01171875 -411.651367188 27.6162109375 0 98.3818359375 627.401367188 -58.68359375 0 -56.9580078125 -422.870117188 -100.970703125 377.130859375 -21.5751953125 0 -100.108398438 -375.404296875 -67.3134765625 421.143554688 rlineto
          endchar
        </CharString>
        <CharString name="X">
          378.857421875 623.94921875 rmoveto
          -128.455078125 -236.837890625 -131.30859375 236.837890625 -75.0810546875 0 166.940429688 -306.19140625 -170.392578125 -317.7578125 76.8076171875 0 133.310546875 246.953125 138.534179688 -246.953125 78.533203125 0 -176.663085938 319.3828125 157.676757812 304.56640625 rlineto
          endchar
        </CharString>
        <CharString name="Y">
          28.478515625 623.94921875 rmoveto
          -84 callsubr
          endchar
        </CharString>
        <CharString name="Yacute">
          325.350585938 791.37109375 rmoveto
          -49 callsubr
          -336.5703125 -97.5185546875 rmoveto
          -84 callsubr
          endchar
        </CharString>
        <CharString name="Ydieresis">
          208.861328125 738.294921875 rmoveto
          -52 callsubr
          177.763671875 0.01171875 rmoveto
          -51 callsubr
          -358.146484375 -114.357421875 rmoveto
          -84 callsubr
          endchar
        </CharString>
        <CharString name="Z">
          62.1357421875 623.0859375 rmoveto
          -83 callsubr
          endchar
        </CharString>
        <CharString name="Zacute">
          308.090820312 791.37109375 rmoveto
          -49 callsubr
          -285.653320312 -98.3818359375 rmoveto
          -83 callsubr
          endchar
        </CharString>
        <CharString name="Zcaron">
          396.98046875 755.125 rmoveto
          -60 callsubr
          -203.668945312 -32.7939453125 rmoveto
          -83 callsubr
          endchar
        </CharString>
        <CharString name="Zdotaccent">
          254.587890625 782.741210938 rmoveto
          -73 callsubr
          -192.452148438 -159.655273438 rmoveto
          -83 callsubr
          endchar
        </CharString>
        <CharString name="a">
          90.615234375 403.021484375 rmoveto
          -82 callsubr
          277.885742188 -188.997070312 rmoveto
          -81 callsubr
          endchar
        </CharString>
        <CharString name="aacute">
          291.694335938 699.030273438 rmoveto
          -43 callsubr
          -264.078125 -253.721679688 rmoveto
          -82 callsubr
          277.885742188 -188.997070312 rmoveto
          -81 callsubr
          endchar
        </CharString>
        <CharString name="abreve">
          145.846679688 646.38671875 rmoveto
          -36 callsubr
          -55.2314453125 -243.365234375 rmoveto
          -82 callsubr
          277.885742188 -188.997070312 rmoveto
          -81 callsubr
          endchar
        </CharString>
        <CharString name="acircumflex">
          140.668945312 544.552734375 rmoveto
          -42 callsubr
          -161.380859375 -282.200195312 rmoveto
          -82 callsubr
          277.885742188 -188.997070312 rmoveto
          -81 callsubr
          endchar
        </CharString>
        <CharString name="acute">
          291.694335938 699.030273438 rmoveto
          -43 callsubr
          endchar
        </CharString>
        <CharString name="acute.cap">
          325.350585938 672.27734375 rmoveto
          -49 callsubr
          endchar
        </CharString>
        <CharString name="adieresis">
          226.122070312 614.022460938 rmoveto
          -41 callsubr
          177.763671875 0.0126953125 rmoveto
          -40 callsubr
          -313.270507812 -211.013671875 rmoveto
          -82 callsubr
          277.885742188 -188.997070312 rmoveto
          -81 callsubr
          endchar
        </CharString>
        <CharString name="ae">
          31.068359375 411.651367188 rmoveto
          35.3828125 -44.013671875 rlineto
          18.4521484375 26.5302734375 28.865234375 16.689453125 28.0888671875 0 31.2216796875 0 29.2099609375 -20.93359375 12.1044921875 -33.923828125 5.8466796875 -16.3828125 0.6875 -16.59765625 0 -18.380859375 rrcurveto
          0 -25.8896484375 -22.4375 -0.86328125 rlineto
          -24.0400390625 -0.9248046875 -35.6455078125 -1.443359375 -37.26953125 -16.8203125 -62.708984375 -28.2998046875 -28.6123046875 -55.57421875 0 -51.1708984375 0 -75.1396484375 59.4912109375 -59.865234375 72.03125 0 47.8046875 0 43.5625 26.7744140625 21.4814453125 42.3994140625 27.296875 -42.9873046875 47.404296875 -26.0537109375 50.921875 0 44.16015625 0 41.8681640625 19.615234375 28.2626953125 33.8916015625 rrcurveto
          -35.3828125 41.423828125 rlineto
          -17.17578125 -22.9814453125 -27.11328125 -13.2763671875 -29.2978515625 0 -39.015625 0 -36.9951171875 23.3056640625 -16.90625 38.509765625 -9.529296875 21.705078125 -0.8818359375 20.4765625 0 23.7392578125 rrcurveto
          0 46.6015625 207.982421875 8.6298828125 0 37.9716796875 rlineto
          0 45.017578125 0.298828125 51.5703125 -26.6240234375 43.6259765625 -24.8896484375 40.7822265625 -39.6318359375 17.5478515625 -35.982421875 0 -42.2919921875 0 -40.7109375 -23.6103515625 -22.314453125 -38.5791015625 -21.55859375 38.232421875 -41.345703125 23.939453125 -48.59765625 0 -44.240234375 0 -42.8857421875 -19.7333984375 -28.3408203125 -35.5341796875 rrcurveto
          189.859375 -192.44921875 rmoveto
          -37.9716796875 vlineto
          0 -34.759765625 2.33984375 -26.2587890625 -8.7265625 -23.732421875 -11.2763671875 -30.66796875 -27.5419921875 -15.783203125 -27.1083984375 0 -40.515625 0 -33.8974609375 34.220703125 0 43.529296875 0 28.57421875 15.16796875 30.583984375 32.6806640625 16.7470703125 25.3701171875 13.0009765625 26.373046875 0.6328125 25.5595703125 1.021484375 rrcurveto
          82.8486328125 60.41015625 rmoveto
          17.259765625 vlineto
          0 24.396484375 1.228515625 26.580078125 17.6923828125 26.501953125 14.5634765625 21.8134765625 22.12890625 15.6494140625 24.6611328125 0 25.3759765625 0 23.255859375 -16.375 11.986328125 -27.84765625 8.88671875 -20.6484375 0.3828125 -20.826171875 0 -20.6142578125 rrcurveto
          -19.8486328125 vlineto
          endchar
        </CharString>
        <CharString name="agrave">
          243.366210938 699.030273438 rmoveto
          -44 callsubr
          -240.776367188 -149.298828125 rmoveto
          -82 callsubr
          277.885742188 -188.997070312 rmoveto
          -81 callsubr
          endchar
        </CharString>
        <CharString name="ampersand">
          228.883789062 629.224609375 rmoveto
          -76.03515625 -61.380859375 -56.5703125 -74.6298828125 hvcurveto
          0 -54.912109375 33.7783203125 -55.7998046875 36.998046875 -44.701171875 -76.84375 -42.017578125 -49.3857421875 -77.30859375 0 -77.0654296875 0 -89.025390625 66.1103515625 -67.5771484375 89.9951171875 0 67.3408203125 0 61.580078125 37.126953125 39.693359375 49.2001953125 rrcurveto
          55.2314453125 -88.0263671875 58.6845703125 44.0126953125 -69.9033203125 90.615234375 rlineto
          28.0576171875 37.0634765625 25.3671875 38.9326171875 22.51953125 40.5087890625 rrcurveto
          -64.7255859375 44.8759765625 rlineto
          -2.3681640625 -2.1484375 -1.9638671875 -3.3779296875 0 -4.8837890625 0 -4.0791015625 1.3818359375 -3.88671875 0 -3.943359375 0 -2.775390625 -0.5888671875 -2.66015625 -0.75 -2.3701171875 -7.470703125 -23.607421875 -13.67578125 -29.146484375 -23.7548828125 -27.5849609375 rrcurveto
          -112.190429688 156.203125 rlineto
          65.2314453125 35.66015625 42.685546875 65.3466796875 0 65.416015625 rrcurveto
          77.0234375 -58.6484375 56.1123046875 -74.9697265625 vhcurveto
          -68.453125 -132.470703125 rmoveto
          43.853515625 31.7138671875 29.3203125 35.458984375 36.8515625 32.5595703125 -31.2568359375 -47.361328125 vhcurveto
          0 -45.5595703125 -29.6943359375 -47.2900390625 -46.392578125 -25.6435546875 -49.6220703125 62.0888671875 -10.875 35.55078125 0 26.2978515625 rrcurveto
          36.3330078125 -200.745117188 rmoveto
          127.724609375 -172.599609375 rlineto
          0 -54.8818359375 -69.1904296875 -66.6513671875 -51.05078125 -40.26171875 40.8427734375 58.078125 vhcurveto
          0 51.7783203125 31.9833984375 56.658203125 53.1376953125 34.4326171875 rrcurveto
          endchar
        </CharString>
        <CharString name="aogonek">
          368.500976562 214.024414062 rmoveto
          -81 callsubr
          -261.48828125 188.997070312 rmoveto
          35.3828125 -45.7392578125 rlineto
          37.41796875 39.173828125 51.4326171875 11.76953125 42.212890625 0 54.26171875 0 26.826171875 -22.796875 12.8955078125 -21.1748046875 15.220703125 -24.99609375 -0.353515625 -29.3935546875 0 -24.2109375 rrcurveto
          -16.3974609375 -14.6708984375 vlineto
          -67.2939453125 0 -72.0322265625 0.705078125 -58.1240234375 -21.3603515625 -72.05859375 -26.482421875 -32.6982421875 -53.3955078125 0 -50.642578125 0 -67.0224609375 58.2509765625 -62.2783203125 95.44921875 0 56.1142578125 0 58.080078125 20.4248046875 49.8466796875 40.849609375 rrcurveto
          -50.0537109375 0.8623046875 vlineto
          -51.8125 -42.744140625 -27.5390625 -39.8984375 0 -32.2177734375 0 -33.35546875 26.5869140625 -27.837890625 51.81640625 0 24.853515625 0 24.6650390625 6.310546875 19.607421875 16.9921875 rrcurveto
          45.7392578125 vlineto
          -6.357421875 -5.2744140625 -10.0771484375 -6.8828125 -15.6201171875 -5.6884765625 -10.51171875 -3.828125 -7.369140625 -1.4521484375 -6.205078125 0 -18.2080078125 0 -11.0478515625 13.0810546875 0 15.359375 0 14.7890625 9.8076171875 11.857421875 7.0283203125 7.9609375 8.4921875 9.6171875 24.7216796875 27.2744140625 33.6201171875 30.1982421875 rrcurveto
          0.86328125 283.064453125 hlineto
          0 37.4453125 -1.3447265625 35.3701171875 -21.0869140625 35.142578125 -29.9814453125 49.966796875 -57.97265625 25.94140625 -70.9091796875 0 -61.6298828125 0 -58.7314453125 -19.8251953125 -42.6806640625 -44.083984375 rrcurveto
          endchar
        </CharString>
        <CharString name="aring">
          347.79296875 604.9609375 rmoveto
          -39 callsubr
          -132.1171875 0.669921875 rmoveto
          -38 callsubr
          -125.060546875 -202.609375 rmoveto
          -82 callsubr
          277.885742188 -188.997070312 rmoveto
          -81 callsubr
          endchar
        </CharString>
        <CharString name="asciicircum">
          93.2041015625 366.775390625 rmoveto
          50.0537109375 -24.1640625 109.6015625 175.188476562 96.6552734375 -175.188476562 53.5068359375 25.0263671875 -135.491210938 255.448242188 -21.5751953125 0 rlineto
          endchar
        </CharString>
        <CharString name="asciitilde">
          91.4775390625 341.748046875 rmoveto
          25.306640625 41.4091796875 29.427734375 20.376953125 28.2646484375 0 61.0419921875 0 20.4619140625 -79.583984375 81.0517578125 0 62.865234375 0 49.5625 52.5634765625 26.052734375 39.4521484375 rrcurveto
          -45.73828125 37.97265625 rlineto
          -28.7822265625 -39.134765625 -23.62890625 -25.591796875 -32.798828125 0 -57.05859375 0 -26.2060546875 75.1259765625 -82.5263671875 0 -56.66015625 0 -51.17578125 -39.7119140625 -29.513671875 -50.083984375 rrcurveto
          endchar
        </CharString>
        <CharString name="asterisk">
          213.161132812 518.663085938 rmoveto
          15.5341796875 -176.915039062 -161.380859375 75.9443359375 -25.890625 -64.7255859375 172.600585938 -52.642578125 -130.313476562 -150.162109375 54.369140625 -44.0126953125 112.189453125 166.55859375 107.875 -165.696289062 54.369140625 43.150390625 -125.998046875 151.025390625 171.737304688 51.779296875 -26.7529296875 61.2734375 -158.791992188 -72.4921875 15.5341796875 150.162109375 rlineto
          1.2861328125 12.4326171875 3.0595703125 2.42578125 1.6953125 11.89453125 rrcurveto
          endchar
        </CharString>
        <CharString name="at">
          434.952148438 30.205078125 rmoveto
          -26.7529296875 48.328125 rlineto
          -31.755859375 -21.41796875 -37.4208984375 -11.4345703125 -38.2763671875 0 rrcurveto
          -96.880859375 -114.986328125 76.1923828125 195.057617188 179.854492188 92.96484375 82.2998046875 86.6337890625 hvcurveto
          74.7412109375 0 58.88671875 -60.65234375 0.052734375 -73.9873046875 rrcurveto
          -14.6708984375 hlineto
          -38.1904296875 0 -39.8740234375 -0.2451171875 -39.482421875 -15.6494140625 -61.9814453125 -24.5673828125 -33.0546875 -53.232421875 0 -53.9091796875 0 -72.322265625 58.3603515625 -58.01171875 71.5908203125 0 38.5439453125 0 36.583984375 17.08203125 24.763671875 29.5712890625 rrcurveto
          -37.9716796875 60.41015625 202.8046875 vlineto
          0 47.65234375 -0.6376953125 48.173828125 -21.7861328125 48.09375 -32.140625 70.9501953125 -66.7265625 39.71484375 -72.4970703125 0 rrcurveto
          -109.177734375 -131.141601562 -91.859375 -226.83203125 -232.118164062 139.140625 -92.9931640625 124.6796875 hvcurveto
          49.5478515625 0 48.6474609375 14.3671875 41.88671875 27.0615234375 rrcurveto
          -30.205078125 364.185546875 rmoveto
          -18.9853515625 vlineto
          0 -39.640625 0.9375 -38.1953125 -15.6005859375 -30.3154296875 -15.4716796875 -30.06640625 -29.3642578125 -15.427734375 -28.8740234375 0 -43.8896484375 0 -35.22265625 34.7529296875 0 43.267578125 0 25.5830078125 12.6640625 27.0439453125 26.9287109375 18.4853515625 33.7392578125 23.16015625 41.9921875 0.337890625 35.763671875 0 rrcurveto
          endchar
        </CharString>
        <CharString name="atilde">
          144.984375 557.498046875 rmoveto
          -47 callsubr
          -9.4931640625 -186.407226562 rmoveto
          -82 callsubr
          277.885742188 -188.997070312 rmoveto
          -81 callsubr
          endchar
        </CharString>
        <CharString name="b">
          59.546875 665.373046875 rmoveto
          -665.373046875 46.6025390625 vlineto
          25.0263671875 60.41015625 rlineto
          30.0029296875 -44.5732421875 50.4052734375 -27.1220703125 54.8203125 0 rrcurveto
          93.6787109375 97.3115234375 79.5966796875 165.734375 159.600585938 -93.927734375 74.16015625 -89.78515625 hvcurveto
          -58.1845703125 0 -53.6240234375 -30.970703125 -28.970703125 -50.2119140625 rrcurveto
          256.310546875 vlineto
          0 5.3134765625 1.0830078125 2.1865234375 4.6953125 3.7294921875 1.67578125 1.33203125 5.4697265625 3.8671875 -1.705078125 6.009765625 rrcurveto
          104.482421875 -259.458984375 rmoveto
          42.9326171875 90.978515625 -25.6904296875 -161.298828125 -139.908203125 -90.3701171875 -25.5341796875 -44.6845703125 hvcurveto
          -31.24609375 0 -69.017578125 12.48828125 -11.5126953125 87.0947265625 -3.140625 23.7626953125 0.33203125 26.9189453125 0 39.5361328125 0 41.3193359375 1.587890625 29.4052734375 10.38671875 25.13671875 17.021484375 41.19140625 41.5107421875 25.578125 45.2216796875 0 rrcurveto
          endchar
        </CharString>
        <CharString name="backslash">
          436.677734375 -12.9453125 rmoveto
          -313.268554688 677.455078125 -59.546875 -30.205078125 314.131835938 -676.591796875 rlineto
          endchar
        </CharString>
        <CharString name="bar">
          216.61328125 652.427734375 rmoveto
          -803.453125 67.3134765625 803.453125 vlineto
          endchar
        </CharString>
        <CharString name="braceleft">
          52.642578125 283.926757812 rmoveto
          -56.0947265625 20.712890625 vlineto
          16.919921875 0 25.7578125 0.203125 20.509765625 -20.0986328125 19.62890625 -19.2333984375 6.7490234375 -29.1181640625 0 -43.1806640625 0 -31.17578125 -3.751953125 -29.80859375 0 -38.9736328125 0 -36.2998046875 3.056640625 -68.3857421875 52.681640625 -40.4287109375 43.1953125 -33.1494140625 51.21484375 3.025390625 61.7724609375 0 rrcurveto
          36.24609375 56.0947265625 -37.109375 hlineto
          -41.1162109375 0 -31.1845703125 -2.029296875 -27.359375 18.84765625 -35.74609375 24.626953125 -5.0849609375 43.7783203125 0 34.41796875 0 26.47265625 3.16796875 26.220703125 0 30.9150390625 0 104.508789062 -46.53125 38.0625 -37.9365234375 13.1865234375 30.9345703125 13.271484375 25.4443359375 23.75 14.7666015625 30.197265625 13.2314453125 27.0595703125 2.662109375 29.5634765625 0 23.78515625 rrcurveto
          0 24.4287109375 -2.95703125 21.9052734375 0 23.9423828125 0 20.3076171875 1.58203125 48.671875 38.5 24.0390625 26.900390625 16.7958984375 30.4609375 -4.0927734375 43.7177734375 0 rrcurveto
          34.5205078125 56.958984375 -30.205078125 hlineto
          -53.6611328125 0 -64.251953125 3.7314453125 -47.9794921875 -43.736328125 -43.9736328125 -40.0830078125 -5.3681640625 -56.232421875 0 -37.6396484375 0 -24.7626953125 2.55078125 -22.6396484375 0 -24.1689453125 0 -24.4521484375 -2.46875 -35.857421875 -23.4375 -24.5830078125 -21.8330078125 -22.90234375 -27.318359375 0.3583984375 -17.7607421875 0 rrcurveto
          endchar
        </CharString>
        <CharString name="braceright">
          447.897460938 283.926757812 rmoveto
          -19.849609375 hlineto
          -17.7607421875 0 -27.318359375 -0.3583984375 -21.8330078125 22.90234375 -23.4375 24.5830078125 -2.46875 35.857421875 0 24.4521484375 0 24.1689453125 2.55078125 22.6396484375 0 24.7626953125 0 37.6396484375 -5.3681640625 56.232421875 -43.9736328125 40.0830078125 -47.9794921875 43.736328125 -64.251953125 -3.7314453125 -53.6611328125 0 rrcurveto
          -30.205078125 -56.958984375 34.5205078125 hlineto
          43.7177734375 0 30.4609375 4.0927734375 26.900390625 -16.7958984375 38.5 -24.0390625 1.58203125 -48.671875 0 -20.3076171875 0 -23.9423828125 -2.95703125 -21.9052734375 0 -24.4287109375 0 -23.78515625 2.662109375 -29.5634765625 13.2314453125 -27.0595703125 14.7666015625 -30.197265625 25.4443359375 -23.75 30.93359375 -13.271484375 -37.935546875 -13.1865234375 -46.53125 -38.0625 0 -104.508789062 rrcurveto
          0 -30.9150390625 3.16796875 -26.220703125 0 -26.47265625 0 -34.41796875 -5.0849609375 -43.7783203125 -35.74609375 -24.626953125 -27.359375 -18.84765625 -31.1845703125 2.029296875 -41.1162109375 0 rrcurveto
          -37.109375 -56.0947265625 36.24609375 hlineto
          61.7724609375 0 51.21484375 -3.025390625 43.1953125 33.1494140625 52.681640625 40.4287109375 3.0556640625 68.3857421875 0 36.2998046875 0 38.9736328125 -3.7509765625 29.80859375 0 31.17578125 0 43.1806640625 6.7490234375 29.1181640625 19.62890625 19.2333984375 20.509765625 20.0986328125 25.7578125 -0.203125 16.919921875 0 rrcurveto
          20.712890625 hlineto
          endchar
        </CharString>
        <CharString name="bracketleft">
          131.17578125 669.688476562 rmoveto
          -758.577148438 286.516601562 56.9580078125 -222.654296875 642.071289062 221.791015625 59.5478515625 vlineto
          endchar
        </CharString>
        <CharString name="bracketright">
          369.364257812 669.688476562 rmoveto
          -285.653320312 -59.5478515625 221.791015625 -642.071289062 -222.654296875 -56.9580078125 286.516601562 hlineto
          endchar
        </CharString>
        <CharString name="breve">
          137.216796875 646.38671875 rmoveto
          -36 callsubr
          endchar
        </CharString>
        <CharString name="brokenbar">
          216.61328125 652.427734375 rmoveto
          -357.28125 67.3134765625 357.28125 vlineto
          -803.453125 vmoveto
          346.926757812 -67.3134765625 -346.926757812 vlineto
          endchar
        </CharString>
        <CharString name="bullet">
          340.885742188 296.4375 rmoveto
          45.7666015625 -37.8994140625 37.5166015625 -47.1298828125 -47.13671875 -37.8740234375 -37.53125 -45.7431640625 -45.798828125 37.90234375 -37.5146484375 47.09765625 47.15625 37.8837890625 37.54296875 45.76171875 vhcurveto
          endchar
        </CharString>
        <CharString name="c">
          456.52734375 381.446289062 rmoveto
          -80 callsubr
          endchar
        </CharString>
        <CharString name="cacute">
          291.694335938 699.030273438 rmoveto
          -43 callsubr
          101.833984375 -275.296875 rmoveto
          -80 callsubr
          endchar
        </CharString>
        <CharString name="caron">
          377.131835938 658.469726562 rmoveto
          -59 callsubr
          endchar
        </CharString>
        <CharString name="caron.cap">
          390.076171875 631.716796875 rmoveto
          -28.478515625 33.65625 -111.327148438 -68.177734375 -103.560546875 70.767578125 -32.7939453125 -37.97265625 123.409179688 -97.51953125 21.5751953125 0 rlineto
          endchar
        </CharString>
        <CharString name="ccaron">
          456.52734375 381.446289062 rmoveto
          -80 callsubr
          -28.478515625 336.5703125 rmoveto
          -59 callsubr
          endchar
        </CharString>
        <CharString name="ccedilla">
          456.52734375 381.446289062 rmoveto
          -35.974609375 52.7314453125 -61.3896484375 31.8671875 -73.4658203125 0 -134.26171875 0 -95.3408203125 -100.66796875 0 -137.10546875 0 -130.171875 85.580078125 -98.0166015625 118.4609375 -10.3896484375 rrcurveto
          -9.8662109375 -75.1298828125 29.3427734375 0 rlineto
          11.3916015625 0 14.4140625 0.0302734375 10.767578125 -6.599609375 7.8359375 -4.8017578125 3.0576171875 -6.6787109375 0 -5.8896484375 0 -8.705078125 -6.8037109375 -15.693359375 -38.8818359375 0 -30.2333984375 0 -37.65625 10.0615234375 -31.4111328125 25.3310546875 rrcurveto
          -25.0263671875 -41.423828125 rlineto
          37.3642578125 -26.2763671875 42.783203125 -10.912109375 38.4189453125 0 73.392578125 0 35.0703125 38.6103515625 0 35.724609375 0 19.38671875 -10.4404296875 17.9775390625 -19.0634765625 9.25 -12.8486328125 6.2353515625 -13.1259765625 0.8095703125 -12.7587890625 0.671875 rrcurveto
          -16.3974609375 0.86328125 4.0693359375 37.298828125 rlineto
          55.5419921875 5.2509765625 52.109375 24.7509765625 38.44140625 41.4375 rrcurveto
          -41.423828125 48.3271484375 rlineto
          -30.8876953125 -35 -44.357421875 -20.25 -45.7861328125 0 rrcurveto
          -89.0234375 -67.8583984375 74.5986328125 106.758789062 104.11328125 66.9130859375 64.990234375 83.94921875 hvcurveto
          78.0009765625 0 37.5146484375 -54.4677734375 2.6484375 -5.357421875 3.8173828125 -7.71875 -5.4375 -9.3935546875 7.91796875 -5.974609375 rrcurveto
          endchar
        </CharString>
        <CharString name="cedilla">
          261.489257812 hmoveto
          -11.2197265625 -85.4365234375 29.3427734375 0 rlineto
          11.3916015625 0 14.4140625 0.0302734375 10.767578125 -6.599609375 7.8359375 -4.8017578125 3.0576171875 -6.6787109375 0 -5.8896484375 0 -8.705078125 -6.8037109375 -15.693359375 -38.8818359375 0 -30.2333984375 0 -37.65625 10.0615234375 -31.4111328125 25.3310546875 rrcurveto
          -25.0263671875 -41.423828125 rlineto
          37.3642578125 -26.2763671875 42.783203125 -10.912109375 38.4189453125 0 73.392578125 0 35.0703125 38.6103515625 0 35.724609375 0 19.38671875 -10.4404296875 17.9775390625 -19.0634765625 9.25 -12.8486328125 6.2353515625 -13.1259765625 0.8095703125 -12.7587890625 0.671875 rrcurveto
          -16.3974609375 0.86328125 5.177734375 47.46484375 rlineto
          endchar
        </CharString>
        <CharString name="cent">
          284.790039062 623.94921875 rmoveto
          -14.0908203125 -112.44140625 rlineto
          -133.994140625 -6.474609375 -88.376953125 -98.375 0 -134.091796875 0 -115.249023438 65.0986328125 -88.6435546875 98.3720703125 -27.203125 rrcurveto
          -14.171875 -113.099609375 57.8212890625 -6.904296875 14.6826171875 111.420898438 rlineto
          2.4580078125 -0.0693359375 2.470703125 -0.0341796875 2.484375 0 64.8173828125 0 60.9111328125 24.5400390625 42.8984375 47.0986328125 rrcurveto
          -36.24609375 48.328125 rlineto
          -34.7744140625 -35.7373046875 -47.6748046875 -20.3583984375 -48.322265625 0 rrcurveto
          -0.6181640625 0.0009765625 46.119140625 349.9609375 rlineto
          36.646484375 -11.1103515625 25.1474609375 -21.3779296875 12.904296875 -15.3076171875 5.1416015625 -6.0986328125 -1.7265625 -4.287109375 0 -5.6533203125 0 -1.322265625 -0.0849609375 -5.4013671875 4.6533203125 -3.2421875 rrcurveto
          44.0126953125 56.9580078125 rlineto
          -24.3759765625 37.3623046875 -39.966796875 29.296875 -54.3564453125 10.857421875 rrcurveto
          10.82421875 82.1376953125 rlineto
          0.904296875 6.8466796875 1.5576171875 2.23828125 2.56640625 4.57421875 1.1962890625 2.1318359375 3.0751953125 5.3515625 -0.669921875 6.4736328125 rrcurveto
          -132.000976562 -509.311523438 rmoveto
          -60.4716796875 24.271484375 -40.580078125 62.728515625 0 87.07421875 0 104.604492188 62.1259765625 62.341796875 82.275390625 4.9111328125 rrcurveto
          endchar
        </CharString>
        <CharString name="circumflex">
          133.764648438 544.552734375 rmoveto
          -42 callsubr
          endchar
        </CharString>
        <CharString name="circumflex.cap">
          113.916015625 568.716796875 rmoveto
          -48 callsubr
          endchar
        </CharString>
        <CharString name="colon">
          297.736328125 365.474609375 rmoveto
          -103 callsubr
          -319.309570312 vmoveto
          -103 callsubr
          endchar
        </CharString>
        <CharString name="comma">
          305.633789062 19.70703125 rmoveto
          -105 callsubr
          endchar
        </CharString>
        <CharString name="copyright">
          262.024414062 423.811523438 rmoveto
          -80.5908203125 -66.7880859375 -62.7861328125 -85.357421875 -83.4482421875 64.7578125 -70.5595703125 81.3349609375 hvcurveto
          49.142578125 0 46.5 26.28125 27.654296875 41.9189453125 rrcurveto
          -44.0126953125 29.341796875 rlineto
          -14.8125 -27.576171875 -28.7421875 -17.345703125 -31.32421875 0 rrcurveto
          -52.5009765625 -41.771484375 47.43359375 60.4794921875 62.1845703125 46.1064453125 29.4326171875 47.2001953125 hvcurveto
          49.419921875 0 15.572265625 -34.55078125 1.7958984375 -7.3232421875 1.6103515625 -6.5654296875 -3.3271484375 -7.0478515625 5.5947265625 -6.7802734375 rrcurveto
          51.7802734375 19.8486328125 rlineto
          -12.923828125 53.0810546875 -48.7431640625 39.3388671875 -62.9326171875 0 rrcurveto
          -6.3115234375 -404.922851562 rmoveto
          -58 callsubr
          -196.40234375 255.372070312 rmoveto
          -57 callsubr
          endchar
        </CharString>
        <CharString name="currency">
          68.0908203125 491.82421875 rmoveto
          56.5087890625 -56.509765625 rlineto
          -18.2783203125 -25.4716796875 -10.787109375 -31.166015625 0 -33.5625 0 -33.2978515625 10.6171875 -30.9384765625 18.017578125 -25.3603515625 rrcurveto
          -56.078125 -56.078125 35.5546875 -35.5556640625 55.8271484375 55.826171875 rlineto
          25.6904296875 -18.806640625 31.619140625 -11.12890625 34.091796875 0 33.5625 0 31.166015625 10.787109375 25.4716796875 18.2783203125 rrcurveto
          54.95703125 -54.9560546875 35.5546875 35.5556640625 -54.8720703125 54.8720703125 rlineto
          18.5419921875 25.5830078125 10.9580078125 31.392578125 0 33.8271484375 0 34.091796875 -11.1298828125 31.6181640625 -18.806640625 25.6904296875 rrcurveto
          55.30859375 55.3095703125 -35.5546875 35.5546875 -55.560546875 -55.560546875 rlineto
          -25.361328125 18.017578125 -30.9375 10.6181640625 -33.2978515625 0 -33.8271484375 0 -31.392578125 -10.958984375 -25.58203125 -18.5419921875 rrcurveto
          -56.4267578125 56.42578125 rlineto
          147.228515625 -81.8564453125 rmoveto
          55.2265625 45.1826171875 -45.18359375 -55.224609375 -55.2265625 -45.1826171875 -45.181640625 -55.2265625 -55.224609375 -45.18359375 45.181640625 55.2265625 55.224609375 45.18359375 45.18359375 55.224609375 hvcurveto
          endchar
        </CharString>
        <CharString name="d">
          371.08984375 390.076171875 rmoveto
          -21.962890625 46.95703125 -48.884765625 31.65234375 -63.1279296875 0 rrcurveto
          -87.08203125 -105.157226562 -61.8603515625 -174.602539062 -168.646484375 93.353515625 -73.7099609375 88.310546875 hvcurveto
          58.421875 0 53.9853515625 32.2109375 28.69140625 51.2783203125 rrcurveto
          -39.6982421875 vlineto
          0 -10.8544921875 0.654296875 -11.71484375 3.6611328125 -11.087890625 rrcurveto
          71.62890625 hlineto
          -3.6025390625 13.9892578125 -0.6923828125 14.46875 -0.0205078125 13.8291015625 rrcurveto
          -0.8623046875 594.607421875 rlineto
          -0.0078125 5.2119140625 0.451171875 2.7978515625 3.5634765625 5.5087890625 2.0625 3.1875 3.79296875 4.9677734375 -0.369140625 6.8046875 rrcurveto
          -76.8076171875 hlineto
          -130.625976562 -255.413085938 rmoveto
          40.056640625 0 59.021484375 -21.279296875 18.0771484375 -67.828125 5.6630859375 -21.2470703125 2.0166015625 -25.4990234375 0 -50.998046875 0 -34.4453125 -2.111328125 -25.6044921875 -7.4072265625 -23.068359375 -17.595703125 -54.796875 -47.283203125 -31.8515625 -47.6474609375 0 rrcurveto
          -51.724609375 -76.859375 40.17578125 150.479492188 130.061523438 73.2294921875 35.9013671875 52.564453125 hvcurveto
          endchar
        </CharString>
        <CharString name="dagger">
          216.61328125 652.427734375 rmoveto
          -195.900390625 -167.421875 -59.546875 167.421875 -548.005859375 67.3134765625 548.005859375 165.696289062 59.546875 -165.696289062 195.900390625 vlineto
          endchar
        </CharString>
        <CharString name="daggerdbl">
          216.61328125 652.427734375 rmoveto
          -195.900390625 -167.421875 -59.546875 167.421875 -276.16015625 -167.421875 -59.546875 167.421875 -212.298828125 67.3134765625 212.298828125 165.696289062 59.546875 -165.696289062 276.16015625 vlineto
          165.696289062 59.546875 -165.696289062 195.900390625 hlineto
          endchar
        </CharString>
        <CharString name="dcaron">
          308.954101562 390.076171875 rmoveto
          -23.6865234375 48.24609375 -49.234375 30.484375 -54.6083984375 0 rrcurveto
          -92.6240234375 -88.8017578125 -85.9580078125 -150.809570312 -140.813476562 75.822265625 -101.59375 96.3408203125 hvcurveto
          55.80078125 0 49.6396484375 35.8125 27.8994140625 47.9111328125 rrcurveto
          -39.6982421875 vlineto
          0 -10.8544921875 0.654296875 -11.71484375 3.6611328125 -11.087890625 rrcurveto
          71.62890625 hlineto
          -3.63671875 13.990234375 -0.6787109375 14.4814453125 0 13.8154296875 rrcurveto
          623.0859375 -68.1767578125 vlineto
          -123.965820312 -255.310546875 rmoveto
          36.671875 0 46.3046875 -25.4345703125 19.904296875 -41.78515625 14.0380859375 -29.47265625 1.275390625 -32.28515625 0 -61.0009765625 0 -41.2275390625 -2.6923828125 -34.6416015625 -19.759765625 -32.29296875 -18.677734375 -30.52734375 -34.6201171875 -27.9912109375 -39.515625 0 rrcurveto
          -73.9609375 -44.1123046875 94.1845703125 92.9990234375 98.3896484375 50.2880859375 71.0859375 64.8564453125 hvcurveto
          324.041015625 194.608398438 rmoveto
          40.9384765625 -27.109375 25.4052734375 -28.4541015625 -26.3291015625 -19.720703125 -21.4580078125 -24.162109375 vhcurveto
          0 -21.51171875 15.240234375 -9.1982421875 7.0673828125 -4.7001953125 6.9501953125 -4.623046875 11.7900390625 -7.3662109375 0 -16.4697265625 0 -13.2392578125 -7.939453125 -13.6728515625 -3.90625 -6.41796875 -7.814453125 -12.837890625 -13.44140625 -19.466796875 -18.9736328125 -17.44921875 rrcurveto
          27.6162109375 -24.1640625 rlineto
          55.71875 56.5732421875 29.3056640625 52.1689453125 0 41.6513671875 rrcurveto
          endchar
        </CharString>
        <CharString name="dcroat">
          233.560546875 409.959960938 rmoveto
          40.0556640625 0 59.0205078125 -21.279296875 18.078125 -67.828125 5.6640625 -21.2470703125 2.0166015625 -25.4990234375 0 -50.998046875 0 -34.4453125 -2.1123046875 -25.6044921875 -7.4072265625 -23.068359375 -17.5947265625 -54.796875 -47.2841796875 -31.8515625 -47.6474609375 0 rrcurveto
          -51.7236328125 -76.8603515625 40.17578125 150.479492188 130.061523438 73.23046875 35.9013671875 52.564453125 hvcurveto
          198.075195312 133.73046875 rmoveto
          43.876953125 53.505859375 -43.9541015625 hlineto
          -0.05859375 39.6982421875 rlineto
          -0.0078125 5.2119140625 0.4521484375 2.7978515625 3.5634765625 5.5087890625 2.0615234375 3.1875 3.7939453125 4.9677734375 -0.3701171875 6.8046875 rrcurveto
          -76.8076171875 -68.1767578125 -75.943359375 -53.505859375 75.943359375 -153.614257812 hlineto
          -21.9619140625 46.95703125 -48.8857421875 31.65234375 -63.1279296875 0 rrcurveto
          -87.08203125 -105.157226562 -61.8603515625 -174.602539062 -168.646484375 93.353515625 -73.7099609375 88.310546875 hvcurveto
          58.421875 0 53.986328125 32.2109375 28.69140625 51.2783203125 rrcurveto
          -39.6982421875 vlineto
          0 -10.8544921875 0.6533203125 -11.71484375 3.6611328125 -11.087890625 rrcurveto
          71.62890625 hlineto
          -3.6025390625 13.9892578125 -0.6923828125 14.46875 -0.01953125 13.8291015625 rrcurveto
          endchar
        </CharString>
        <CharString name="degree">
          390.939453125 504.381835938 rmoveto
          73.9638671875 -60.44921875 60.28125 -74.666015625 -74.6533203125 -60.435546875 -60.2724609375 -73.951171875 -73.9951171875 60.462890625 -60.265625 74.62890625 74.666015625 60.4462890625 60.275390625 73.9638671875 vhcurveto
          -134.080078125 81.595703125 rmoveto
          40.626953125 33.9775390625 -35.1015625 -45.044921875 -45.3720703125 -34.1044921875 -35.10546875 -40.5380859375 -40.7529296875 -33.9951171875 35.1513671875 45.0595703125 45.28125 34.125 35.1318359375 40.6611328125 hvcurveto
          endchar
        </CharString>
        <CharString name="dieresis">
          213.176757812 614.022460938 rmoveto
          -41 callsubr
          177.763671875 0.0126953125 rmoveto
          -40 callsubr
          endchar
        </CharString>
        <CharString name="divide">
          70.765625 347.7890625 rmoveto
          -104 callsubr
          -130.3125 119.086914062 rmoveto
          24.7626953125 -20.1142578125 20.12890625 -24.7783203125 -24.771484375 -20.12109375 -20.123046875 -24.76953125 -24.76953125 20.123046875 -20.123046875 24.76953125 24.7802734375 20.1123046875 20.1298828125 24.763671875 vhcurveto
          0.0078125 -308.08984375 rmoveto
          24.7822265625 -20.1337890625 20.1337890625 -24.7822265625 -24.7861328125 -20.1328125 -20.1318359375 -24.78515625 -24.7861328125 20.1337890625 -20.1318359375 24.7861328125 24.783203125 20.1318359375 20.1357421875 24.783203125 vhcurveto
          endchar
        </CharString>
        <CharString name="dollar">
          234.736328125 650.702148438 rmoveto
          -59.904296875 vlineto
          -92.1630859375 -11.8828125 -63.3173828125 -61.064453125 0 -71.9873046875 0 -36.4140625 16.5439453125 -56.32421875 84.068359375 -39.73828125 18 -8.5078125 18.61328125 -6.953125 18.2548828125 -6.1103515625 rrcurveto
          -219.8046875 vlineto
          -52.5732421875 5.8408203125 -43.9111328125 25.4775390625 -28.0751953125 29.875 -3.8349609375 4.080078125 0.5224609375 2.6962890625 0.2333984375 4.3720703125 0.0673828125 1.251953125 0.478515625 5.75390625 -4.9462890625 2.255859375 rrcurveto
          -43.150390625 -59.546875 rlineto
          44.5078125 -48.2724609375 61.75390625 -27.12109375 68.927734375 -4.3037109375 rrcurveto
          -60.9716796875 58.68359375 62.8173828125 vlineto
          113.231445312 14.7626953125 53.1455078125 78.7958984375 0 71.7197265625 0 91.3125 -79.1298828125 33.91015625 -21.060546875 9.060546875 -20.7197265625 8.912109375 -22.8486328125 7.7490234375 -22.6181640625 7.58984375 rrcurveto
          192.588867188 vlineto
          43.3203125 -6.5263671875 30.7978515625 -18.6337890625 20.7822265625 -25.208984375 3.111328125 -3.7734375 0.6865234375 -1.080078125 0.4375 -0.904296875 1.4775390625 -3.0576171875 -0.734375 -2.765625 0.2275390625 -2.8935546875 0.3515625 -4.4638671875 2.6962890625 -1.9091796875 2.1318359375 -0.55859375 rrcurveto
          43.150390625 54.369140625 rlineto
          -36.72265625 43.8388671875 -52.6259765625 26.6083984375 -59.087890625 5.9541015625 rrcurveto
          38.3779296875 vlineto
          0 9.603515625 6.7529296875 0.2880859375 0 7.408203125 0 1.181640625 -0.2421875 1.162109375 -0.4697265625 1.068359375 rrcurveto
          -6.041015625 -377.26171875 rmoveto
          19.951171875 -6.2880859375 17.75 -6.2158203125 13.732421875 -7.46875 41.982421875 -22.833984375 7.6650390625 -33.26953125 0 -20.5322265625 0 -45.171875 -36.9453125 -45.1689453125 -64.1357421875 -12.4091796875 rrcurveto
          -58.68359375 286.734375 rmoveto
          -12.806640625 5.1162109375 -11.8720703125 5.4111328125 -10.341796875 5.95703125 -44.0751953125 25.3828125 -10.3046875 29.9697265625 0 21.8154296875 0 34.57421875 26.5126953125 37.4765625 62.8876953125 7.34765625 rrcurveto
          endchar
        </CharString>
        <CharString name="dotaccent">
          254.587890625 655.879882812 rmoveto
          -73 callsubr
          endchar
        </CharString>
        <CharString name="dotlessi">
          106.149414062 457.389648438 rmoveto
          -74 callsubr
          endchar
        </CharString>
        <CharString name="dotlessj">
          125.998046875 457.389648438 rmoveto
          -72 callsubr
          endchar
        </CharString>
        <CharString name="downarrow">
          440.993164062 202.805664062 rmoveto
          -43.150390625 35.3828125 -116.504882812 -144.466796875 0 546.625 -66.451171875 0 0 -546.123046875 -106.149414062 143.96484375 -50.0537109375 -33.6572265625 173.462890625 -238.1875 21.5751953125 0 rlineto
          endchar
        </CharString>
        <CharString name="e">
          258.639648438 467.98046875 rmoveto
          -79 callsubr
          -137.8125 -194.409179688 rmoveto
          -78 callsubr
          endchar
        </CharString>
        <CharString name="eacute">
          291.694335938 699.030273438 rmoveto
          -43 callsubr
          -96.0537109375 -188.762695312 rmoveto
          -79 callsubr
          -137.8125 -194.409179688 rmoveto
          -78 callsubr
          endchar
        </CharString>
        <CharString name="ecaron">
          377.131835938 658.469726562 rmoveto
          -59 callsubr
          -7.1650390625 -49.8203125 rmoveto
          -79 callsubr
          -137.8125 -194.409179688 rmoveto
          -78 callsubr
          endchar
        </CharString>
        <CharString name="ecircumflex">
          133.764648438 544.552734375 rmoveto
          -42 callsubr
          13.5478515625 -217.241210938 rmoveto
          -79 callsubr
          -137.8125 -194.409179688 rmoveto
          -78 callsubr
          endchar
        </CharString>
        <CharString name="edieresis">
          214.90234375 614.022460938 rmoveto
          -41 callsubr
          177.763671875 0.0126953125 rmoveto
          -40 callsubr
          -134.026367188 -146.0546875 rmoveto
          -79 callsubr
          -137.8125 -194.409179688 rmoveto
          -78 callsubr
          endchar
        </CharString>
        <CharString name="egrave">
          243.366210938 699.030273438 rmoveto
          -44 callsubr
          -72.751953125 -84.33984375 rmoveto
          -79 callsubr
          -137.8125 -194.409179688 rmoveto
          -78 callsubr
          endchar
        </CharString>
        <CharString name="eight">
          258.228515625 630.905273438 rmoveto
          -95.3671875 -73.1494140625 -69.6650390625 -83.9443359375 hvcurveto
          0 -61.28515625 38.7275390625 -55.892578125 56.2421875 -28.7265625 -73.94921875 -34.7646484375 -50.4560546875 -68.041015625 0 -71.90234375 rrcurveto
          -92.8310546875 81.9267578125 -74.263671875 107.309570312 109.431640625 82.36328125 76.3271484375 94.9296875 vhcurveto
          0 73.361328125 -50.0244140625 66.5048828125 -70.2470703125 32.40625 60.400390625 31.7197265625 39.0185546875 58.4794921875 0 60.0322265625 rrcurveto
          82.1064453125 -70.7900390625 65.44921875 -91.4365234375 vhcurveto
          -20.9033203125 -327.9921875 rmoveto
          80.1669921875 -25.29296875 52.955078125 -55.1572265625 0 -60.8896484375 rrcurveto
          -60.076171875 -51.12890625 -48.8583984375 -66.6103515625 -67.7861328125 -52.888671875 50.6240234375 62.6953125 vhcurveto
          0 58.8837890625 45.98828125 53.451171875 59.3037109375 24.6201171875 rrcurveto
          15.5361328125 269.26953125 rmoveto
          55.6962890625 43.5458984375 -41.4248046875 -52.03125 hvcurveto
          0 -47.9560546875 -36.89453125 -46.5185546875 -48.5419921875 -26.107421875 rrcurveto
          0 -109.670898438 42.7783203125 82.341796875 49.1142578125 41.484375 39.8037109375 54.380859375 hvcurveto
          endchar
        </CharString>
        <CharString name="ellipsis">
          470.3359375 46.1650390625 rmoveto
          -103 callsubr
          -345.19921875 hmoveto
          -103 callsubr
          172.599609375 hmoveto
          -103 callsubr
          endchar
        </CharString>
        <CharString name="eng">
          68.1767578125 hmoveto
          73.35546875 263.21484375 hlineto
          0 30.767578125 3.69921875 22.349609375 19.00390625 25.3232421875 17.41796875 23.2099609375 43.90234375 40.3828125 48.3095703125 0 22.927734375 0 22.6005859375 -9.3203125 16.4091796875 -19.607421875 24.7255859375 -29.546875 0.2060546875 -39.20703125 0 -32.26953125 rrcurveto
          -230.420898438 vlineto
          0 -35.478515625 -0.015625 -41.7109375 -21.806640625 -33.8984375 -18.73828125 -29.12890625 -28.5390625 -13.5537109375 -27.5458984375 0 -31.208984375 0 -22.529296875 17.431640625 -2.4306640625 3.43359375 -2.685546875 3.7939453125 0.9462890625 7.6611328125 -6.828125 1.4931640625 rrcurveto
          -34.51953125 -67.3134765625 rlineto
          27.962890625 -21.6484375 34.3408203125 -11.736328125 35.3134765625 0 62.9873046875 0 60.634765625 37.2587890625 27.7255859375 68.1884765625 17.3046875 42.5595703125 0.3974609375 42.373046875 0 41.494140625 rrcurveto
          220.928710938 vlineto
          0 35.6708984375 -0.234375 37.6953125 -16.2490234375 36.724609375 -22.7451171875 51.4013671875 -46.8291015625 29.232421875 -52.0595703125 0 -61.9951171875 0 -56.3095703125 -40.5615234375 -33.5458984375 -50.9189453125 rrcurveto
          80.259765625 -73.35546875 vlineto
          endchar
        </CharString>
        <CharString name="eogonek">
          258.76953125 467.987304688 rmoveto
          -108.977539062 -101.084960938 -78.1328125 -164.333007812 -150.125976562 92.6513671875 -85.7568359375 119.981445312 hvcurveto
          23.060546875 0 22.9873046875 3.21875 22.2783203125 6.279296875 -36.8095703125 -34.9052734375 -18.5751953125 -35.24609375 0 -29.546875 0 -40.99609375 32.880859375 -33.4189453125 49.888671875 0 23.6279296875 0 23.3974609375 7.6044921875 18.7939453125 10.3056640625 rrcurveto
          0.86328125 49.19140625 rlineto
          -28.806640625 -18.3779296875 -17.0078125 -0.61328125 -5.2470703125 0 -22.6494140625 0 -16.3857421875 16.404296875 0 22.6025390625 0 29.212890625 28.0224609375 32.1787109375 34.4580078125 42.865234375 rrcurveto
          35.3828125 44.0126953125 -39.6982421875 38.8349609375 rlineto
          -29.7763671875 -33.3486328125 -43.0703125 -18.05078125 -45.4248046875 0 -61.119140625 0 -88.486328125 33.6953125 -5.4365234375 136.797851562 rrcurveto
          324.23046875 hlineto
          2.7158203125 30.7060546875 -1.298828125 29.080078125 -4.4638671875 26.7529296875 -20.51953125 122.973632812 -85.2041015625 40.1357421875 -75.1787109375 0 rrcurveto
          -137.942382812 -194.416015625 rmoveto
          -78 callsubr
          endchar
        </CharString>
        <CharString name="equal">
          44.8759765625 438.403320312 rmoveto
          -102 callsubr
          -410.788085938 -207.120117188 rmoveto
          -102 callsubr
          endchar
        </CharString>
        <CharString name="eth">
          254.78125 405.619140625 rmoveto
          51.9228515625 80.7841796875 -34.8515625 -138.829101562 -138.884765625 -75.6357421875 -43.001953125 -56.3212890625 -71.75390625 -67.275390625 66.0009765625 116.287109375 117.643554688 70.732421875 55.6357421875 67.546875 hvcurveto
          92.0146484375 164.73046875 rmoveto
          85.5673828125 24.2578125 -17.259765625 44.8759765625 -107.784179688 -29.45703125 rlineto
          -30.775390625 27.45703125 -30.75390625 20.30859375 -25.724609375 14.4853515625 rrcurveto
          -81.1220703125 -16.3974609375 rlineto
          37.099609375 -16.7099609375 34.27734375 -21.5966796875 30.6787109375 -25.671875 rrcurveto
          -103.782226562 -28.3623046875 18.123046875 -47.46484375 127.306640625 36.08984375 rlineto
          36.4755859375 -39.6513671875 29.251953125 -46.3525390625 20.126953125 -51.056640625 -30.220703125 32.69140625 -43.1826171875 19.35546875 -46.5380859375 0 rrcurveto
          -110.96875 -97.220703125 -107.240234375 -137.239257812 -137.44140625 100.0703125 -97.31640625 115.59765625 hvcurveto
          66.4453125 0 62.35546875 32.7529296875 36.7275390625 60.9091796875 32.458984375 53.833984375 6.2275390625 63.861328125 0 53.8662109375 0 145.80078125 -52.2216796875 101.9375 -61.2353515625 69.474609375 rrcurveto
          endchar
        </CharString>
        <CharString name="euro">
          464.293945312 573.89453125 rmoveto
          -34.7236328125 35.1572265625 -47.67578125 18.6884765625 -52.7841796875 0 -62.4658203125 0 -82.994140625 -26.0751953125 -51.130859375 -89.1884765625 -16.853515625 -29.3984375 -11.4169921875 -33.3701171875 -7.3369140625 -35.4677734375 rrcurveto
          -51.1728515625 0 -12.9453125 -57.8212890625 55.6962890625 0 rlineto
          -1.935546875 -21.1884765625 -0.841796875 -21.548828125 0 -21.5595703125 0 -5.412109375 0.0693359375 -5.3203125 0.1376953125 -5.2294921875 rrcurveto
          -40.1806640625 0 -12.9453125 -57.8212890625 57.8095703125 0 rlineto
          26.1640625 -185.140625 125.267578125 -44.5263671875 80.9287109375 0 52.2568359375 0 49.0986328125 17.728515625 38.2490234375 33.2978515625 rrcurveto
          -28.4794921875 50.0537109375 rlineto
          -29.2265625 -26.3134765625 -38.0029296875 -14.427734375 -39.837890625 0 -46.3212890625 0 -50.8701171875 19.75 -35.1953125 47.630859375 -20.3642578125 27.556640625 -13.232421875 33.7470703125 -7.009765625 40.6435546875 rrcurveto
          177.36328125 0 22.4384765625 57.8212890625 -205.522460938 0 rlineto
          -0.2509765625 6.9228515625 -0.1240234375 7.0791015625 0 7.2392578125 0 22.5615234375 0.884765625 19.5439453125 1.4169921875 16.912109375 rrcurveto
          233.80078125 0 21.5751953125 57.8212890625 -246.966796875 0 rlineto
          1.6552734375 7.5068359375 1.673828125 6.3720703125 1.5517578125 5.3955078125 29.4365234375 102.389648438 72.46875 34.6826171875 59.7099609375 0 67.3662109375 0 37.201171875 -43.171875 0.9658203125 -1.17578125 5.46875 -6.654296875 -4.0087890625 -8.03515625 7.1337890625 -5.83203125 rrcurveto
          endchar
        </CharString>
        <CharString name="exclam">
          298.599609375 47.888671875 rmoveto
          32.626953125 -26.509765625 26.498046875 -32.626953125 -32.6357421875 -26.5 -26.5078125 -32.615234375 -32.626953125 26.509765625 -26.4970703125 32.626953125 32.63671875 26.4990234375 26.5087890625 32.61328125 vhcurveto
          -57.587890625 620.07421875 rmoveto
          -17.3203125 0 -17.6044921875 -10.59765625 -8.923828125 -21.4912109375 -4.58984375 -11.0517578125 -2.2255859375 -13.4921875 0 -18.734375 0 -32.271484375 6.3779296875 -24.283203125 3.490234375 -65.7060546875 rrcurveto
          14.6708984375 -276.16015625 50.0546875 0 18.123046875 276.16015625 rlineto
          2.4970703125 38.072265625 6.7880859375 37.853515625 0 38.2060546875 0 23.5078125 -2.302734375 11.2060546875 -1.5068359375 5.908203125 -7.716796875 30.279296875 -21.04296875 12.5947265625 -18.7685546875 0 rrcurveto
          endchar
        </CharString>
        <CharString name="exclamdown">
          180.329101562 608.841796875 rmoveto
          -32.626953125 26.509765625 -26.498046875 32.626953125 32.6357421875 26.5 26.5078125 32.615234375 32.626953125 -26.509765625 26.4970703125 -32.626953125 -32.63671875 -26.4990234375 -26.5087890625 -32.61328125 vhcurveto
          57.587890625 -620.07421875 rmoveto
          17.3203125 0 17.6044921875 10.59765625 8.923828125 21.4912109375 4.58984375 11.0517578125 2.2255859375 13.4921875 0 18.734375 0 32.271484375 -6.3779296875 24.283203125 -3.490234375 65.7060546875 rrcurveto
          -14.6708984375 276.16015625 -50.0546875 0 -18.123046875 -276.16015625 rlineto
          -2.4970703125 -38.072265625 -6.7880859375 -37.853515625 0 -38.2060546875 0 -23.5078125 2.302734375 -11.2060546875 1.5068359375 -5.908203125 7.716796875 -30.279296875 21.04296875 -12.5947265625 18.7685546875 0 rrcurveto
          endchar
        </CharString>
        <CharString name="f">
          343.493164062 670.942382812 rmoveto
          -64.1904296875 0 -60.052734375 -27.66796875 -31.9287109375 -51.9248046875 -23.4150390625 -38.0810546875 -1.662109375 -38.06640625 0 -40.5517578125 rrcurveto
          -44.8759765625 -99.2451171875 -56.9580078125 99.2451171875 -372.81640625 69.0400390625 372.81640625 149.298828125 56.9580078125 -149.298828125 35.3828125 vlineto
          0 33.091796875 -0.435546875 35.0126953125 17.068359375 30.5849609375 18.841796875 33.759765625 35.2646484375 16.833984375 37.7822265625 0 43.9931640625 0 36.6015625 -23.21875 19.21484375 -29.0615234375 3.208984375 -4.85546875 -0.80078125 -2.7333984375 0.34375 -4.271484375 0.55078125 -6.8505859375 4.490234375 -1.7978515625 3.078125 0.3125 rrcurveto
          32.7939453125 66.451171875 rlineto
          -32.689453125 39.3408203125 -49.6318359375 23.1865234375 -57.4658203125 0 rrcurveto
          endchar
        </CharString>
        <CharString name="five">
          106.149414062 623.0859375 rmoveto
          -21.5751953125 -316.720703125 44.8759765625 -18.123046875 rlineto
          30.0712890625 37.8701171875 44.109375 20.9072265625 42.5498046875 0 rrcurveto
          65.599609375 61.9267578125 -49.396484375 -99.2998046875 -95.830078125 -59.1435546875 -52.451171875 -66.890625 hvcurveto
          -67.2841796875 0 -43.4716796875 51.009765625 -3.466796875 6.5546875 -4.0283203125 7.6171875 5.1328125 9.8486328125 -8.556640625 6.103515625 rrcurveto
          -62.1357421875 -46.6015625 rlineto
          41.3203125 -60.9931640625 69.3046875 -34.814453125 74.046875 0 rrcurveto
          107.7109375 89.1025390625 73.1708984375 135.056640625 133.387695312 -84.1796875 74.376953125 -104.328125 hvcurveto
          -34.41015625 0 -34.8056640625 -8.0712890625 -32.2841796875 -16.1044921875 rrcurveto
          9.4931640625 179.50390625 257.173828125 0 0 62.9990234375 rlineto
          endchar
        </CharString>
        <CharString name="florin">
          479.828125 620.497070312 rmoveto
          -27.6865234375 33.3134765625 -41 19.3291015625 -42.8505859375 0 -52.5947265625 0 -51.029296875 -29.130859375 -27.5 -55.0654296875 -18.7958984375 -37.634765625 -3.23828125 -38.935546875 -2.8349609375 -37.72265625 rrcurveto
          -6.873046875 -91.478515625 -125.166015625 0 0 -56.9580078125 120.884765625 0 -22.5029296875 -299.4609375 rlineto
          -2.275390625 -30.279296875 -3.115234375 -37.521484375 -16.8203125 -30.8369140625 -14.7001953125 -26.9501953125 -20.1025390625 -9.009765625 -16.41015625 0 -17.71875 0 -12.8017578125 10.162109375 -5.5283203125 9.0087890625 -2.5537109375 4.1611328125 -1.8935546875 5.5908203125 -6.037109375 2.9775390625 rrcurveto
          -40.560546875 -63.861328125 rlineto
          20.7861328125 -22.4970703125 29.4755859375 -12.8876953125 31.12109375 0 41.1484375 0 44.255859375 22.564453125 28.66015625 48.857421875 23.4560546875 39.9853515625 5.3583984375 43.455078125 3.5703125 44.4921875 rrcurveto
          24.234375 302.049804688 127.653320312 0 0 56.9580078125 -123.083007812 0 6.578125 81.9853515625 rlineto
          2.5263671875 31.4921875 1.1865234375 38.2431640625 14.12890625 31.203125 16.365234375 36.140625 28.6435546875 14.212890625 25.1884765625 0 33.04296875 0 24.537109375 -22.9375 9.26953125 -19.583984375 2.505859375 -5.2939453125 -0.6865234375 -2.998046875 0.78515625 -3.89453125 1.154296875 -5.7216796875 3.9306640625 -1.9619140625 3.1181640625 -0.01171875 rrcurveto
          endchar
        </CharString>
        <CharString name="four">
          313.268554688 623.94921875 rmoveto
          -264.940429688 -399.569335938 0 -51.7802734375 251.1328125 0 0 -172.599609375 72.4921875 0 0 171.737304688 80.2587890625 0 0 62.1357421875 -80.2587890625 0 0 390.076171875 rlineto
          -71.62890625 -111.327148438 rmoveto
          -278.749023438 -182.956054688 vlineto
          endchar
        </CharString>
        <CharString name="fraction">
          75.9443359375 -16.3974609375 rmoveto
          -35 callsubr
          endchar
        </CharString>
        <CharString name="g">
          125.958007812 314.358398438 rmoveto
          -77 callsubr
          104.989257812 157.3125 rmoveto
          -76 callsubr
          -69.6328125 -447.250976562 rmoveto
          -75 callsubr
          endchar
        </CharString>
        <CharString name="gbreve">
          145.846679688 646.38671875 rmoveto
          -36 callsubr
          -19.888671875 -332.028320312 rmoveto
          -77 callsubr
          104.989257812 157.3125 rmoveto
          -76 callsubr
          -69.6328125 -447.250976562 rmoveto
          -75 callsubr
          endchar
        </CharString>
        <CharString name="germandbls">
          55.232421875 hmoveto
          68.1767578125 424.595703125 hlineto
          0 44.189453125 0.62890625 51.1328125 28.4697265625 41.3486328125 23.431640625 34.0302734375 34.48828125 15.875 32.736328125 0 59.4443359375 0 49.5947265625 -50.65625 0 -65.9091796875 0 -47.0849609375 -26.095703125 -43.01171875 -37.69140625 -16.865234375 -16.7197265625 -7.4814453125 -14.26171875 -0.443359375 -14.931640625 0 rrcurveto
          -28.478515625 -56.9580078125 30.2041015625 hlineto
          32.580078125 0 27.029296875 -2.2646484375 28.2353515625 -17.6865234375 37.6884765625 -23.607421875 28.1953125 -45.9501953125 0 -52.541015625 0 -72.4130859375 -54.568359375 -54.822265625 -63.73828125 0 -24.5146484375 0 -23.72265625 8.2353515625 -19.115234375 15.0947265625 rrcurveto
          -35.3828125 -56.0947265625 rlineto
          31 -20.3056640625 36.12109375 -10.787109375 36.794921875 0 102.505859375 0 80.9619140625 82.380859375 0 108.643554688 0 83.0888671875 -48.4267578125 72.04296875 -74.9873046875 23.232421875 49.10546875 25.28125 30.4716796875 51.083984375 0 57.4931640625 0 95.0908203125 -81.384765625 80.87109375 -99.7685546875 0 -68.177734375 0 -64.3515625 -38.4921875 -30.6552734375 -69.6357421875 rrcurveto
          -20.31640625 -46.1494140625 -0.5751953125 -46.1083984375 0 -45.572265625 rrcurveto
          endchar
        </CharString>
        <CharString name="grave">
          219.34765625 460.946289062 rmoveto
          29.0859375 -34.6630859375 30.0126953125 3.7099609375 15.0478515625 12.626953125 14.771484375 12.39453125 8.029296875 26.8388671875 -25.396484375 30.265625 -13.91796875 16.5869140625 -17.6494140625 11.2880859375 -13.9560546875 16.6318359375 -12.6142578125 15.033203125 -8.7880859375 17.2578125 -6.685546875 16.3583984375 rrcurveto
          -26.7412109375 65.43359375 -51.185546875 -24.9248046875 24.2021484375 -66.4365234375 rlineto
          24.9091796875 -68.3740234375 13.98828125 -29.9013671875 16.8876953125 -20.1259765625 rrcurveto
          endchar
        </CharString>
        <CharString name="grave.cap">
          207.120117188 672.27734375 rmoveto
          -50 callsubr
          endchar
        </CharString>
        <CharString name="greater">
          42.287109375 496.224609375 rmoveto
          346.92578125 -176.915039062 -349.514648438 -196.763671875 0 -75.0810546875 426.321289062 248.543945312 0 48.328125 -423.732421875 222.654296875 rlineto
          endchar
        </CharString>
        <CharString name="guillemotleft">
          248.543945312 252.859375 rmoveto
          -55 callsubr
          -333.1171875 -147.572265625 rmoveto
          -55 callsubr
          endchar
        </CharString>
        <CharString name="guillemotright">
          264.94140625 252.859375 rmoveto
          -53 callsubr
          181.229492188 23.3017578125 rmoveto
          -151.887695312 147.572265625 -38.8349609375 -41.423828125 120.819335938 -118.23046875 -127.723632812 -139.806640625 39.6982421875 -39.697265625 157.928710938 168.284179688 rlineto
          endchar
        </CharString>
        <CharString name="guilsinglleft">
          144.984375 252.859375 rmoveto
          -55 callsubr
          endchar
        </CharString>
        <CharString name="guilsinglright">
          342.611328125 252.859375 rmoveto
          -53 callsubr
          endchar
        </CharString>
        <CharString name="h">
          69.9033203125 hmoveto
          73.3544921875 263.21484375 hlineto
          0 30.767578125 3.7001953125 22.349609375 19.00390625 25.3232421875 17.4169921875 23.2099609375 43.90234375 40.3828125 48.3095703125 0 22.927734375 0 22.6005859375 -9.3203125 16.4091796875 -19.607421875 24.7255859375 -29.546875 0.2060546875 -39.20703125 0 -32.26953125 rrcurveto
          -275.296875 70.765625 277.0234375 0 vlineto
          0 35.6708984375 -0.2333984375 37.6953125 -16.25 36.724609375 -22.7451171875 51.4013671875 -46.828125 29.232421875 -52.0595703125 0 -61.99609375 0 -56.3095703125 -40.5615234375 -33.5458984375 -50.9189453125 rrcurveto
          264.94140625 vlineto
          0 3.392578125 0.232421875 2.6103515625 3.3974609375 3.5849609375 2.2958984375 2.421875 4.0615234375 3.0791015625 0 5.21484375 0 1.0224609375 -0.1669921875 1.013671875 -0.3271484375 0.9609375 rrcurveto
          -82.84765625 hlineto
          endchar
        </CharString>
        <CharString name="hungarumlaut">
          214.024414062 699.030273438 rmoveto
          -43 callsubr
          92.3408203125 42.287109375 rmoveto
          -43 callsubr
          endchar
        </CharString>
        <CharString name="hungarumlaut.cap">
          410.788085938 810.357421875 rmoveto
          -31 callsubr
          -224.379882812 64.7255859375 rmoveto
          -30 callsubr
          endchar
        </CharString>
        <CharString name="hyphen">
          70.765625 347.7890625 rmoveto
          -104 callsubr
          endchar
        </CharString>
        <CharString name="i">
          106.149414062 457.389648438 rmoveto
          -74 callsubr
          -34.517578125 198.490234375 rmoveto
          -73 callsubr
          endchar
        </CharString>
        <CharString name="iacute">
          283.064453125 699.030273438 rmoveto
          -43 callsubr
          -239.9140625 -199.353515625 rmoveto
          -74 callsubr
          endchar
        </CharString>
        <CharString name="icircumflex">
          113.052734375 544.552734375 rmoveto
          -42 callsubr
          -118.23046875 -227.83203125 rmoveto
          -74 callsubr
          endchar
        </CharString>
        <CharString name="idieresis">
          202.8203125 614.022460938 rmoveto
          -41 callsubr
          177.763671875 0.0126953125 rmoveto
          -40 callsubr
          -274.434570312 -156.645507812 rmoveto
          -74 callsubr
          endchar
        </CharString>
        <CharString name="igrave">
          191.5859375 699.030273438 rmoveto
          -44 callsubr
          -173.461914062 -94.9306640625 rmoveto
          -74 callsubr
          endchar
        </CharString>
        <CharString name="j">
          125.998046875 457.389648438 rmoveto
          -72 callsubr
          -35.380859375 198.490234375 rmoveto
          -28.634765625 -23.1630859375 -23.0732421875 -28.287109375 -28.28125 23.16015625 -23.0625 28.626953125 28.64453125 23.16015625 23.072265625 28.27734375 28.2958984375 -23.169921875 23.05859375 -28.6240234375 hvcurveto
          endchar
        </CharString>
        <CharString name="k">
          66.451171875 664.509765625 rmoveto
          -665.373046875 72.4921875 173.462890625 vlineto
          60.4091796875 56.095703125 186.408203125 -233.010742188 rlineto
          0 38.318359375 3.4755859375 47.892578125 vhcurveto
          2.330078125 0 2.33203125 -0.0078125 2.3310546875 -0.015625 rrcurveto
          -224.379882812 273.571289062 192.44921875 181.23046875 -25.890625 0 rlineto
          -17.5146484375 0 -18.2734375 0.818359375 -17.7177734375 4.359375 rrcurveto
          -228.694335938 -212.297851562 0 391.801757812 rlineto
          0 4.3271484375 0.361328125 2.6572265625 3.4921875 4.544921875 2.3193359375 3.013671875 4.4296875 4.5947265625 -1.1103515625 6.751953125 rrcurveto
          endchar
        </CharString>
        <CharString name="kgreenlandic">
          66.451171875 456.52734375 rmoveto
          -457.390625 72.4921875 173.462890625 vlineto
          60.4091796875 56.095703125 186.408203125 -233.010742188 rlineto
          0 38.318359375 3.4755859375 47.892578125 vhcurveto
          2.330078125 0 2.33203125 -0.0078125 2.3310546875 -0.015625 rrcurveto
          -224.379882812 273.571289062 192.44921875 181.23046875 -25.890625 0 rlineto
          -17.5146484375 0 -18.2734375 0.818359375 -17.7177734375 4.359375 rrcurveto
          -228.694335938 -212.297851562 0 183.818359375 rlineto
          0 3.671875 0.185546875 2.8759765625 3.1201171875 4.251953125 2.42578125 3.306640625 3.9306640625 3.73828125 0 5.97265625 0 0.6953125 -0.056640625 0.6923828125 -0.11328125 0.685546875 rrcurveto
          endchar
        </CharString>
        <CharString name="l">
          84.57421875 664.509765625 rmoveto
          -71 callsubr
          endchar
        </CharString>
        <CharString name="lacute">
          84.57421875 664.509765625 rmoveto
          -71 callsubr
          21.5751953125 170.01171875 rmoveto
          -49 callsubr
          endchar
        </CharString>
        <CharString name="lcaron">
          474.509765625 604.670898438 rmoveto
          40.9384765625 -27.109375 25.4052734375 -28.455078125 -26.3291015625 -19.7197265625 -21.4580078125 -24.162109375 vhcurveto
          0 -21.51171875 15.2392578125 -9.1982421875 7.068359375 -4.7001953125 6.9501953125 -4.623046875 11.7900390625 -7.3662109375 0 -16.4697265625 0 -13.2392578125 -7.939453125 -13.6728515625 -3.9072265625 -6.41796875 -7.8134765625 -12.837890625 -13.44140625 -19.466796875 -18.9736328125 -17.44921875 rrcurveto
          27.615234375 -24.1640625 rlineto
          55.7197265625 56.5732421875 29.3056640625 52.1689453125 0 41.6513671875 rrcurveto
          -407.1953125 59.8388671875 rmoveto
          -71 callsubr
          endchar
        </CharString>
        <CharString name="less">
          458.252929688 496.224609375 rmoveto
          -346.92578125 -176.915039062 349.514648438 -196.763671875 0 -75.0810546875 -426.322265625 248.543945312 0 48.328125 423.733398438 222.654296875 rlineto
          endchar
        </CharString>
        <CharString name="logicalnot">
          91.4775390625 346.92578125 rmoveto
          -62.9990234375 258.900390625 -126.860351562 63.8623046875 189.859375 vlineto
          endchar
        </CharString>
        <CharString name="lslash">
          84.57421875 664.509765625 rmoveto
          -57.8203125 129.450195312 -261.776367188 vlineto
          -78.533203125 -27.3291015625 0 -65.587890625 78.533203125 26.5498046875 0 -220.724609375 -135.491210938 0 0 -57.8212890625 342.610351562 0 0 57.8212890625 -134.627929688 0 0 245.233398438 91.478515625 30.9267578125 0 73.3544921875 rlineto
          -9.4931640625 -6.904296875 -6.904296875 -4.314453125 -10.35546875 -3.4521484375 rrcurveto
          -64.7255859375 -22.5244140625 0 294.369140625 rlineto
          endchar
        </CharString>
        <CharString name="m">
          37.9716796875 hmoveto
          65.587890625 304.638671875 hlineto
          0 21.5126953125 1.4921875 19.9541015625 12.9482421875 24.041015625 16.5283203125 30.69140625 20.4150390625 11.9326171875 18.2958984375 0 16.2744140625 0 18.2998046875 -10.1181640625 7.7421875 -25.0791015625 5.8974609375 -19.107421875 -1.3876953125 -22.041015625 0 -18.8408203125 rrcurveto
          -317.583984375 67.3134765625 302.049804688 vlineto
          0 24.009765625 2.3330078125 19.5830078125 16.8681640625 28.44921875 7.5634765625 12.7578125 17.8173828125 28.4296875 27.7412109375 0 14.78125 0 14.103515625 -8.6103515625 7.3876953125 -16.892578125 8.4140625 -19.2373046875 -2.23046875 -26.142578125 0 -20.771484375 rrcurveto
          -324.48828125 68.1767578125 325.3515625 vlineto
          0 37.8056640625 1.6025390625 38.6337890625 -20.21875 30.5234375 -17.5087890625 26.435546875 -28.2607421875 9.861328125 -25.697265625 0 -43.8203125 0 -40.798828125 -26.044921875 -17.7470703125 -40.408203125 -7.162109375 37.7314453125 -32.72265625 28.767578125 -40.9423828125 0 -37.47265625 0 -35.0234375 -24.197265625 -21.0029296875 -31.9453125 rrcurveto
          0.86328125 44.8759765625 -66.451171875 0 rlineto
          endchar
        </CharString>
        <CharString name="macron">
          123.409179688 621.360351562 rmoveto
          -54 callsubr
          endchar
        </CharString>
        <CharString name="micro">
          24.1640625 -166.55859375 rmoveto
          62.1357421875 hlineto
          0.7431640625 75.3671875 0.2919921875 75.63671875 -0.171875 75.96484375 20.7890625 -44.013671875 44.37109375 -27.619140625 48.6435546875 0 51.50390625 0 48.021484375 30.7275390625 23.1328125 47.8095703125 5.5908203125 -43.0341796875 34.2744140625 -34.7236328125 42.32421875 0 37.06640625 0 31.6123046875 26.0791015625 19.142578125 29.240234375 rrcurveto
          -26.7529296875 50.9169921875 rlineto
          0 -21.1328125 -48.443359375 -33.8935546875 vhcurveto
          -12.0791015625 0 -11.9306640625 6.486328125 -7.484375 13.154296875 -8.5439453125 15.015625 0.134765625 18.2802734375 0 15.35546875 rrcurveto
          340.885742188 -63.8623046875 -264.94140625 vlineto
          0 -30.6748046875 -1.515625 -26.439453125 -11.4052734375 -26.05078125 -17.6630859375 -40.3427734375 -35.353515625 -24.94140625 -36.189453125 0 -31.806640625 0 -31.8828125 19.6591796875 -17.7880859375 36.07421875 -13.86328125 28.111328125 -1.0224609375 28.5576171875 0 30.005859375 rrcurveto
          270.982421875 -65.587890625 -254.584960938 vlineto
          0 -126.586914062 -19.0390625 -126.260742188 -0.8095703125 -115.653320312 rrcurveto
          endchar
        </CharString>
        <CharString name="minus">
          44.8759765625 343.473632812 rmoveto
          -102 callsubr
          endchar
        </CharString>
        <CharString name="multiply">
          382.30859375 503.12890625 rmoveto
          -126.201171875 -131.323242188 -124.068359375 131.323242188 -47.46484375 -45.7392578125 125.993164062 -132.971679688 -125.993164062 -131.10546875 44.8759765625 -44.013671875 124.928710938 128.87890625 126.204101562 -133.193359375 46.6015625 45.73828125 -127.134765625 134.569335938 129.724609375 133.82421875 rlineto
          endchar
        </CharString>
        <CharString name="n">
          68.1767578125 hmoveto
          -70 callsubr
          endchar
        </CharString>
        <CharString name="nacute">
          291.694335938 699.030273438 rmoveto
          -43 callsubr
          -286.516601562 -656.743164062 rmoveto
          -70 callsubr
          endchar
        </CharString>
        <CharString name="ncaron">
          377.131835938 658.469726562 rmoveto
          -59 callsubr
          -197.627929688 -517.80078125 rmoveto
          -70 callsubr
          endchar
        </CharString>
        <CharString name="nine">
          217.1953125 -10.4912109375 rmoveto
          76.048828125 0 79.5751953125 45.5986328125 37.751953125 99.55078125 10.935546875 28.8369140625 15.744140625 54.05859375 0 101.981445312 0 77.99609375 -6.990234375 53.80859375 -14.5048828125 42.5810546875 -32.4609375 95.2978515625 -71.7373046875 39.908203125 -65.04296875 0 rrcurveto
          -96.931640625 -81.4111328125 -85.6328125 -120.748046875 -119.702148438 80.4609375 -76.974609375 90.5185546875 hvcurveto
          51.421875 0 48.021484375 25.232421875 29.04296875 42.1181640625 -2.9580078125 -96.87890625 -15.86328125 -42.0048828125 -6.5703125 -15.5302734375 -26.6494140625 -63.0009765625 -51.74609375 -22.603515625 -44.7880859375 0 -44.712890625 0 -30.1181640625 22.490234375 -0.20703125 0.16015625 -8.439453125 6.537109375 2.7724609375 10.76953125 -10.6337890625 6.75 rrcurveto
          -48.3271484375 -53.5068359375 rlineto
          36.7392578125 -36.4189453125 49.625 -20.673828125 51.4345703125 0 rrcurveto
          28.75 297.635742188 rmoveto
          -55.5517578125 -54.06640625 45.72265625 92.7607421875 90.673828125 52.201171875 50.7265625 56.5302734375 hvcurveto
          70.923828125 0 59.2607421875 -77.92578125 -11.0576171875 -125.779296875 -27.544921875 -46.423828125 -45.822265625 -29.7548828125 -44.873046875 0 rrcurveto
          endchar
        </CharString>
        <CharString name="nonbreakingspace">
          endchar
        </CharString>
        <CharString name="ntilde">
          130.313476562 557.498046875 rmoveto
          -47 callsubr
          -17.2607421875 -589.428710938 rmoveto
          -70 callsubr
          endchar
        </CharString>
        <CharString name="numbersign">
          173.462890625 623.94921875 rmoveto
          -20.05859375 -169.545898438 -111.1171875 -1.328125 -3.4521484375 -47.46484375 108.924804688 1.0888671875 -20.1337890625 -170.1796875 -98.2841796875 -1.783203125 -4.314453125 -45.7392578125 97.162109375 1.5712890625 -21.21875 -179.349609375 58.6845703125 2.5888671875 21.525390625 177.712890625 110.736328125 1.7900390625 -21.7978515625 -182.954101562 60.41015625 3.451171875 22.0478515625 180.482421875 rlineto
          99.634765625 1.611328125 5.177734375 46.6015625 -99.142578125 -1.798828125 20.5595703125 168.305664062 91.5283203125 0.9150390625 5.177734375 48.328125 -90.8232421875 -1.0849609375 20.0576171875 164.192382812 -62.1357421875 -2.5888671875 -19.3427734375 -162.338867188 -110.159179688 -1.3154296875 20.763671875 171.420898438 rlineto
          -26.556640625 -219.243164062 rmoveto
          110.228515625 1.1025390625 -20.111328125 -168.796875 -110.672851562 -2.0087890625 rlineto
          endchar
        </CharString>
        <CharString name="o">
          460.077148438 226.368164062 rmoveto
          -69 callsubr
          -208.290039062 179.330078125 rmoveto
          -68 callsubr
          endchar
        </CharString>
        <CharString name="oacute">
          291.694335938 699.030273438 rmoveto
          -43 callsubr
          105.383789062 -430.375 rmoveto
          -69 callsubr
          -208.290039062 179.330078125 rmoveto
          -68 callsubr
          endchar
        </CharString>
        <CharString name="ocircumflex">
          133.764648438 544.552734375 rmoveto
          -42 callsubr
          214.985351562 -458.853515625 rmoveto
          -69 callsubr
          -208.290039062 179.330078125 rmoveto
          -68 callsubr
          endchar
        </CharString>
        <CharString name="odieresis">
          213.176757812 614.022460938 rmoveto
          -41 callsubr
          177.763671875 0.0126953125 rmoveto
          -40 callsubr
          69.13671875 -387.666992188 rmoveto
          -69 callsubr
          -208.290039062 179.330078125 rmoveto
          -68 callsubr
          endchar
        </CharString>
        <CharString name="oe">
          161.443359375 466.069335938 rmoveto
          -47.1552734375 0 -50.443359375 -26.873046875 -29.681640625 -56.0205078125 -24.6630859375 -46.5537109375 -3.4658203125 -54.1728515625 0 -45.9658203125 0 -52.5478515625 3.712890625 -64.0927734375 24.1220703125 -49.57421875 29.8115234375 -61.2685546875 50.4609375 -20.2412109375 39.7587890625 0 36.2109375 0 35.7490234375 15.90234375 26.9990234375 24.6806640625 31.9814453125 -26.5625 40.26953125 -14.541015625 41.5732421875 0 rrcurveto
          48.173828125 0 46.10546875 19.5107421875 33.5361328125 34.5380859375 rrcurveto
          -35.3828125 43.1494140625 rlineto
          -25.6005859375 -29.1435546875 -35.908203125 -9.734375 -28.87109375 0 -37.2861328125 0 -36.966796875 16.68359375 -17.73046875 40.1806640625 -10.84375 24.5771484375 -3.03125 29.8671875 -0.5263671875 63.060546875 rrcurveto
          227.83203125 11.2197265625 hlineto
          0 50.0185546875 2.314453125 53.6171875 -16.1181640625 44.06640625 -22.650390625 61.92578125 -51.6474609375 24.306640625 -46.333984375 0 -38.724609375 0 -37.0048828125 -16.4931640625 -25.43359375 -29.3076171875 -21.6162109375 29.0546875 -34.2333984375 16.7333984375 -37.2919921875 0 rrcurveto
          101.771484375 -188.18359375 rmoveto
          -0.986328125 47.634765625 9.35546875 25.8759765625 2.2119140625 5.9521484375 15.4033203125 41.419921875 32.318359375 12.7021484375 26.0458984375 0 25.865234375 0 26.7998046875 -12.181640625 15.2666015625 -25.482421875 15.7666015625 -26.3193359375 -0.625 -31.3896484375 0 -29.58203125 rrcurveto
          -8.6298828125 vlineto
          -364.24609375 -31.8515625 rmoveto
          0 28.1806640625 1.9326171875 39.1552734375 15.8837890625 34.2802734375 17.8505859375 38.5302734375 30.396484375 19.4951171875 28.3095703125 0 26.0908203125 0 22.31640625 -17.11328125 0 -26.3212890625 0 -14.29296875 -8.99609375 -37.4931640625 0 -74.4130859375 0 -86.9072265625 12.5703125 -47.1171875 0 -12.9580078125 0 -24.986328125 -25.20703125 -14.166015625 -24.984375 0 rrcurveto
          -30.0556640625 0 -34.6162109375 19.34375 -16.978515625 53.931640625 -12.45703125 39.568359375 -2.0556640625 49.509765625 0 33.7734375 rrcurveto
          endchar
        </CharString>
        <CharString name="ogonek">
          355.555664062 hmoveto
          -51.8125 -42.744140625 -27.5390625 -39.8984375 0 -32.2177734375 0 -33.35546875 26.5869140625 -27.837890625 51.81640625 0 24.853515625 0 24.6650390625 6.310546875 19.607421875 16.9921875 rrcurveto
          45.7392578125 vlineto
          -6.357421875 -5.2744140625 -10.0771484375 -6.8828125 -15.6201171875 -5.6884765625 -10.51171875 -3.828125 -7.369140625 -1.4521484375 -6.205078125 0 -18.2080078125 0 -11.0478515625 13.0810546875 0 15.359375 0 14.7890625 9.8076171875 11.857421875 7.0283203125 7.9609375 8.4921875 9.6171875 24.7216796875 27.2744140625 33.6201171875 30.1982421875 rrcurveto
          endchar
        </CharString>
        <CharString name="ograve">
          243.366210938 699.030273438 rmoveto
          -44 callsubr
          128.685546875 -325.952148438 rmoveto
          -69 callsubr
          -208.290039062 179.330078125 rmoveto
          -68 callsubr
          endchar
        </CharString>
        <CharString name="ohungarumlaut">
          214.024414062 699.030273438 rmoveto
          -43 callsubr
          92.3408203125 42.287109375 rmoveto
          -43 callsubr
          27.7138671875 -430.375 rmoveto
          -69 callsubr
          -208.290039062 179.330078125 rmoveto
          -68 callsubr
          endchar
        </CharString>
        <CharString name="omacron">
          123.409179688 621.360351562 rmoveto
          -54 callsubr
          82.9462890625 -394.9921875 rmoveto
          -69 callsubr
          -208.290039062 179.330078125 rmoveto
          -68 callsubr
          endchar
        </CharString>
        <CharString name="one">
          299.4609375 623.94921875 rmoveto
          -48.328125 0 -163.106445312 -85.4375 16.396484375 -38.8349609375 125.134765625 37.109375 0 -537.649414062 69.9033203125 0 rlineto
          endchar
        </CharString>
        <CharString name="onehalf">
          75.9443359375 -16.3974609375 rmoveto
          -35 callsubr
          -126.4296875 -496.459960938 rmoveto
          37.28125 -24.853515625 rlineto
          3.966796875 7.5283203125 -0.56640625 3.5703125 4.314453125 5.4580078125 14.068359375 17.7978515625 26.1123046875 15.9873046875 30.7255859375 0 38.248046875 0 21.98046875 -23.4638671875 0 -25.3828125 0 -24.064453125 -18.033203125 -19.3115234375 -23.212890625 -18.8779296875 -23.958984375 -19.4814453125 -58.7626953125 -39.0087890625 -44.568359375 -61.6357421875 rrcurveto
          -35.2109375 223.689453125 50.3994140625 vlineto
          -5.1923828125 1.72265625 -3.9208984375 -3.8828125 -1.6630859375 -1.4345703125 -3.244140625 -2.7978515625 -1.662109375 -0.5107421875 -3.6484375 0 rrcurveto
          -145.674804688 hlineto
          44.6982421875 49.9501953125 44.2373046875 20.7578125 31.7744140625 29.2841796875 11.3642578125 10.4736328125 26.0283203125 26.0263671875 0 37.875 0 48.47265625 -43.263671875 41.0908203125 -63.6826171875 0 -48.513671875 0 -44.912109375 -24.716796875 -24.0087890625 -41.7607421875 rrcurveto
          -116.590820312 509.405273438 rmoveto
          -32 callsubr
          endchar
        </CharString>
        <CharString name="onequarter">
          75.9443359375 -16.3974609375 rmoveto
          -35 callsubr
          6.55859375 -422.956054688 rmoveto
          -34 callsubr
          -44.8759765625 -78.0146484375 rmoveto
          -33 callsubr
          -141.876953125 631.974609375 rmoveto
          -32 callsubr
          endchar
        </CharString>
        <CharString name="ordfeminine">
          122.545898438 566.127929688 rmoveto
          34.5205078125 -41.423828125 rlineto
          22.466796875 30.8037109375 36.55078125 13.2275390625 34.6328125 0 31.306640625 0 20.9755859375 -12.0888671875 11.306640625 -17.6201171875 10.73046875 -16.7236328125 0.314453125 -17.8037109375 0 -16.904296875 rrcurveto
          -12.08203125 -14.6708984375 vlineto
          -49.4970703125 0 -55.0634765625 2.3466796875 -44.7626953125 -23.8359375 -41.6826171875 -22.1962890625 -17.84375 -37.123046875 0 -33.1376953125 0 -55.603515625 48.375 -48.7900390625 69.31640625 0 38.76953125 0 38.2529296875 15.162109375 29.669921875 27.9892578125 rrcurveto
          -33.6572265625 62.9990234375 218.338867188 vlineto
          0 26.2880859375 -1.0478515625 22.6396484375 -10.548828125 22.669921875 -20.599609375 44.2724609375 -45.7880859375 21.591796875 -54.228515625 0 -47.2060546875 0 -51.318359375 -15.0498046875 -35.9296875 -41.2900390625 rrcurveto
          205.39453125 -142.39453125 rmoveto
          -17.2607421875 vlineto
          0 -23.2490234375 -0.5849609375 -20.458984375 -21.6220703125 -20.1142578125 -17.7607421875 -16.5234375 -27.82421875 -14.853515625 -30.720703125 0 -38.5205078125 0 -24.46484375 25.0439453125 0 28.0029296875 0 21.65625 15.2666015625 27.1171875 44.1298828125 7.828125 26.3662109375 4.6767578125 33.443359375 -1.865234375 25.89453125 0 rrcurveto
          -235.598632812 -217.4765625 rmoveto
          -56 callsubr
          endchar
        </CharString>
        <CharString name="ordmasculine">
          251.845703125 622.232421875 rmoveto
          -83.1279296875 -73.07421875 -75.28125 -114.701171875 -109.102539062 70.763671875 -66.8876953125 79.2001953125 73.154296875 78.310546875 58.556640625 129.41796875 120.001953125 -73.2548828125 57.99609375 -71.9716796875 hvcurveto
          -95.654296875 -185.370117188 rmoveto
          86.1650390625 45.1748046875 43.1005859375 45.62890625 46.03125 44.40625 -43.57421875 -85.697265625 -86.0703125 -47.525390625 -36.71875 -42.75 -44.4384765625 -46.52734375 39.0693359375 83.7255859375 vhcurveto
          -80.2470703125 -230.60546875 rmoveto
          -56 callsubr
          endchar
        </CharString>
        <CharString name="oslash">
          251.787109375 405.698242188 rmoveto
          17.541015625 0 17.8271484375 -4.0283203125 16.716796875 -8.2763671875 rrcurveto
          -154.038085938 -283.4296875 rlineto
          -20.5478515625 30.39453125 -12.7939453125 41.072265625 0 49.685546875 0 111.991210938 65.423828125 62.5908203125 69.87109375 0 rrcurveto
          208.290039062 -179.330078125 rmoveto
          0 86.7900390625 -30.1396484375 64.09765625 -44.4072265625 40.1025390625 rrcurveto
          39.9287109375 72.8251953125 -53.505859375 28.4794921875 -37.1162109375 -68.29296875 rlineto
          -24.6591796875 10.966796875 -26.6005859375 5.55078125 -26.8857421875 0 -116.427734375 0 -99.81640625 -100.85546875 0 -141.153320312 0 -75.1640625 28.9462890625 -63.1708984375 44.7958984375 -42.1650390625 rrcurveto
          -44.2861328125 -81.48828125 51.779296875 -26.7529296875 40.654296875 74.146484375 rlineto
          28.17578125 -14.4765625 31.373046875 -7.8896484375 32.671875 0 108.18359375 0 97.3359375 86.994140625 0 151.456054688 rrcurveto
          -109.403320312 127.41796875 rmoveto
          22.263671875 -29.8125 14.693359375 -43.0927734375 0 -57.4990234375 0 -114.989257812 -65.83203125 -58.3447265625 -66.68359375 0 -21.6015625 0 -20.9853515625 6.0185546875 -18.833984375 11.4091796875 rrcurveto
          endchar
        </CharString>
        <CharString name="otilde">
          135.491210938 557.498046875 rmoveto
          -47 callsubr
          369.461914062 -363.060546875 rmoveto
          -69 callsubr
          -208.290039062 179.330078125 rmoveto
          -68 callsubr
          endchar
        </CharString>
        <CharString name="p">
          59.546875 456.52734375 rmoveto
          0.86328125 -623.0859375 73.3544921875 0 0 226.96875 rlineto
          30.498046875 -45.173828125 51.126953125 -27.447265625 55.4931640625 0 rrcurveto
          93.388671875 98.3037109375 78.291015625 167.525390625 161.231445312 -95.501953125 72.0458984375 -89.880859375 hvcurveto
          -58.6337890625 0 -54.619140625 -30.3232421875 -31.037109375 -49.935546875 rrcurveto
          69.9033203125 vlineto
          117.884765625 -50.994140625 rmoveto
          -67 callsubr
          endchar
        </CharString>
        <CharString name="paragraph">
          435.815429688 665.373046875 rmoveto
          -125.135742188 hlineto
          -46.40234375 0 -49.8173828125 -0.19921875 -48.005859375 -20.7861328125 -66.3740234375 -28.73828125 -36.267578125 -58.453125 0 -61.3642578125 0 -90.095703125 77.3359375 -77.19921875 101.354492188 -6.6376953125 rrcurveto
          -390.076171875 59.546875 676.591796875 75.9443359375 -676.591796875 57.8212890625 vlineto
          endchar
        </CharString>
        <CharString name="parenleft">
          391.801757812 666.236328125 rmoveto
          -154.754882812 -68.0751953125 -98.3798828125 -156.678710938 0 -183.046875 0 -181.635742188 95.599609375 -166.256835938 158.3984375 -83.142578125 rrcurveto
          32.7939453125 52.642578125 rlineto
          -136.673828125 79.4228515625 -80.56640625 146.954101562 0 155.366210938 0 142.83984375 69.1953125 127.384765625 116.834960938 68.9091796875 2.6689453125 1.57421875 2.40625 1.546875 3.9755859375 0 3.513671875 0 3.1748046875 -1.1396484375 3.9658203125 0 1.4326171875 0 3.232421875 0.130859375 3.3876953125 1.9306640625 rrcurveto
          endchar
        </CharString>
        <CharString name="parenright">
          77.669921875 603.237304688 rmoveto
          132.170898438 -70.265625 83.603515625 -136.893554688 0 -148.416015625 0 -150.491210938 -85.8115234375 -139.55859375 -135.140625 -71.5283203125 rrcurveto
          18.9853515625 -60.41015625 rlineto
          165.842773438 79.0654296875 106.865234375 166.1171875 0 179.663085938 0 178.07421875 -105.056640625 162.001953125 -162.47265625 74.77734375 rrcurveto
          endchar
        </CharString>
        <CharString name="percent">
          390.939453125 623.0859375 rmoveto
          -345.200195312 -623.0859375 63.861328125 0 348.65234375 623.0859375 rlineto
          -318.529296875 11.310546875 rmoveto
          -59.4287109375 -51.9443359375 -54.005859375 -76.875 -74.681640625 50.9072265625 -56.033203125 61.3701171875 60.9072265625 50.5986328125 55.353515625 74.2734375 76.2568359375 -51.5087890625 55.7119140625 -60.9013671875 hvcurveto
          -1.3583984375 -52.73046875 rmoveto
          16.1962890625 34.5146484375 -10.6474609375 -71.2138671875 -57.8271484375 -29.2470703125 -15.732421875 -19.89453125 -18.0263671875 -33.0390625 12.9814453125 67.7255859375 59.283203125 29.7763671875 15.4306640625 19.7197265625 hvcurveto
          344.067382812 -462.060546875 rmoveto
          74.4580078125 -50.8232421875 55.3447265625 -60.8740234375 -60.7294921875 -51.123046875 -55.15625 -74.931640625 -74.3984375 50.9765625 -55.384765625 60.9677734375 60.658203125 50.947265625 55.119140625 74.94921875 vhcurveto
          -111.928710938 78.025390625 rmoveto
          20.5703125 31.8037109375 -16.1162109375 -64.23046875 -59.640625 -30.1142578125 -17.28125 -21.412109375 -23.43359375 -29.4755859375 19.953125 59.072265625 60.9287109375 30.5859375 17.314453125 21.4755859375 hvcurveto
          endchar
        </CharString>
        <CharString name="period">
          297.736328125 46.1650390625 rmoveto
          -103 callsubr
          endchar
        </CharString>
        <CharString name="periodcentered">
          297.736328125 330.955078125 rmoveto
          -103 callsubr
          endchar
        </CharString>
        <CharString name="plus">
          221.791015625 522.978515625 rmoveto
          -106 callsubr
          endchar
        </CharString>
        <CharString name="plusminus">
          45.7392578125 80.2587890625 rmoveto
          -62.9990234375 411.650390625 62.9990234375 vlineto
          -235.598632812 494.5 rmoveto
          -106 callsubr
          endchar
        </CharString>
        <CharString name="q">
          373.678710938 390.076171875 rmoveto
          -0.330078125 -31.8115234375 78.919921875 -101.36328125 -100.088867188 -98.130859375 -80.7119140625 -155.256835938 -148.053710938 86.921875 -94.703125 100.87890625 vhcurveto
          58.1806640625 0 53.39453125 32.5458984375 28.56640625 50.869140625 rrcurveto
          -239.9140625 71.6298828125 623.0859375 -68.177734375 vlineto
          -130.356445312 -46.5732421875 rmoveto
          40.7890625 0 52.6015625 -21.8017578125 20.0068359375 -56.0244140625 9.0087890625 -25.22265625 2.1630859375 -28.7626953125 0 -55.2373046875 0 -34.15625 -2.0751953125 -25.64453125 -7.4560546875 -23.1572265625 -17.53125 -54.453125 -47.0927734375 -32.1689453125 -47.63671875 0 rrcurveto
          -65.16796875 -66.255859375 60.58984375 129.083984375 119.181640625 67.3515625 47.7734375 61.294921875 hvcurveto
          endchar
        </CharString>
        <CharString name="question">
          320.174804688 44.4384765625 rmoveto
          31.4716796875 -26.275390625 25.92578125 -32.875 -32.8623046875 -26.26171875 -25.923828125 -31.4599609375 -31.5244140625 26.2900390625 -25.912109375 32.81640625 32.8896484375 26.2783203125 25.9365234375 31.486328125 vhcurveto
          -256.3125 516.51171875 rmoveto
          50.9169921875 -47.46484375 rlineto
          31.53515625 52.7392578125 53.078125 33.6923828125 50.5615234375 0 59.818359375 0 45.41796875 -46.5771484375 0 -59.091796875 0 -65.513671875 -51.87109375 -40.84375 -30.2236328125 -33.1865234375 -44.1767578125 -48.5068359375 -2.8125 -35.203125 0 -44.8876953125 rrcurveto
          -41.4248046875 65.587890625 41.4248046875 vlineto
          0 35.240234375 2.3232421875 29.7158203125 41.17578125 36.59765625 33.0029296875 29.333984375 66.099609375 38.048828125 0 93.9658203125 0 93.19921875 -64.328125 83.216796875 -113.309570312 0 -74.87890625 0 -74.400390625 -37.4267578125 -43.5166015625 -67.0478515625 rrcurveto
          endchar
        </CharString>
        <CharString name="questiondown">
          181.365234375 607.962890625 rmoveto
          -31.4716796875 26.275390625 -25.92578125 32.875 32.8623046875 26.26171875 25.923828125 31.4599609375 31.5244140625 -26.2900390625 25.912109375 -32.81640625 -32.8896484375 -26.2783203125 -25.9365234375 -31.486328125 vhcurveto
          256.3125 -516.51171875 rmoveto
          -50.9169921875 47.46484375 rlineto
          -31.53515625 -52.7392578125 -53.078125 -33.6923828125 -50.5615234375 0 -59.818359375 0 -45.41796875 46.5771484375 0 59.091796875 0 65.513671875 51.87109375 40.84375 30.2236328125 33.1865234375 44.1767578125 48.5068359375 2.8125 35.203125 0 44.8876953125 rrcurveto
          41.4248046875 -65.587890625 -41.4248046875 vlineto
          0 -35.240234375 -2.3232421875 -29.7158203125 -41.17578125 -36.59765625 -33.0029296875 -29.333984375 -66.099609375 -38.048828125 0 -93.9658203125 0 -93.19921875 64.328125 -83.216796875 113.309570312 0 74.87890625 0 74.400390625 37.4267578125 43.5166015625 67.0478515625 rrcurveto
          endchar
        </CharString>
        <CharString name="quotedbl">
          396.696289062 604.66015625 rmoveto
          -107 callsubr
          -172.599609375 hmoveto
          -107 callsubr
          endchar
        </CharString>
        <CharString name="quotedblbase">
          409.193359375 19.70703125 rmoveto
          -105 callsubr
          -207.119140625 hmoveto
          -105 callsubr
          endchar
        </CharString>
        <CharString name="quotedblleft">
          285.647460938 449.696289062 rmoveto
          -37 callsubr
          -207.120117188 hmoveto
          -37 callsubr
          endchar
        </CharString>
        <CharString name="quotedblright">
          202.07421875 554.766601562 rmoveto
          -105 callsubr
          207.119140625 hmoveto
          -105 callsubr
          endchar
        </CharString>
        <CharString name="quoteleft">
          182.086914062 449.696289062 rmoveto
          -37 callsubr
          endchar
        </CharString>
        <CharString name="quoteright">
          305.633789062 554.766601562 rmoveto
          -105 callsubr
          endchar
        </CharString>
        <CharString name="quotesinglbase">
          305.633789062 19.70703125 rmoveto
          -105 callsubr
          endchar
        </CharString>
        <CharString name="quotesingle">
          319.026367188 604.66015625 rmoveto
          -107 callsubr
          endchar
        </CharString>
        <CharString name="r">
          99.2451171875 456.52734375 rmoveto
          -66 callsubr
          endchar
        </CharString>
        <CharString name="r.serif">
          64.724609375 456.52734375 rmoveto
          -57.8212890625 62.9990234375 -345.200195312 -64.724609375 -54.369140625 232.147460938 54.369140625 -95.7939453125 176.915039062 vlineto
          0 24.671875 0.375 30.892578125 35.740234375 50.619140625 36.107421875 51.138671875 40.57421875 17.6591796875 34.1171875 0 35.880859375 0 24.7109375 -19.0537109375 11.978515625 -15.86328125 5.654296875 -7.486328125 3.1796875 -7.439453125 7.28125 -6.9072265625 rrcurveto
          33.6572265625 69.0400390625 rlineto
          -32.3857421875 32.33984375 -43.0283203125 17.279296875 -42.5751953125 0 -65.78515625 0 -57.1689453125 -41.4296875 -28.3134765625 -57.380859375 rrcurveto
          2.58984375 88.0263671875 rlineto
          endchar
        </CharString>
        <CharString name="racute">
          291.694335938 699.030273438 rmoveto
          -43 callsubr
          -255.448242188 -200.215820312 rmoveto
          -66 callsubr
          endchar
        </CharString>
        <CharString name="rcaron">
          377.131835938 658.469726562 rmoveto
          -59 callsubr
          -166.559570312 -61.2734375 rmoveto
          -66 callsubr
          endchar
        </CharString>
        <CharString name="registered">
          255.712890625 18.888671875 rmoveto
          -58 callsubr
          -196.40234375 255.372070312 rmoveto
          -57 callsubr
          96.029296875 -141.358398438 rmoveto
          45.7392578125 123.408203125 65.587890625 hlineto
          62.1357421875 -125.134765625 47.46484375 6.904296875 -64.724609375 125.134765625 rlineto
          34.6337890625 9.7138671875 24.0498046875 31.408203125 0 35.451171875 0 30.86328125 -18.3427734375 29.7802734375 -33.7392578125 14.2763671875 -23.005859375 9.7333984375 -23.4296875 0.154296875 -22.3017578125 0 rrcurveto
          -94.0673828125 hlineto
          45.7392578125 -40.560546875 rmoveto
          49.1904296875 hlineto
          16.4296875 0 19.466796875 0.1806640625 16.1328125 -9.07421875 15.220703125 -8.560546875 6.9697265625 -13.8271484375 0 -12.998046875 0 -12.2685546875 -6.1884765625 -12.974609375 -13.498046875 -8.541015625 -15.873046875 -10.0439453125 -19.6552734375 0.0810546875 -16.4150390625 0 rrcurveto
          -51.7802734375 hlineto
          endchar
        </CharString>
        <CharString name="ring">
          347.79296875 604.9609375 rmoveto
          -39 callsubr
          -132.1171875 0.669921875 rmoveto
          -38 callsubr
          endchar
        </CharString>
        <CharString name="s">
          432.36328125 396.1171875 rmoveto
          -65 callsubr
          endchar
        </CharString>
        <CharString name="sacute">
          291.694335938 699.030273438 rmoveto
          -43 callsubr
          77.669921875 -260.625976562 rmoveto
          -65 callsubr
          endchar
        </CharString>
        <CharString name="scaron">
          377.131835938 658.469726562 rmoveto
          -59 callsubr
          166.55859375 -121.68359375 rmoveto
          -65 callsubr
          endchar
        </CharString>
        <CharString name="scedilla">
          432.36328125 396.1171875 rmoveto
          -42.2158203125 46.5205078125 -60.654296875 25.111328125 -67.576171875 0 -106.104492188 0 -69.5146484375 -59.291015625 0 -68.236328125 0 -79.76953125 86.5048828125 -29.0654296875 24.796875 -8.9638671875 38.638671875 -13.966796875 50.4453125 -12.1357421875 33.701171875 -15.7734375 37.6904296875 -17.642578125 7.8955078125 -24.05859375 0 -16.509765625 0 -42.794921875 -52.19140625 -29.4873046875 -65.2666015625 0 rrcurveto
          -78.310546875 0 -50.16015625 47.189453125 -14.455078125 16.4306640625 -3.40625 3.8740234375 0.4443359375 2.814453125 0.1845703125 3.9990234375 0.0625 1.373046875 0.4365234375 5.7275390625 -4.9267578125 2.302734375 rrcurveto
          -41.423828125 -71.62890625 rlineto
          49.630859375 -46.1494140625 63.501953125 -22.818359375 64.197265625 -3.14453125 rrcurveto
          -9.908203125 -75.4599609375 29.341796875 0 rlineto
          11.3916015625 0 14.4140625 0.0302734375 10.7685546875 -6.599609375 7.8359375 -4.8017578125 3.056640625 -6.6787109375 0 -5.8896484375 0 -8.705078125 -6.8037109375 -15.693359375 -38.880859375 0 -30.234375 0 -37.6552734375 10.0615234375 -31.4111328125 25.3310546875 rrcurveto
          -25.02734375 -41.423828125 rlineto
          37.3642578125 -26.2763671875 42.7841796875 -10.912109375 38.41796875 0 73.3935546875 0 35.0703125 38.6103515625 0 35.724609375 0 19.38671875 -10.4404296875 17.9775390625 -19.0634765625 9.25 -12.849609375 6.2353515625 -13.125 0.8095703125 -12.759765625 0.671875 rrcurveto
          -16.396484375 0.86328125 4.189453125 38.400390625 rlineto
          106.616210938 10.1015625 55.4931640625 67.6337890625 0 63.6142578125 0 31.62109375 -13 41.333984375 -54.0576171875 30.3447265625 -51.6259765625 28.978515625 -73.5693359375 10.31640625 -42.701171875 20.6357421875 -37.3193359375 18.0361328125 -7.94140625 22.1552734375 0 15.349609375 0 36.763671875 44.60546875 25.62109375 51.65234375 0 65.126953125 0 44.3037109375 -40.29296875 17.388671875 -22.4404296875 rrcurveto
          2.81640625 -3.6357421875 -0.65625 -2.3994140625 -0.0234375 -3.5126953125 -0.0390625 -5.982421875 3.48046875 -1.6396484375 1.765625 -0.419921875 rrcurveto
          endchar
        </CharString>
        <CharString name="section">
          412.513671875 583.387695312 rmoveto
          -30.828125 54.224609375 -58.41015625 34.033203125 -66.1572265625 0 -93.6826171875 0 -69.4541015625 -65.8359375 0 -76.2451171875 0 -39.630859375 19.0234375 -43.6376953125 47.6904296875 -29.6201171875 -47.7177734375 -17.0078125 -33.8583984375 -38.564453125 0 -45.1708984375 0 -34.4345703125 19.1875 -36.0341796875 44.4033203125 -26.23828125 49.87890625 -29.474609375 56.7744140625 -3.583984375 41.4521484375 -24.5283203125 rrcurveto
          34.0068359375 -20.1220703125 11.9462890625 -27.5048828125 0 -23.3740234375 0 -41.4130859375 -37.357421875 -37.349609375 -61.203125 0 -75.3740234375 0 -34.126953125 55.078125 -3.033203125 7.875 -2.166015625 5.6220703125 1.6220703125 8.71484375 -7.76171875 3.17578125 rrcurveto
          -52.6435546875 -61.2724609375 rlineto
          41.85546875 -54.8046875 64.83203125 -30.650390625 66.5810546875 0 101.098632812 0 69.2578125 69.048828125 0 77.9169921875 0 42.5166015625 -20.5927734375 43.876953125 -43.8173828125 29.7685546875 43.5205078125 17.8212890625 30.3837890625 37.068359375 0 41.8037109375 0 36.0244140625 -22.0595703125 43.8642578125 -69.796875 33.3291015625 -40.2763671875 19.2314453125 -37.505859375 8.4287109375 -28.703125 15.1796875 rrcurveto
          -43.6875 23.103515625 -9.2607421875 30.98828125 0 20.271484375 0 41.62890625 38.244140625 35.171875 52.6796875 0 53.091796875 0 29.8486328125 -36.244140625 8.13671875 -22.5712890625 2.5068359375 -6.951171875 -1.9765625 -8.0146484375 7.333984375 -5.541015625 rrcurveto
          -159.012695312 -134.803710938 rmoveto
          30.96875 -12.3759765625 30.9912109375 -6.9169921875 25.6845703125 -12.67578125 46.4970703125 -22.9453125 11.4541015625 -32.8173828125 0 -22.798828125 0 -26.0048828125 -14.564453125 -22.634765625 -21.8662109375 -11.0224609375 -35.986328125 14.578125 -34.6240234375 4.572265625 -30.1611328125 14.7568359375 -42.3720703125 20.7314453125 -11.57421875 30.8115234375 0 22.3134765625 0 29.068359375 18.955078125 24.66796875 26.59765625 8.6923828125 rrcurveto
          endchar
        </CharString>
        <CharString name="semicolon">
          305.633789062 19.70703125 rmoveto
          -105 callsubr
          -7.8974609375 345.767578125 rmoveto
          -103 callsubr
          endchar
        </CharString>
        <CharString name="seven">
          78.533203125 623.0859375 rmoveto
          -66.451171875 266.666992188 vlineto
          -31.46484375 -73.986328125 -30.2099609375 -74.5205078125 -28.9404296875 -75.009765625 -42.4501953125 -110.030273438 -39.7138671875 -111.083984375 -36.9296875 -112.00390625 rrcurveto
          78.533203125 hlineto
          30.376953125 98.123046875 33.0986328125 97.28125 35.7685546875 96.2900390625 36.6318359375 98.611328125 39.431640625 97.5712890625 42.16796875 96.3740234375 rrcurveto
          38.8349609375 vlineto
          endchar
        </CharString>
        <CharString name="six">
          287.084960938 630.109375 rmoveto
          -74.2763671875 0 -80.6640625 -45.7802734375 -38.3466796875 -108.940429688 -20.892578125 -59.357421875 -5.7548828125 -72.544921875 0 -59.796875 0 -72.9609375 7.103515625 -77.896484375 40.01953125 -60.4423828125 36.2841796875 -54.8017578125 55.4443359375 -27.9462890625 55.484375 0 rrcurveto
          94.71875 83.130859375 80.1396484375 128.310546875 129.682617188 -82.8515625 74.501953125 -88.0869140625 hvcurveto
          -54.3623046875 0 -50.15234375 -28.5986328125 -27.529296875 -46.6005859375 3.8076171875 213.149414062 102.560546875 27.83984375 44.7958984375 0 41.427734375 0 27.552734375 -22.037109375 3.818359375 -3.9990234375 6.1044921875 -6.3916015625 -0.19140625 -9.36328125 9.17578125 -6.7490234375 rrcurveto
          48.328125 53.505859375 rlineto
          -36.60546875 36.0810546875 -49.3388671875 20.99609375 -50.7041015625 0 rrcurveto
          -25.2255859375 -289.146484375 rmoveto
          50.0869140625 59.2890625 -39.0498046875 -107.383789062 -97.4326171875 -53.94921875 -45.3642578125 -52.8466796875 hvcurveto
          -76.0146484375 0 -56.875 89.01953125 8.255859375 116.421875 28.08984375 51.1123046875 47.7138671875 32.6767578125 46.25 0 rrcurveto
          endchar
        </CharString>
        <CharString name="slash">
          63.8623046875 -12.9453125 rmoveto
          58.68359375 -29.341796875 314.131835938 676.591796875 -59.546875 30.205078125 rlineto
          endchar
        </CharString>
        <CharString name="softhyphen">
          70.765625 347.7890625 rmoveto
          -104 callsubr
          endchar
        </CharString>
        <CharString name="space">
          endchar
        </CharString>
        <CharString name="sterling">
          417.692382812 572.168945312 rmoveto
          -35.8857421875 32.9130859375 -46.4580078125 18.0087890625 -47.6494140625 0 -92.78515625 0 -82.78515625 -69.1455078125 0 -112.151367188 0 -21.6494140625 2.9951171875 -21.1552734375 4.2509765625 -20.9951171875 rrcurveto
          -52.060546875 -56.9580078125 65.4326171875 hlineto
          7.880859375 -32.3779296875 7.1298828125 -32.716796875 0 -34.279296875 0 -45.0078125 -12.2216796875 -41.9736328125 -22.2353515625 -34.58984375 -15.8251953125 -24.619140625 -12.1142578125 -4.787109375 -46.5263671875 -21.4931640625 rrcurveto
          25.8896484375 -56.9580078125 rlineto
          64.1064453125 33.8857421875 38.5859375 3.7978515625 20.4345703125 0 72.6044921875 0 41.8173828125 -44.728515625 63.759765625 0 43.64453125 0 38.138671875 23.66015625 22.5185546875 17.904296875 rrcurveto
          -26.7529296875 51.7802734375 rlineto
          -20.30859375 -17.3857421875 -26.0126953125 -10.302734375 -27.5869140625 0 -57.2626953125 0 -41.3408203125 41.2158203125 -66.484375 0 -8.9921875 0 -8.9697265625 -0.7626953125 -8.845703125 -1.5458984375 23.74609375 38.4033203125 12.962890625 46.1337890625 0 49.384765625 0 34.2353515625 -6.3017578125 32.181640625 -7.2705078125 30.9453125 rrcurveto
          85.6005859375 56.9580078125 -99.099609375 hlineto
          -4.6943359375 21.8466796875 -3.40625 21.4541015625 0 21.3857421875 0 83.2314453125 52.98046875 40.326171875 53.6572265625 0 41.9921875 0 28.1220703125 -24.20703125 4.2451171875 -4.6640625 5.83203125 -6.41015625 -0.626953125 -8.0361328125 8.1611328125 -5.9833984375 rrcurveto
          endchar
        </CharString>
        <CharString name="t">
          188.133789062 579.073242188 rmoveto
          -64 callsubr
          endchar
        </CharString>
        <CharString name="tcaron">
          483.139648438 639.190429688 rmoveto
          40.939453125 -27.109375 25.404296875 -28.455078125 -26.3291015625 -19.7197265625 -21.45703125 -24.1630859375 vhcurveto
          0 -21.5107421875 15.2392578125 -9.1982421875 7.068359375 -4.701171875 6.9501953125 -4.6220703125 11.7900390625 -7.3671875 0 -16.46875 0 -13.2392578125 -7.939453125 -13.6728515625 -3.9072265625 -6.41796875 -7.8134765625 -12.837890625 -13.44140625 -19.4677734375 -18.9736328125 -17.44921875 rrcurveto
          27.615234375 -24.1640625 rlineto
          55.7197265625 56.5732421875 29.3056640625 52.1689453125 0 41.6513671875 rrcurveto
          -320.895507812 -60.1171875 rmoveto
          -64 callsubr
          endchar
        </CharString>
        <CharString name="tcedilla">
          188.133789062 579.073242188 rmoveto
          -8.6298828125 -122.545898438 -108.73828125 0 -0.8623046875 -58.6845703125 107.01171875 0 rlineto
          -6.3759765625 -78.2236328125 -3.1171875 -77.755859375 0 -77.583984375 0 -40.9853515625 0.3701171875 -45.9091796875 26.5888671875 -37.462890625 18.3486328125 -25.8525390625 28.4189453125 -16.9638671875 36.6181640625 -4.5859375 rrcurveto
          -10.236328125 -77.9560546875 29.341796875 0 rlineto
          11.3916015625 0 14.4140625 0.0302734375 10.7685546875 -6.599609375 7.8359375 -4.8017578125 3.056640625 -6.6787109375 0 -5.8896484375 0 -8.705078125 -6.8037109375 -15.693359375 -38.8818359375 0 -30.2333984375 0 -37.65625 10.0615234375 -31.4111328125 25.3310546875 rrcurveto
          -25.0263671875 -41.423828125 rlineto
          37.3642578125 -26.2763671875 42.783203125 -10.912109375 38.4189453125 0 73.392578125 0 35.0703125 38.6103515625 0 35.724609375 0 19.38671875 -10.4404296875 17.9775390625 -19.0634765625 9.25 -12.8486328125 6.2353515625 -13.125 0.8095703125 -12.759765625 0.671875 rrcurveto
          -16.3974609375 0.86328125 4.3662109375 40.0146484375 rlineto
          46.24609375 5.1767578125 43.8720703125 20.23046875 33.240234375 24.330078125 rrcurveto
          -22.4384765625 56.9580078125 rlineto
          -38.7666015625 -28.8251953125 -35.427734375 -12.880859375 -28.13671875 0 -34.1015625 0 -35.4501953125 18.8701171875 -7.3134765625 54.86328125 -0.5361328125 4.01953125 -2.3994140625 17.578125 0 66.220703125 0 59.7158203125 2.8955078125 59.642578125 5.7734375 59.3935546875 rrcurveto
          150.162109375 59.546875 -149.298828125 hlineto
          0 0 6.8955078125 82.287109375 4.701171875 25.3291015625 1.9873046875 10.7021484375 7.1875 6.169921875 -3.51171875 10.1396484375 rrcurveto
          endchar
        </CharString>
        <CharString name="thorn">
          60.41015625 664.509765625 rmoveto
          -831.068359375 73.3544921875 226.96875 vlineto
          30.498046875 -45.173828125 51.126953125 -27.447265625 55.4931640625 0 rrcurveto
          93.388671875 98.3037109375 78.291015625 167.525390625 161.231445312 -95.501953125 72.0458984375 -89.880859375 hvcurveto
          -58.6337890625 0 -54.619140625 -30.3232421875 -31.037109375 -49.935546875 rrcurveto
          245.091796875 vlineto
          0 15.9990234375 7.3642578125 3.181640625 -0.4609375 13.61328125 rrcurveto
          110.981445312 -258.9765625 rmoveto
          -67 callsubr
          endchar
        </CharString>
        <CharString name="three">
          410.821289062 467.188476562 rmoveto
          85.0556640625 -72.794921875 72.818359375 -98.55078125 vhcurveto
          -56.205078125 0 -54.4111328125 -23.9794921875 -39.107421875 -42.7216796875 rrcurveto
          38.8349609375 -43.150390625 rlineto
          29.0634765625 31.1474609375 39.87890625 16.6845703125 38.5302734375 0 63.9423828125 0 44.3720703125 -44.451171875 0 -52.6328125 0 -37.95703125 -23.3212890625 -41.140625 -43.1318359375 -18.9443359375 -10.955078125 -4.8115234375 -28.345703125 -10.8720703125 -59.1162109375 -0.1298828125 rrcurveto
          -56.0947265625 vlineto
          10.4931640625 1.4765625 10.580078125 0.7490234375 10.5888671875 0 rrcurveto
          84.3740234375 62.0029296875 -44.0751953125 -74.267578125 -68.4306640625 -52.4501953125 -58.591796875 -72.9482421875 hvcurveto
          -58.0478515625 0 -35.0625 37.2001953125 -4.427734375 4.98828125 -8.4921875 9.5673828125 4.451171875 9.69140625 -8.8828125 9.0927734375 rrcurveto
          -52.642578125 -62.9990234375 rlineto
          41.7900390625 -46.4599609375 59.5380859375 -24.470703125 62.40234375 0 119.369140625 0 72.4794921875 85.123046875 0 96.810546875 0 74.138671875 -42.390625 63.0810546875 -64.64453125 23.6220703125 55.9111328125 20.826171875 37.326171875 53.529296875 0 60.578125 rrcurveto
          endchar
        </CharString>
        <CharString name="threequarters">
          81.1220703125 -16.3974609375 rmoveto
          -35 callsubr
          -266.807617188 19.244140625 rmoveto
          -40.2705078125 0 -38.859375 -18.0166015625 -26.8779296875 -31.7685546875 rrcurveto
          28.99609375 -29.6875 rlineto
          19.2119140625 24.009765625 28.322265625 13.2978515625 27.0576171875 0 rrcurveto
          35.9833984375 23.736328125 -23.380859375 -23.9365234375 -18.3681640625 -14.2578125 -22.78515625 -52.4130859375 hvcurveto
          -5.296875 0 -5.2919921875 0.259765625 -5.2705078125 0.50390625 rrcurveto
          -40.04296875 vlineto
          7.7197265625 0.9443359375 7.9013671875 0.505859375 8.291015625 0 rrcurveto
          61.2314453125 9.064453125 -29.533203125 -14.7158203125 -28.47265625 -31.4580078125 -23.322265625 -39.22265625 hvcurveto
          -37.87109375 0 -24.1416015625 21.93359375 -4.2138671875 4.11328125 -7.451171875 7.271484375 3.3486328125 7.5302734375 -7.0498046875 7.48828125 rrcurveto
          -37.28125 -41.423828125 rlineto
          28.71875 -32.814453125 41.4931640625 -18.9716796875 43.63671875 0 63.7998046875 0 57.087890625 40.009765625 0 52.28125 0 33.6591796875 -24.8134765625 28.9326171875 -33.87109375 5.986328125 26.5302734375 8.447265625 18.4892578125 24.796875 0 29.271484375 0 46.0478515625 -45.1005859375 39.94921875 -59.607421875 0 rrcurveto
          268.188476562 -442.200195312 rmoveto
          -34 callsubr
          -44.8759765625 -78.0146484375 rmoveto
          -33 callsubr
          endchar
        </CharString>
        <CharString name="tilde">
          135.491210938 557.498046875 rmoveto
          -47 callsubr
          endchar
        </CharString>
        <CharString name="trademark">
          238.6640625 634.58984375 rmoveto
          -220.857421875 -39.974609375 85.9443359375 -274.822265625 44.9716796875 274.822265625 89.94140625 hlineto
          63.958984375 39.974609375 rmoveto
          -34.9775390625 -314.796875 41.97265625 214.861328125 hlineto
          54.96484375 -106.930664062 15.990234375 -1 29.48046875 53.4658203125 30.4794921875 54.46484375 0 -214.861328125 41.97265625 0 0 314.796875 -32.978515625 0 -37.4755859375 -72.453125 -37.4755859375 -72.453125 rlineto
          endchar
        </CharString>
        <CharString name="two">
          77.669921875 526.4296875 rmoveto
          50.9169921875 -40.560546875 rlineto
          5.9453125 8.4736328125 -2.5556640625 6.2490234375 5.333984375 8.2919921875 14.705078125 22.8623046875 37.41015625 33.90625 54.4189453125 0 66.3876953125 0 53.28515625 -51.4365234375 0 -66.970703125 0 -75.9150390625 -63.955078125 -54.701171875 -45.1826171875 -40.7041015625 -71.1611328125 -64.1083984375 -57.3876953125 -64.3037109375 -52.4755859375 -103.5 rrcurveto
          -44.0126953125 365.911132812 69.9033203125 vlineto
          -6.490234375 2.1533203125 -4.9013671875 -4.8544921875 -2.078125 -1.7919921875 -4.0556640625 -3.4970703125 -2.078125 -0.6396484375 -4.5595703125 0 rrcurveto
          -261.489257812 hlineto
          51.9716796875 90.603515625 72.685546875 61.919921875 44.923828125 42.087890625 45.6796875 42.7958984375 63.951171875 64.0869140625 0 89.6123046875 0 97.0859375 -79.017578125 77.9423828125 -101.719726562 0 -70.7080078125 0 -66.98828125 -38.220703125 -36.72265625 -62.7578125 rrcurveto
          endchar
        </CharString>
        <CharString name="u">
          62.9990234375 456.52734375 rmoveto
          -63 callsubr
          endchar
        </CharString>
        <CharString name="uacute">
          291.694335938 699.030273438 rmoveto
          -43 callsubr
          -291.694335938 -200.215820312 rmoveto
          -63 callsubr
          endchar
        </CharString>
        <CharString name="ucircumflex">
          133.764648438 544.552734375 rmoveto
          -42 callsubr
          -182.092773438 -228.694335938 rmoveto
          -63 callsubr
          endchar
        </CharString>
        <CharString name="udieresis">
          213.176757812 614.022460938 rmoveto
          -41 callsubr
          177.763671875 0.0126953125 rmoveto
          -40 callsubr
          -327.94140625 -157.5078125 rmoveto
          -63 callsubr
          endchar
        </CharString>
        <CharString name="ugrave">
          243.366210938 699.030273438 rmoveto
          -44 callsubr
          -268.392578125 -95.79296875 rmoveto
          -63 callsubr
          endchar
        </CharString>
        <CharString name="uhungarumlaut">
          214.024414062 699.030273438 rmoveto
          -43 callsubr
          92.3408203125 42.287109375 rmoveto
          -43 callsubr
          -369.364257812 -200.215820312 rmoveto
          -63 callsubr
          endchar
        </CharString>
        <CharString name="underscore">
          34.51953125 -18.986328125 rmoveto
          -61.2724609375 431.5 61.2724609375 vlineto
          endchar
        </CharString>
        <CharString name="uni00B2">
          111.327148438 554.045898438 rmoveto
          46.6015625 -31.0673828125 rlineto
          4.9580078125 9.41015625 -0.7080078125 4.462890625 5.3935546875 6.8232421875 17.5849609375 22.2470703125 32.640625 19.9833984375 38.40625 0 47.810546875 0 27.4755859375 -29.3291015625 0 -31.728515625 0 -30.0810546875 -22.541015625 -24.1396484375 -29.0166015625 -23.5966796875 -29.9482421875 -24.3515625 -73.4541015625 -48.76171875 -55.7099609375 -77.044921875 rrcurveto
          -44.0126953125 279.611328125 62.9990234375 vlineto
          -6.490234375 2.1533203125 -4.9013671875 -4.853515625 -2.078125 -1.79296875 -4.0556640625 -3.498046875 -2.078125 -0.638671875 -4.560546875 0 rrcurveto
          -182.092773438 hlineto
          55.8720703125 62.4384765625 55.296875 25.947265625 39.71875 36.60546875 14.205078125 13.091796875 32.53515625 32.5322265625 0 47.34375 0 60.591796875 -54.080078125 51.36328125 -79.6025390625 0 -60.642578125 0 -56.1396484375 -30.896484375 -30.0107421875 -52.2001953125 rrcurveto
          endchar
        </CharString>
        <CharString name="uni00B3">
          257.64453125 637.852539062 rmoveto
          -50.337890625 0 -48.57421875 -22.5205078125 -33.59765625 -39.7109375 rrcurveto
          36.24609375 -37.109375 rlineto
          24.0146484375 30.0126953125 35.40234375 16.6220703125 33.822265625 0 rrcurveto
          44.978515625 29.6708984375 -29.2265625 -29.919921875 -22.9599609375 -17.822265625 -28.4814453125 -65.5166015625 hvcurveto
          -6.6201171875 0 -6.615234375 0.32421875 -6.5888671875 0.6298828125 rrcurveto
          -50.0537109375 vlineto
          9.650390625 1.1806640625 9.8759765625 0.6318359375 10.3642578125 0 rrcurveto
          76.5390625 11.330078125 -36.916015625 -18.39453125 -35.5908203125 -39.322265625 -29.1533203125 -49.02734375 hvcurveto
          -47.33984375 0 -30.1767578125 27.4169921875 -5.2666015625 5.1416015625 -9.314453125 9.08984375 4.185546875 9.412109375 -8.8125 9.3603515625 rrcurveto
          -46.6015625 -51.779296875 rlineto
          35.8994140625 -41.0185546875 51.8662109375 -23.71484375 54.5458984375 0 79.7490234375 0 71.3603515625 50.0126953125 0 65.3515625 0 42.07421875 -31.0166015625 36.1650390625 -42.33984375 7.4833984375 33.1630859375 10.5595703125 23.1123046875 30.9951171875 0 36.58984375 0 57.5595703125 -56.3759765625 49.9365234375 -74.509765625 0 rrcurveto
          endchar
        </CharString>
        <CharString name="uni00B9">
          298.59765625 632.579101562 rmoveto
          -43.1494140625 0 -133.765625 -73.35546875 16.3974609375 -31.0673828125 96.65625 25.0263671875 0 -300.323242188 63.861328125 0 rlineto
          endchar
        </CharString>
        <CharString name="uni02C9">
          123.409179688 621.360351562 rmoveto
          -54 callsubr
          endchar
        </CharString>
        <CharString name="uni02CB">
          243.366210938 699.030273438 rmoveto
          -44 callsubr
          endchar
        </CharString>
        <CharString name="uni2074">
          302.049804688 641.208984375 rmoveto
          -200.215820312 -256.310546875 0 -35.3837890625 182.092773438 0 0 -97.5185546875 56.9580078125 0 0 96.65625 62.9990234375 0 0 47.46484375 -62.9990234375 0 0 245.091796875 rlineto
          -56.0947265625 -97.5185546875 rmoveto
          -147.573242188 -117.368164062 vlineto
          endchar
        </CharString>
        <CharString name="uparrow">
          58.68359375 403.883789062 rmoveto
          43.150390625 -35.3828125 116.504882812 144.466796875 0 -546.625 66.451171875 0 0 546.123046875 106.149414062 -143.96484375 50.0537109375 33.6572265625 -173.462890625 238.1875 -21.5751953125 0 rlineto
          endchar
        </CharString>
        <CharString name="uring">
          347.79296875 604.9609375 rmoveto
          -39 callsubr
          -132.1171875 0.669921875 rmoveto
          -38 callsubr
          -152.676757812 -149.103515625 rmoveto
          -63 callsubr
          endchar
        </CharString>
        <CharString name="v">
          39.6982421875 457.389648438 rmoveto
          181.229492188 -460.841796875 56.095703125 0 111.326171875 260.625976562 rlineto
          27.3251953125 63.9716796875 25.6513671875 66.611328125 15.201171875 69.6328125 rrcurveto
          -64.7255859375 hlineto
          -12.08984375 -66.568359375 -24.1845703125 -63.3525390625 -25.861328125 -59.9384765625 rrcurveto
          -73.35546875 -170.01171875 -132.038085938 333.981445312 rlineto
          -0.8359375 2.1142578125 -0.6357421875 1.794921875 0 2.4052734375 0 6.0810546875 4.9228515625 5.322265625 -1.7255859375 8.171875 rrcurveto
          endchar
        </CharString>
        <CharString name="visiblespace">
          48.328125 69.9033203125 rmoveto
          -135.491210938 403.883789062 135.491210938 -48.328125 -90.615234375 -308.954101562 90.615234375 vlineto
          endchar
        </CharString>
        <CharString name="w">
          15.5341796875 457.389648438 rmoveto
          92.3408203125 -458.252929688 64.724609375 0 80.259765625 296.009765625 84.5732421875 -296.009765625 67.314453125 0 rlineto
          30.9306640625 151.47265625 25.333984375 152.577148438 19.6796875 153.340820312 rrcurveto
          -66.451171875 hlineto
          1.802734375 -55.2138671875 -4.7275390625 -50.7548828125 -39.3623046875 -259.943359375 rrcurveto
          -96.65625 323.625 -44.0126953125 0 -78.533203125 -324.48828125 -66.451171875 329.666015625 rlineto
          -1.330078125 6.603515625 -0.2099609375 3.607421875 2.478515625 7.978515625 1.6494140625 5.3134765625 2.630859375 6.69921875 -2.6298828125 7.76953125 rrcurveto
          endchar
        </CharString>
        <CharString name="x">
          362.459960938 457.389648438 rmoveto
          -114.142578125 -169.21875 -119.73046875 169.21875 -78.533203125 0 157.805664062 -225.200195312 -160.39453125 -232.189453125 81.1220703125 0 119.145507812 177.635742188 125.946289062 -177.635742188 81.9853515625 0 -167.899414062 234.905273438 148.05078125 222.484375 rlineto
          endchar
        </CharString>
        <CharString name="y">
          45.7392578125 456.52734375 rmoveto
          -62 callsubr
          endchar
        </CharString>
        <CharString name="yacute">
          291.694335938 699.030273438 rmoveto
          -43 callsubr
          -308.954101562 -200.215820312 rmoveto
          -62 callsubr
          endchar
        </CharString>
        <CharString name="ydieresis">
          213.176757812 614.022460938 rmoveto
          -41 callsubr
          177.763671875 0.0126953125 rmoveto
          -40 callsubr
          -345.201171875 -157.5078125 rmoveto
          -62 callsubr
          endchar
        </CharString>
        <CharString name="yen">
          36.24609375 623.94921875 rmoveto
          187.270507812 -328.802734375 0 -20.712890625 -139.805664062 0 0 -56.9580078125 139.805664062 0 0 -62.9990234375 -139.805664062 0 0 -56.0947265625 139.805664062 0 0 -98.3818359375 68.177734375 0 0 98.3818359375 134.627929688 0 0 56.0947265625 -134.627929688 0 rlineto
          62.9990234375 134.627929688 56.9580078125 -134.627929688 20.712890625 vlineto
          174.325195312 327.939453125 -74.2177734375 0 -132.901367188 -259.762695312 -144.984375 260.625976562 rlineto
          endchar
        </CharString>
        <CharString name="z">
          70.765625 457.389648438 rmoveto
          -61 callsubr
          endchar
        </CharString>
        <CharString name="zacute">
          291.694335938 699.030273438 rmoveto
          -43 callsubr
          -283.927734375 -199.353515625 rmoveto
          -61 callsubr
          endchar
        </CharString>
        <CharString name="zcaron">
          377.131835938 658.469726562 rmoveto
          -59 callsubr
          -195.0390625 -60.4111328125 rmoveto
          -61 callsubr
          endchar
        </CharString>
        <CharString name="zdot">
          70.765625 457.389648438 rmoveto
          -61 callsubr
          -171.734375 198.490234375 rmoveto
          -73 callsubr
          endchar
        </CharString>
        <CharString name="zero">
          251.34765625 627.401367188 rmoveto
          -98.8857421875 -102.415039062 -121.4375 -199.407226562 -201.565429688 103.875976562 -116.228515625 98.5263671875 90.431640625 106.748046875 98.13671875 214.104492188 212.669921875 -102.405273438 113.727539062 -95.8759765625 hvcurveto
          97.3623046875 -142.431640625 rmoveto
          -219.33984375 -284.02734375 rlineto
          -8.7880859375 34.23046875 -5.1171875 39.4912109375 0 44.05078125 0 159.4140625 73.1845703125 87.9990234375 61.755859375 0 34.0888671875 0 37.484375 -26.1533203125 26.7314453125 -55.0048828125 rrcurveto
          23.125 -66.82421875 rmoveto
          8.2822265625 -35.1416015625 4.8662109375 -41.6630859375 0 -48.458984375 0 -174.123046875 -75.1376953125 -66.21484375 -54.978515625 0 -37.0068359375 0 -38.330078125 30.376953125 -27.078125 54.65234375 rrcurveto
          endchar
        </CharString>
        <CharString name="zero.noslash">
          -11.236328125 63.86328125 513.504882812 61.2724609375 hstem
          62.8427734375 66.578125 243.502929688 64.638671875 vstem
          437.5625 308.780273438 rmoveto
          196.213867188 -83.0283203125 122.41015625 -104.302734375 -109.349609375 -78.0390625 -131.2890625 -201.455078125 -196.751953125 86.67578125 -109.14453125 98.6142578125 108.796875 80.6328125 130.061523438 189.955078125 vhcurveto
          -187.978515625 257.3515625 rmoveto
          25.1025390625 0 38.05859375 -12.4267578125 26.58203125 -63.1474609375 19.5849609375 -46.5302734375 14.01171875 -81.93359375 0 -66.5107421875 0 -50.6796875 -8.3056640625 -79.974609375 -28.1943359375 -52.5693359375 -26.443359375 -49.3037109375 -34.466796875 -10.4287109375 -22.8466796875 0 -26.296875 0 -39.5048828125 13.6748046875 -27.5859375 66.32421875 -16.7646484375 40.3037109375 -13.09375 66.6611328125 0 63.927734375 rrcurveto
          0 88.642578125 15.3115234375 63.7197265625 20.466796875 44.814453125 25.3076171875 55.416015625 37.3095703125 10.0205078125 21.767578125 0 rrcurveto
          endchar
        </CharString>
</ttFont>
